<?xml version="1.0" encoding="UTF-8" standalone="no"?>
<svg
   xmlns:dc="http://purl.org/dc/elements/1.1/"
   xmlns:cc="http://creativecommons.org/ns#"
   xmlns:rdf="http://www.w3.org/1999/02/22-rdf-syntax-ns#"
   xmlns:svg="http://www.w3.org/2000/svg"
   xmlns="http://www.w3.org/2000/svg"
   xmlns:sodipodi="http://sodipodi.sourceforge.net/DTD/sodipodi-0.dtd"
   xmlns:inkscape="http://www.inkscape.org/namespaces/inkscape"
   sodipodi:docname="screw.svg"
   inkscape:version="0.92.4 (5da689c313, 2019-01-14)"
   id="svg8"
   version="1.1"
   viewBox="0 0 117.74497 55.658583"
   height="2.1912827in"
   width="4.6356287in">
  <defs
     id="defs2" />
  <sodipodi:namedview
     inkscape:window-maximized="0"
     inkscape:window-y="29"
     inkscape:window-x="1930"
     inkscape:window-height="1041"
     inkscape:window-width="1036"
     fit-margin-bottom="0.25"
     fit-margin-right="0.25"
     fit-margin-left="0.25"
     fit-margin-top="0.25"
     units="in"
     showgrid="false"
     inkscape:document-rotation="0"
     inkscape:current-layer="layer1"
     inkscape:document-units="mm"
     inkscape:cy="108.9061"
     inkscape:cx="259.32756"
     inkscape:zoom="1.4"
     inkscape:pageshadow="2"
     inkscape:pageopacity="0.0"
     borderopacity="1.0"
     bordercolor="#666666"
     pagecolor="#ffffff"
     id="base" />
  <metadata
     id="metadata5">
    <rdf:RDF>
      <cc:Work
         rdf:about="">
        <dc:format>image/svg+xml</dc:format>
        <dc:type
           rdf:resource="http://purl.org/dc/dcmitype/StillImage" />
        <dc:title />
      </cc:Work>
    </rdf:RDF>
  </metadata>
  <g
     transform="translate(-46.015755,-69.98952)"
     id="layer1"
     inkscape:groupmode="layer"
     inkscape:label="Layer 1">
    <g
       aria-label="MINOR"
       transform="scale(1.0000565,0.99994351)"
       style="font-style:normal;font-variant:normal;font-weight:normal;font-stretch:normal;font-size:4.2335701px;font-family:Calibri;-inkscape-font-specification:Calibri;writing-mode:lr-tb;fill:#000000;fill-opacity:1;fill-rule:nonzero;stroke:none;stroke-width:0.35279801"
       id="text851">
      <path
         d="m 141.04474,113.13308 q 0.0269,0.0475 0.0475,0.0971 0.0227,0.0496 0.0434,0.1013 0.0207,-0.0537 0.0413,-0.10336 0.0227,-0.0496 0.0475,-0.0951 l 0.95917,-1.66408 q 0.0248,-0.0434 0.0538,-0.0517 0.0289,-0.0103 0.0785,-0.0103 h 0.277 v 2.71626 h -0.33281 v -1.98242 q 0,-0.0413 0.002,-0.0909 0.004,-0.0517 0.008,-0.10336 l -0.9695,1.70335 q -0.0476,0.0847 -0.13644,0.0847 h -0.0537 q -0.0889,0 -0.13644,-0.0847 l -0.99224,-1.70128 q 0.0124,0.10336 0.0124,0.19224 v 1.98242 h -0.33074 v -2.71626 h 0.277 q 0.0496,0 0.0765,0.0103 0.0289,0.008 0.0558,0.0537 l 0.97157,1.66201 z"
         style="font-style:normal;font-variant:normal;font-weight:normal;font-stretch:normal;font-family:Calibri;-inkscape-font-specification:Calibri;stroke-width:0.35279801"
         id="path105" />
      <path
         d="m 143.66021,114.12325 h -0.37623 v -2.71626 h 0.37623 z"
         style="font-style:normal;font-variant:normal;font-weight:normal;font-stretch:normal;font-family:Calibri;-inkscape-font-specification:Calibri;stroke-width:0.35279801"
         id="path107" />
      <path
         d="m 144.50808,111.40699 q 0.0475,0 0.0724,0.0124 0.0248,0.0103 0.0558,0.0517 l 1.47596,2.03203 q -0.004,-0.0496 -0.008,-0.0972 -0.002,-0.0496 -0.002,-0.091 v -1.908 h 0.33074 v 2.71626 h -0.19018 q -0.0434,0 -0.0744,-0.0145 -0.029,-0.0145 -0.0579,-0.0517 l -1.47596,-2.02583 q 0.004,0.0475 0.006,0.091 0.002,0.0434 0.002,0.0827 v 1.91833 h -0.33075 v -2.71626 h 0.19639 z"
         style="font-style:normal;font-variant:normal;font-weight:normal;font-stretch:normal;font-family:Calibri;-inkscape-font-specification:Calibri;stroke-width:0.35279801"
         id="path109" />
      <path
         d="m 149.3952,112.76512 q 0,0.30594 -0.0909,0.5602 -0.0889,0.25427 -0.25427,0.43824 -0.1633,0.18398 -0.39483,0.28734 -0.22945,0.10129 -0.51059,0.10129 -0.27907,0 -0.51059,-0.10129 -0.23152,-0.10336 -0.3969,-0.28734 -0.16537,-0.18397 -0.25633,-0.43824 -0.0909,-0.25426 -0.0909,-0.5602 0,-0.30387 0.0909,-0.55814 0.091,-0.25633 0.25633,-0.4403 0.16538,-0.18605 0.3969,-0.28734 0.23152,-0.10336 0.51059,-0.10336 0.28114,0 0.51059,0.10336 0.23153,0.10129 0.39483,0.28734 0.16538,0.18397 0.25427,0.4403 0.0909,0.25427 0.0909,0.55814 z m -0.38449,0 q 0,-0.24806 -0.062,-0.44444 -0.0599,-0.19845 -0.17364,-0.33488 -0.11163,-0.1385 -0.27287,-0.21086 -0.15917,-0.0744 -0.35762,-0.0744 -0.19845,0 -0.35969,0.0744 -0.15917,0.0724 -0.27286,0.21086 -0.1137,0.13643 -0.17571,0.33488 -0.0599,0.19638 -0.0599,0.44444 0,0.24806 0.0599,0.44651 0.062,0.19638 0.17571,0.33488 0.11369,0.13644 0.27286,0.20879 0.16124,0.0724 0.35969,0.0724 0.19845,0 0.35762,-0.0724 0.16124,-0.0724 0.27287,-0.20879 0.11369,-0.1385 0.17364,-0.33488 0.062,-0.19845 0.062,-0.44651 z"
         style="font-style:normal;font-variant:normal;font-weight:normal;font-stretch:normal;font-family:Calibri;-inkscape-font-specification:Calibri;stroke-width:0.35279801"
         id="path111" />
      <path
         d="m 150.22398,112.99458 v 1.12867 h -0.37622 v -2.71626 h 0.74418 q 0.24806,0 0.42791,0.0537 0.18191,0.0517 0.29767,0.15091 0.11783,0.0971 0.17364,0.23772 0.0558,0.1385 0.0558,0.31215 0,0.14263 -0.0434,0.26666 -0.0413,0.12403 -0.12196,0.22326 -0.0785,0.0992 -0.19431,0.17157 -0.11576,0.0703 -0.26253,0.10749 0.0351,0.0227 0.0662,0.0517 0.031,0.0269 0.0599,0.0662 l 0.72972,1.07493 h -0.33489 q -0.0971,0 -0.1509,-0.0765 l -0.64289,-0.96744 q -0.031,-0.0455 -0.0682,-0.0641 -0.0351,-0.0207 -0.10749,-0.0207 z m 0,-0.27494 h 0.35349 q 0.14884,0 0.26046,-0.0372 0.1137,-0.0393 0.19018,-0.10956 0.0765,-0.0703 0.1137,-0.16744 0.0393,-0.0992 0.0393,-0.21705 0,-0.48579 -0.58915,-0.48579 h -0.36796 z"
         style="font-style:normal;font-variant:normal;font-weight:normal;font-stretch:normal;font-family:Calibri;-inkscape-font-specification:Calibri;stroke-width:0.35279801"
         id="path113" />
    </g>
    <g
       aria-label="DIAMETER"
       transform="scale(1.0001545,0.99984553)"
       style="font-style:normal;font-variant:normal;font-weight:normal;font-stretch:normal;font-size:4.23399019px;font-family:Calibri;-inkscape-font-specification:Calibri;writing-mode:lr-tb;fill:#000000;fill-opacity:1;fill-rule:nonzero;stroke:none;stroke-width:0.35283199"
       id="text855">
      <path
         d="m 141.76934,117.94586 q 0,0.30598 -0.091,0.55613 -0.0889,0.25015 -0.25222,0.43001 -0.16125,0.1778 -0.39073,0.27496 -0.22741,0.0972 -0.50444,0.0972 h -0.93859 v -2.71653 h 0.93859 q 0.27703,0 0.50444,0.0992 0.22948,0.0972 0.39073,0.27496 0.16333,0.1778 0.25222,0.43002 0.091,0.25015 0.091,0.55405 z m -0.3866,0 q 0,-0.24808 -0.06,-0.44242 -0.0599,-0.1964 -0.17159,-0.33284 -0.11164,-0.13645 -0.26876,-0.20674 -0.15712,-0.0724 -0.35145,-0.0724 h -0.56026 v 2.10873 h 0.56026 q 0.19433,0 0.35145,-0.0703 0.15712,-0.0724 0.26876,-0.20674 0.11164,-0.13645 0.17159,-0.33285 0.06,-0.1964 0.06,-0.44449 z"
         style="font-style:normal;font-variant:normal;font-weight:normal;font-stretch:normal;font-family:Calibri;-inkscape-font-specification:Calibri;stroke-width:0.35283199"
         id="path116" />
      <path
         d="m 142.63124,119.30413 h -0.37626 v -2.71653 h 0.37626 z"
         style="font-style:normal;font-variant:normal;font-weight:normal;font-stretch:normal;font-family:Calibri;-inkscape-font-specification:Calibri;stroke-width:0.35283199"
         id="path118" />
      <path
         d="m 145.41239,119.30413 h -0.2915 q -0.0496,0 -0.0806,-0.0248 -0.0289,-0.0248 -0.0455,-0.062 l -0.23155,-0.65329 h -1.12051 l -0.22948,0.65122 q -0.0124,0.0352 -0.0476,0.062 -0.0331,0.0269 -0.0806,0.0269 h -0.2915 l 1.01922,-2.71653 h 0.38246 z m -1.67457,-1.00888 h 0.93032 l -0.38454,-1.09364 q -0.0207,-0.0496 -0.0413,-0.11578 -0.0207,-0.0662 -0.0393,-0.14265 -0.0207,0.0786 -0.0413,0.14472 -0.0207,0.0662 -0.0393,0.11577 z"
         style="font-style:normal;font-variant:normal;font-weight:normal;font-stretch:normal;font-family:Calibri;-inkscape-font-specification:Calibri;stroke-width:0.35283199"
         id="path120" />
      <path
         d="m 147.15552,118.31386 q 0.0269,0.0476 0.0476,0.0972 0.0227,0.0496 0.0434,0.1013 0.0207,-0.0538 0.0413,-0.10336 0.0227,-0.0496 0.0475,-0.0951 l 0.95927,-1.66424 q 0.0248,-0.0434 0.0538,-0.0517 0.0289,-0.0103 0.0786,-0.0103 h 0.27703 v 2.71653 h -0.33285 v -1.98261 q 0,-0.0414 0.002,-0.091 0.004,-0.0517 0.008,-0.10337 l -0.9696,1.70352 q -0.0476,0.0848 -0.13645,0.0848 h -0.0538 q -0.0889,0 -0.13645,-0.0848 l -0.99234,-1.70145 q 0.0124,0.10337 0.0124,0.19227 v 1.98261 h -0.33078 v -2.71653 h 0.27703 q 0.0496,0 0.0765,0.0103 0.029,0.008 0.0558,0.0537 l 0.97167,1.66218 z"
         style="font-style:normal;font-variant:normal;font-weight:normal;font-stretch:normal;font-family:Calibri;-inkscape-font-specification:Calibri;stroke-width:0.35283199"
         id="path122" />
      <path
         d="m 150.93795,116.5876 v 0.30597 h -1.20942 v 0.89104 h 0.97374 v 0.29563 h -0.97374 v 0.91792 h 1.21148 l -0.002,0.30597 h -1.58775 v -2.71653 z"
         style="font-style:normal;font-variant:normal;font-weight:normal;font-stretch:normal;font-family:Calibri;-inkscape-font-specification:Calibri;stroke-width:0.35283199"
         id="path124" />
      <path
         d="m 153.13089,116.5876 v 0.31424 h -0.79181 v 2.40229 h -0.37833 v -2.40229 h -0.79387 v -0.31424 z"
         style="font-style:normal;font-variant:normal;font-weight:normal;font-stretch:normal;font-family:Calibri;-inkscape-font-specification:Calibri;stroke-width:0.35283199"
         id="path126" />
      <path
         d="m 155.06736,116.5876 v 0.30597 h -1.20942 v 0.89104 h 0.97374 v 0.29563 h -0.97374 v 0.91792 h 1.21148 l -0.002,0.30597 h -1.58775 v -2.71653 z"
         style="font-style:normal;font-variant:normal;font-weight:normal;font-stretch:normal;font-family:Calibri;-inkscape-font-specification:Calibri;stroke-width:0.35283199"
         id="path128" />
      <path
         d="m 155.92684,118.17534 v 1.12879 h -0.37626 v -2.71653 h 0.74425 q 0.24809,0 0.42795,0.0538 0.18193,0.0517 0.2977,0.15092 0.11784,0.0972 0.17366,0.23774 0.0558,0.13852 0.0558,0.31218 0,0.14265 -0.0434,0.26669 -0.0413,0.12404 -0.12198,0.22328 -0.0786,0.0992 -0.19433,0.17159 -0.11577,0.0703 -0.26256,0.1075 0.0352,0.0227 0.0662,0.0517 0.031,0.0269 0.06,0.0661 l 0.72979,1.07504 h -0.33492 q -0.0972,0 -0.15092,-0.0765 l -0.64295,-0.96754 q -0.031,-0.0455 -0.0682,-0.0641 -0.0351,-0.0207 -0.1075,-0.0207 z m 0,-0.27496 h 0.35352 q 0.14885,0 0.26049,-0.0372 0.11371,-0.0393 0.1902,-0.10957 0.0765,-0.0703 0.11371,-0.16746 0.0393,-0.0992 0.0393,-0.21708 0,-0.48583 -0.58921,-0.48583 h -0.36799 z"
         style="font-style:normal;font-variant:normal;font-weight:normal;font-stretch:normal;font-family:Calibri;-inkscape-font-specification:Calibri;stroke-width:0.35283199"
         id="path130" />
    </g>
    <g
       aria-label="MAJOR"
       transform="scale(0.99988,1.00012)"
       style="font-style:normal;font-variant:normal;font-weight:normal;font-stretch:normal;font-size:4.23283005px;font-family:Calibri;-inkscape-font-specification:Calibri;writing-mode:lr-tb;fill:#000000;fill-opacity:1;fill-rule:nonzero;stroke:none;stroke-width:0.35273501"
       id="text859">
      <path
         d="m 79.758785,113.1131 q 0.02687,0.0475 0.04754,0.0971 0.02273,0.0496 0.0434,0.10127 0.02067,-0.0537 0.04134,-0.10334 0.02274,-0.0496 0.04754,-0.0951 l 0.959001,-1.66378 q 0.0248,-0.0434 0.05374,-0.0517 0.02894,-0.0103 0.07854,-0.0103 h 0.276953 v 2.71579 H 80.97407 v -1.98207 q 0,-0.0413 0.0021,-0.0909 0.0041,-0.0517 0.0083,-0.10334 l -0.969335,1.70305 q -0.04754,0.0847 -0.136409,0.0847 h -0.05374 q -0.08887,0 -0.13641,-0.0847 l -0.992069,-1.70098 q 0.0124,0.10334 0.0124,0.19221 v 1.98207 h -0.33069 v -2.71579 h 0.276952 q 0.0496,0 0.07647,0.0103 0.02894,0.008 0.0558,0.0537 l 0.971402,1.66172 z"
         style="font-style:normal;font-variant:normal;font-weight:normal;font-stretch:normal;font-family:Calibri;-inkscape-font-specification:Calibri;stroke-width:0.35273501"
         id="path70" />
      <path
         d="m 84.085896,114.1031 h -0.291421 q -0.0496,0 -0.08061,-0.0248 -0.02894,-0.0248 -0.04547,-0.062 l -0.231483,-0.65311 h -1.120212 l -0.229416,0.65104 q -0.0124,0.0351 -0.04754,0.062 -0.03307,0.0269 -0.0806,0.0269 h -0.291421 l 1.018938,-2.71579 h 0.38236 z m -1.674118,-1.0086 h 0.930066 l -0.384427,-1.09334 q -0.02067,-0.0496 -0.04134,-0.11575 -0.02067,-0.0661 -0.03927,-0.14261 -0.02067,0.0785 -0.04134,0.14468 -0.02067,0.0661 -0.03927,0.11574 z"
         style="font-style:normal;font-variant:normal;font-weight:normal;font-stretch:normal;font-family:Calibri;-inkscape-font-specification:Calibri;stroke-width:0.35273501"
         id="path72" />
      <path
         d="m 85.213362,113.1627 q 0,0.22735 -0.04547,0.40717 -0.04547,0.17981 -0.136409,0.30588 -0.09094,0.12401 -0.225283,0.19015 -0.134342,0.0661 -0.310021,0.0661 -0.08061,0 -0.159145,-0.0124 -0.07854,-0.0103 -0.165345,-0.0372 0.0041,-0.0579 0.0083,-0.11368 0.0062,-0.0558 0.0124,-0.10954 0.0041,-0.031 0.02273,-0.0517 0.02067,-0.0207 0.05994,-0.0207 0.02687,0 0.0682,0.0165 0.0434,0.0145 0.113675,0.0145 0.186013,0 0.283153,-0.15294 0.09714,-0.15294 0.09714,-0.49397 v -1.78366 h 0.37616 z"
         style="font-style:normal;font-variant:normal;font-weight:normal;font-stretch:normal;font-family:Calibri;-inkscape-font-specification:Calibri;stroke-width:0.35273501"
         id="path74" />
      <path
         d="m 88.105149,112.74521 q 0,0.30589 -0.09094,0.5601 -0.08887,0.25422 -0.254218,0.43817 -0.163278,0.18394 -0.394761,0.28729 -0.229416,0.10127 -0.510502,0.10127 -0.27902,0 -0.510503,-0.10127 -0.231483,-0.10335 -0.396828,-0.28729 -0.165345,-0.18395 -0.256284,-0.43817 -0.09094,-0.25421 -0.09094,-0.5601 0,-0.30382 0.09094,-0.55804 0.09094,-0.25629 0.256284,-0.44023 0.165345,-0.18601 0.396828,-0.28729 0.231483,-0.10334 0.510503,-0.10334 0.281086,0 0.510502,0.10334 0.231483,0.10128 0.394761,0.28729 0.165345,0.18394 0.254218,0.44023 0.09094,0.25422 0.09094,0.55804 z m -0.384427,0 q 0,-0.24802 -0.062,-0.44437 -0.05994,-0.19841 -0.173612,-0.33482 -0.111608,-0.13848 -0.272819,-0.21081 -0.159144,-0.0744 -0.357558,-0.0744 -0.198414,0 -0.359626,0.0744 -0.159144,0.0723 -0.272819,0.21081 -0.113674,0.13641 -0.175679,0.33482 -0.05994,0.19635 -0.05994,0.44437 0,0.24802 0.05994,0.44643 0.062,0.19635 0.175679,0.33482 0.113675,0.13641 0.272819,0.20875 0.161212,0.0723 0.359626,0.0723 0.198414,0 0.357558,-0.0723 0.161211,-0.0723 0.272819,-0.20875 0.113675,-0.13847 0.173612,-0.33482 0.062,-0.19841 0.062,-0.44643 z"
         style="font-style:normal;font-variant:normal;font-weight:normal;font-stretch:normal;font-family:Calibri;-inkscape-font-specification:Calibri;stroke-width:0.35273501"
         id="path76" />
      <path
         d="m 88.932796,112.97462 v 1.12848 h -0.376159 v -2.71579 h 0.744052 q 0.248017,0 0.42783,0.0537 0.181879,0.0517 0.297621,0.15088 0.117808,0.0971 0.173612,0.23768 0.0558,0.13848 0.0558,0.31209 0,0.14261 -0.0434,0.26662 -0.04134,0.12401 -0.121942,0.22321 -0.07854,0.0992 -0.194281,0.17155 -0.115741,0.0703 -0.262485,0.10747 0.03514,0.0227 0.06614,0.0517 0.031,0.0269 0.05994,0.0661 l 0.729584,1.07474 h -0.334823 q -0.09714,0 -0.150877,-0.0765 l -0.642779,-0.96727 q -0.031,-0.0455 -0.0682,-0.0641 -0.03514,-0.0207 -0.107474,-0.0207 z m 0,-0.27488 h 0.353425 q 0.14881,0 0.260418,-0.0372 0.113675,-0.0393 0.190147,-0.10955 0.07647,-0.0703 0.113675,-0.16741 0.03927,-0.0992 0.03927,-0.21701 0,-0.4857 -0.589041,-0.4857 h -0.367893 z"
         style="font-style:normal;font-variant:normal;font-weight:normal;font-stretch:normal;font-family:Calibri;-inkscape-font-specification:Calibri;stroke-width:0.35273501"
         id="path78" />
    </g>
    <g
       aria-label="DIAMETER"
       transform="scale(1.0001545,0.99984553)"
       style="font-style:normal;font-variant:normal;font-weight:normal;font-stretch:normal;font-size:4.23399019px;font-family:Calibri;-inkscape-font-specification:Calibri;writing-mode:lr-tb;fill:#000000;fill-opacity:1;fill-rule:nonzero;stroke:none;stroke-width:0.35283199"
       id="text863">
      <path
         d="m 80.475888,117.94586 q 0,0.30598 -0.09096,0.55613 -0.0889,0.25015 -0.25222,0.43001 -0.161256,0.1778 -0.390735,0.27496 -0.227411,0.0972 -0.50444,0.0972 h -0.93859 v -2.71653 h 0.93859 q 0.277029,0 0.50444,0.0992 0.229479,0.0972 0.390735,0.27496 0.163323,0.1778 0.25222,0.43002 0.09096,0.25015 0.09096,0.55405 z m -0.386599,0 q 0,-0.24808 -0.05995,-0.44242 -0.05995,-0.1964 -0.171593,-0.33284 -0.111638,-0.13645 -0.268759,-0.20674 -0.157121,-0.0724 -0.351454,-0.0724 H 78.67727 v 2.10873 h 0.560259 q 0.194333,0 0.351454,-0.0703 0.157121,-0.0724 0.268759,-0.20674 0.111639,-0.13645 0.171593,-0.33285 0.05995,-0.1964 0.05995,-0.44449 z"
         style="font-style:normal;font-variant:normal;font-weight:normal;font-stretch:normal;font-family:Calibri;-inkscape-font-specification:Calibri;stroke-width:0.35283199"
         id="path133" />
      <path
         d="m 81.337795,119.30413 h -0.376263 v -2.71653 h 0.376263 z"
         style="font-style:normal;font-variant:normal;font-weight:normal;font-stretch:normal;font-family:Calibri;-inkscape-font-specification:Calibri;stroke-width:0.35283199"
         id="path135" />
      <path
         d="m 84.118957,119.30413 h -0.2915 q -0.04962,0 -0.08063,-0.0248 -0.02894,-0.0248 -0.04548,-0.062 l -0.231546,-0.65329 h -1.120519 l -0.229479,0.65122 q -0.0124,0.0352 -0.04755,0.062 -0.03308,0.0269 -0.08063,0.0269 h -0.2915 l 1.019218,-2.71653 h 0.382464 z m -1.674576,-1.00888 h 0.93032 l -0.384532,-1.09364 q -0.02067,-0.0496 -0.04135,-0.11578 -0.02067,-0.0662 -0.03928,-0.14265 -0.02067,0.0786 -0.04135,0.14472 -0.02067,0.0662 -0.03928,0.11577 z"
         style="font-style:normal;font-variant:normal;font-weight:normal;font-stretch:normal;font-family:Calibri;-inkscape-font-specification:Calibri;stroke-width:0.35283199"
         id="path137" />
      <path
         d="m 85.862072,118.31386 q 0.02688,0.0476 0.04755,0.0972 0.02274,0.0496 0.04341,0.1013 0.02067,-0.0538 0.04135,-0.10336 0.02274,-0.0496 0.04755,-0.0951 l 0.959264,-1.66424 q 0.02481,-0.0434 0.05375,-0.0517 0.02894,-0.0103 0.07856,-0.0103 h 0.277029 v 2.71653 H 87.07769 v -1.98261 q 0,-0.0414 0.0021,-0.091 0.0041,-0.0517 0.0083,-0.10337 l -0.969601,1.70352 q -0.04755,0.0848 -0.136447,0.0848 h -0.05375 q -0.0889,0 -0.136447,-0.0848 l -0.992342,-1.70145 q 0.0124,0.10337 0.0124,0.19227 v 1.98261 h -0.33078 v -2.71653 h 0.277029 q 0.04962,0 0.07649,0.0103 0.02894,0.008 0.05582,0.0537 l 0.971668,1.66218 z"
         style="font-style:normal;font-variant:normal;font-weight:normal;font-stretch:normal;font-family:Calibri;-inkscape-font-specification:Calibri;stroke-width:0.35283199"
         id="path139" />
      <path
         d="m 89.644512,116.5876 v 0.30597 h -1.209416 v 0.89104 h 0.973735 v 0.29563 h -0.973735 v 0.91792 h 1.211484 l -0.0021,0.30597 h -1.587746 v -2.71653 z"
         style="font-style:normal;font-variant:normal;font-weight:normal;font-stretch:normal;font-family:Calibri;-inkscape-font-specification:Calibri;stroke-width:0.35283199"
         id="path141" />
      <path
         d="m 91.837441,116.5876 v 0.31424 h -0.791806 v 2.40229 h -0.37833 v -2.40229 h -0.793874 v -0.31424 z"
         style="font-style:normal;font-variant:normal;font-weight:normal;font-stretch:normal;font-family:Calibri;-inkscape-font-specification:Calibri;stroke-width:0.35283199"
         id="path143" />
      <path
         d="m 93.773922,116.5876 v 0.30597 h -1.209416 v 0.89104 h 0.973735 v 0.29563 h -0.973735 v 0.91792 h 1.211483 l -0.0021,0.30597 h -1.587746 v -2.71653 z"
         style="font-style:normal;font-variant:normal;font-weight:normal;font-stretch:normal;font-family:Calibri;-inkscape-font-specification:Calibri;stroke-width:0.35283199"
         id="path145" />
      <path
         d="m 94.633407,118.17534 v 1.12879 H 94.257144 V 116.5876 H 95.0014 q 0.248085,0 0.427947,0.0538 0.18193,0.0517 0.297703,0.15092 0.11784,0.0972 0.17366,0.23774 0.05582,0.13852 0.05582,0.31218 0,0.14265 -0.04342,0.26669 -0.04135,0.12404 -0.121975,0.22328 -0.07856,0.0992 -0.194334,0.17159 -0.115773,0.0703 -0.262557,0.1075 0.03514,0.0227 0.06616,0.0517 0.03101,0.0269 0.05995,0.0661 l 0.729784,1.07504 h -0.334915 q -0.09717,0 -0.150918,-0.0765 l -0.642955,-0.96754 q -0.03101,-0.0455 -0.06822,-0.0641 -0.03515,-0.0207 -0.107504,-0.0207 z m 0,-0.27496 h 0.353521 q 0.148852,0 0.26049,-0.0372 0.113706,-0.0393 0.190199,-0.10957 0.07649,-0.0703 0.113706,-0.16746 0.03928,-0.0992 0.03928,-0.21708 0,-0.48583 -0.589203,-0.48583 h -0.367993 z"
         style="font-style:normal;font-variant:normal;font-weight:normal;font-stretch:normal;font-family:Calibri;-inkscape-font-specification:Calibri;stroke-width:0.35283199"
         id="path147" />
    </g>
    <g
       aria-label="THREAD"
       transform="scale(1.0000625,0.9999375)"
       style="font-style:normal;font-variant:normal;font-weight:normal;font-stretch:normal;font-size:4.23360014px;font-family:Calibri;-inkscape-font-specification:Calibri;writing-mode:lr-tb;fill:#000000;fill-opacity:1;fill-rule:nonzero;stroke:none;stroke-width:0.35280001"
       id="text867">
      <path
         d="m 141.71646,76.315347 v 0.314213 h -0.79173 v 2.402071 h -0.3783 V 76.62956 h -0.7938 v -0.314213 z"
         style="font-style:normal;font-variant:normal;font-weight:normal;font-stretch:normal;font-family:Calibri;-inkscape-font-specification:Calibri;stroke-width:0.35280001"
         id="path81" />
      <path
         d="m 144.11337,79.031631 h -0.3783 v -1.232043 h -1.30232 v 1.232043 h -0.3783 v -2.716284 h 0.3783 v 1.209305 h 1.30232 v -1.209305 h 0.3783 z"
         style="font-style:normal;font-variant:normal;font-weight:normal;font-stretch:normal;font-family:Calibri;-inkscape-font-specification:Calibri;stroke-width:0.35280001"
         id="path83" />
      <path
         d="m 145.08301,77.902947 v 1.128684 h -0.37623 v -2.716284 h 0.74419 q 0.24806,0 0.42791,0.05375 0.18191,0.05168 0.29768,0.150905 0.11782,0.09716 0.17364,0.237726 0.0558,0.138502 0.0558,0.312145 0,0.142636 -0.0434,0.266668 -0.0413,0.124031 -0.12196,0.223256 -0.0786,0.09923 -0.19432,0.171576 -0.11576,0.07028 -0.26253,0.107494 0.0351,0.02274 0.0661,0.05168 0.031,0.02687 0.0599,0.06615 l 0.72972,1.074937 h -0.33489 q -0.0972,0 -0.1509,-0.07649 l -0.6429,-0.967444 q -0.031,-0.04548 -0.0682,-0.06408 -0.0351,-0.02067 -0.10749,-0.02067 z m 0,-0.274936 h 0.35349 q 0.14884,0 0.26047,-0.03721 0.11369,-0.03928 0.19018,-0.109561 0.0765,-0.07028 0.11369,-0.167442 0.0393,-0.09923 0.0393,-0.217055 0,-0.485789 -0.58915,-0.485789 h -0.36796 z"
         style="font-style:normal;font-variant:normal;font-weight:normal;font-stretch:normal;font-family:Calibri;-inkscape-font-specification:Calibri;stroke-width:0.35280001"
         id="path85" />
      <path
         d="m 148.58938,76.315347 v 0.305944 h -1.2093 v 0.890958 h 0.97364 v 0.295607 h -0.97364 v 0.917832 h 1.21137 l -0.002,0.305943 h -1.5876 v -2.716284 z"
         style="font-style:normal;font-variant:normal;font-weight:normal;font-stretch:normal;font-family:Calibri;-inkscape-font-specification:Calibri;stroke-width:0.35280001"
         id="path87" />
      <path
         d="m 151.20344,79.031631 h -0.29147 q -0.0496,0 -0.0806,-0.02481 -0.0289,-0.02481 -0.0455,-0.06202 l -0.23152,-0.653232 h -1.12042 l -0.22946,0.651164 q -0.0124,0.03514 -0.0475,0.06202 -0.0331,0.02687 -0.0806,0.02687 h -0.29148 l 1.01913,-2.716284 h 0.38243 z m -1.67442,-1.008787 h 0.93023 l -0.38449,-1.093542 q -0.0207,-0.04961 -0.0413,-0.115763 -0.0207,-0.06615 -0.0393,-0.142636 -0.0207,0.07855 -0.0413,0.144703 -0.0207,0.06615 -0.0393,0.115763 z"
         style="font-style:normal;font-variant:normal;font-weight:normal;font-stretch:normal;font-family:Calibri;-inkscape-font-specification:Calibri;stroke-width:0.35280001"
         id="path89" />
      <path
         d="m 153.68394,77.673489 q 0,0.305944 -0.091,0.556074 -0.0889,0.250129 -0.2522,0.429975 -0.16124,0.177778 -0.3907,0.274936 -0.22739,0.09716 -0.50439,0.09716 h -0.9385 v -2.716284 h 0.9385 q 0.277,0 0.50439,0.09923 0.22946,0.09716 0.3907,0.274936 0.16331,0.177778 0.2522,0.429975 0.091,0.25013 0.091,0.554006 z m -0.38657,0 q 0,-0.248062 -0.06,-0.442378 -0.0599,-0.196383 -0.17157,-0.332817 -0.11163,-0.136434 -0.26874,-0.206719 -0.1571,-0.07235 -0.35142,-0.07235 h -0.56021 v 2.108531 h 0.56021 q 0.19432,0 0.35142,-0.07028 0.15711,-0.07235 0.26874,-0.206719 0.11163,-0.136435 0.17157,-0.332817 0.06,-0.196383 0.06,-0.444446 z"
         style="font-style:normal;font-variant:normal;font-weight:normal;font-stretch:normal;font-family:Calibri;-inkscape-font-specification:Calibri;stroke-width:0.35280001"
         id="path91" />
    </g>
    <g
       aria-label="PITCH"
       transform="scale(1.0001035,0.99989652)"
       style="font-style:normal;font-variant:normal;font-weight:normal;font-stretch:normal;font-size:4.23376989px;font-family:Calibri;-inkscape-font-specification:Calibri;writing-mode:lr-tb;fill:#000000;fill-opacity:1;fill-rule:nonzero;stroke:none;stroke-width:0.35281399"
       id="text871">
      <path
         d="m 140.37744,83.191353 v 1.012962 h -0.37624 v -2.716393 h 0.77936 q 0.24807,0 0.42999,0.05995 0.18399,0.05995 0.30389,0.169516 0.1199,0.109565 0.17779,0.266678 0.06,0.155045 0.06,0.347301 0,0.190189 -0.0641,0.347302 -0.062,0.157112 -0.18605,0.272879 -0.12197,0.1137 -0.30389,0.177786 -0.17985,0.06202 -0.41759,0.06202 z m 0,-0.297687 h 0.40312 q 0.14471,0 0.25634,-0.04135 0.11164,-0.04135 0.18606,-0.115767 0.0765,-0.07442 0.1137,-0.177785 0.0393,-0.103364 0.0393,-0.2274 0,-0.260476 -0.14678,-0.403118 -0.14678,-0.144709 -0.4486,-0.144709 h -0.40312 z"
         style="font-style:normal;font-variant:normal;font-weight:normal;font-stretch:normal;font-family:Calibri;-inkscape-font-specification:Calibri;stroke-width:0.35281399"
         id="path94" />
      <path
         d="m 142.60809,84.204315 h -0.37624 v -2.716393 h 0.37624 z"
         style="font-style:normal;font-variant:normal;font-weight:normal;font-stretch:normal;font-family:Calibri;-inkscape-font-specification:Calibri;stroke-width:0.35281399"
         id="path96" />
      <path
         d="m 144.96727,81.487922 v 0.314225 h -0.79176 v 2.402168 h -0.37831 v -2.402168 h -0.79383 v -0.314225 z"
         style="font-style:normal;font-variant:normal;font-weight:normal;font-stretch:normal;font-family:Calibri;-inkscape-font-specification:Calibri;stroke-width:0.35281399"
         id="path98" />
      <path
         d="m 146.9882,83.637883 q 0.0289,0 0.0538,0.02481 l 0.14884,0.161247 q -0.14678,0.194324 -0.36177,0.301822 -0.215,0.107498 -0.51475,0.107498 -0.26461,0 -0.47961,-0.101296 -0.21293,-0.101297 -0.36591,-0.283216 -0.15091,-0.183987 -0.2336,-0.438262 -0.0806,-0.256341 -0.0806,-0.564365 0,-0.308023 0.0868,-0.562297 0.0868,-0.256342 0.24394,-0.440329 0.15711,-0.183987 0.37625,-0.285283 0.21913,-0.101296 0.48374,-0.101296 0.26254,0 0.461,0.09303 0.20052,0.09303 0.34937,0.252207 l -0.12404,0.173651 q -0.0124,0.01861 -0.031,0.03101 -0.0186,0.0124 -0.0476,0.0124 -0.0351,0 -0.0785,-0.03721 -0.0414,-0.03721 -0.10957,-0.08062 -0.0682,-0.04548 -0.16951,-0.08269 -0.1013,-0.03721 -0.25221,-0.03721 -0.17779,0 -0.32663,0.07236 -0.14678,0.07235 -0.25427,0.210861 -0.10543,0.13644 -0.16539,0.334898 -0.0579,0.196391 -0.0579,0.44653 0,0.252207 0.062,0.450665 0.062,0.198458 0.16952,0.334898 0.10749,0.13644 0.2522,0.208795 0.14678,0.07235 0.31423,0.07235 0.10336,0 0.18398,-0.01447 0.0827,-0.01447 0.15092,-0.04341 0.0703,-0.03101 0.13023,-0.07649 0.062,-0.04755 0.12197,-0.111632 0.0331,-0.02894 0.0641,-0.02894 z"
         style="font-style:normal;font-variant:normal;font-weight:normal;font-stretch:normal;font-family:Calibri;-inkscape-font-specification:Calibri;stroke-width:0.35281399"
         id="path100" />
      <path
         d="m 149.62151,84.204315 h -0.37831 v -1.232093 h -1.30239 v 1.232093 h -0.37831 v -2.716393 h 0.37831 v 1.209353 h 1.30239 v -1.209353 h 0.37831 z"
         style="font-style:normal;font-variant:normal;font-weight:normal;font-stretch:normal;font-family:Calibri;-inkscape-font-specification:Calibri;stroke-width:0.35281399"
         id="path102" />
    </g>
    <g
       aria-label="SHOULDER"
       transform="scale(1.0002435,0.99975657)"
       style="font-style:normal;font-variant:normal;font-weight:normal;font-stretch:normal;font-size:4.23436022px;font-family:Calibri;-inkscape-font-specification:Calibri;writing-mode:lr-tb;fill:#000000;fill-opacity:1;fill-rule:nonzero;stroke:none;stroke-width:0.352864"
       id="text875">
      <path
         d="m 92.823412,77.896195 q -0.03101,0.05789 -0.08477,0.05789 -0.03101,0 -0.07443,-0.03101 -0.04135,-0.03308 -0.103378,-0.0703 -0.05996,-0.03928 -0.146797,-0.0703 -0.08477,-0.03308 -0.204688,-0.03308 -0.113716,0 -0.200553,0.03308 -0.08477,0.03101 -0.142662,0.08891 -0.05582,0.05582 -0.08477,0.132324 -0.02895,0.07443 -0.02895,0.161269 0,0.113716 0.05169,0.188148 0.05376,0.07443 0.138527,0.128189 0.08684,0.05169 0.196418,0.09097 0.109581,0.03928 0.223296,0.08063 0.113716,0.04135 0.223297,0.09511 0.10958,0.05169 0.19435,0.132324 0.08684,0.07857 0.138527,0.19435 0.05376,0.115784 0.05376,0.283256 0,0.179877 -0.05789,0.337012 -0.05789,0.155067 -0.169539,0.27085 -0.109581,0.115783 -0.270851,0.181945 -0.161269,0.06616 -0.368025,0.06616 -0.250175,0 -0.461066,-0.09511 -0.208823,-0.09717 -0.35562,-0.260512 l 0.109581,-0.17781 q 0.01447,-0.02274 0.03515,-0.03515 0.02274,-0.01447 0.05169,-0.01447 0.03928,0 0.08684,0.04342 0.04962,0.04135 0.121986,0.09304 0.07236,0.04962 0.173675,0.09304 0.103378,0.04135 0.246039,0.04135 0.119919,0 0.212959,-0.03515 0.09304,-0.03515 0.157134,-0.09924 0.06616,-0.06409 0.09924,-0.152999 0.03515,-0.09097 0.03515,-0.200553 0,-0.121986 -0.05376,-0.200553 -0.05169,-0.07857 -0.138526,-0.130256 -0.08477,-0.05376 -0.194351,-0.08891 -0.10958,-0.03722 -0.223296,-0.0765 -0.113716,-0.03928 -0.223297,-0.0889 -0.10958,-0.05169 -0.196418,-0.134392 -0.08477,-0.0827 -0.138526,-0.204688 -0.05169,-0.121986 -0.05169,-0.303931 0,-0.142662 0.05376,-0.277053 0.05376,-0.136459 0.155067,-0.239837 0.103378,-0.105445 0.252243,-0.167472 0.150931,-0.06409 0.345282,-0.06409 0.217094,0 0.396971,0.07236 0.181945,0.07236 0.314269,0.210891 z"
         style="font-style:normal;font-variant:normal;font-weight:normal;font-stretch:normal;font-family:Calibri;-inkscape-font-specification:Calibri;stroke-width:0.352864"
         id="path159" />
      <path
         d="M 95.468833,80.184982 H 95.09047 v -1.232265 h -1.302562 v 1.232265 H 93.409545 V 77.46821 h 0.378363 v 1.209522 H 95.09047 V 77.46821 h 0.378363 z"
         style="font-style:normal;font-variant:normal;font-weight:normal;font-stretch:normal;font-family:Calibri;-inkscape-font-specification:Calibri;stroke-width:0.352864"
         id="path161" />
      <path
         d="m 98.41413,78.826596 q 0,0.305999 -0.09097,0.560309 -0.0889,0.254309 -0.25431,0.438322 -0.163337,0.184013 -0.394903,0.287391 -0.2295,0.10131 -0.510687,0.10131 -0.279121,0 -0.510687,-0.10131 -0.231567,-0.103378 -0.396972,-0.287391 -0.165404,-0.184013 -0.256377,-0.438322 -0.09097,-0.25431 -0.09097,-0.560309 0,-0.303931 0.09097,-0.558241 0.09097,-0.256377 0.256377,-0.44039 0.165405,-0.18608 0.396972,-0.28739 0.231566,-0.103378 0.510687,-0.103378 0.281187,0 0.510687,0.103378 0.231566,0.10131 0.394903,0.28739 0.165405,0.184013 0.25431,0.44039 0.09097,0.25431 0.09097,0.558241 z m -0.384566,0 q 0,-0.248107 -0.06203,-0.444525 -0.05996,-0.198486 -0.173675,-0.334944 -0.111648,-0.138527 -0.272918,-0.210891 -0.159202,-0.07443 -0.357687,-0.07443 -0.198486,0 -0.359756,0.07443 -0.159202,0.07236 -0.272917,0.210891 -0.113716,0.136458 -0.175743,0.334944 -0.05996,0.196418 -0.05996,0.444525 0,0.248107 0.05996,0.446593 0.06203,0.196418 0.175743,0.334944 0.113715,0.136459 0.272917,0.208824 0.16127,0.07236 0.359756,0.07236 0.198485,0 0.357687,-0.07236 0.16127,-0.07237 0.272918,-0.208824 0.113716,-0.138526 0.173675,-0.334944 0.06203,-0.198486 0.06203,-0.446593 z"
         style="font-style:normal;font-variant:normal;font-weight:normal;font-stretch:normal;font-family:Calibri;-inkscape-font-specification:Calibri;stroke-width:0.352864"
         id="path163" />
      <path
         d="m 99.922275,79.887254 q 0.163335,0 0.291525,-0.05582 0.13026,-0.05789 0.21916,-0.159202 0.0889,-0.103378 0.13439,-0.243972 0.0476,-0.140594 0.0476,-0.310134 V 77.46821 h 0.37629 v 1.649912 q 0,0.235702 -0.0744,0.436255 -0.0744,0.200553 -0.21296,0.34735 -0.13646,0.146796 -0.33494,0.231566 -0.19849,0.0827 -0.446595,0.0827 -0.248107,0 -0.446593,-0.0827 -0.196418,-0.08477 -0.334945,-0.231566 -0.138526,-0.146797 -0.212958,-0.34735 -0.07443,-0.200553 -0.07443,-0.436255 V 77.46821 h 0.376295 v 1.647844 q 0,0.16954 0.04549,0.312202 0.04755,0.140594 0.136459,0.243972 0.08891,0.10131 0.217093,0.159202 0.130256,0.05582 0.293594,0.05582 z"
         style="font-style:normal;font-variant:normal;font-weight:normal;font-stretch:normal;font-family:Calibri;-inkscape-font-specification:Calibri;stroke-width:0.352864"
         id="path165" />
      <path
         d="m 101.9453,79.868646 h 1.04825 v 0.316336 h -1.42454 V 77.46821 h 0.37629 z"
         style="font-style:normal;font-variant:normal;font-weight:normal;font-stretch:normal;font-family:Calibri;-inkscape-font-specification:Calibri;stroke-width:0.352864"
         id="path167" />
      <path
         d="m 105.5275,78.826596 q 0,0.305999 -0.091,0.556174 -0.0889,0.250174 -0.25224,0.430052 -0.16127,0.17781 -0.39077,0.274985 -0.22743,0.09718 -0.50448,0.09718 h -0.93868 V 77.46821 h 0.93868 q 0.27705,0 0.50448,0.09924 0.2295,0.09717 0.39077,0.274985 0.16334,0.17781 0.25224,0.430053 0.091,0.250174 0.091,0.554105 z m -0.38663,0 q 0,-0.248107 -0.06,-0.442457 -0.06,-0.196418 -0.17161,-0.332877 -0.11165,-0.136459 -0.26878,-0.206756 -0.15713,-0.07236 -0.35148,-0.07236 h -0.56031 v 2.10891 h 0.56031 q 0.19435,0 0.35148,-0.0703 0.15713,-0.07236 0.26878,-0.206756 0.11165,-0.136459 0.17161,-0.332877 0.06,-0.196418 0.06,-0.444525 z"
         style="font-style:normal;font-variant:normal;font-weight:normal;font-stretch:normal;font-family:Calibri;-inkscape-font-specification:Calibri;stroke-width:0.352864"
         id="path169" />
      <path
         d="m 107.55606,77.46821 v 0.305999 h -1.20952 v 0.891118 h 0.97382 v 0.295661 h -0.97382 v 0.917996 h 1.21159 l -0.002,0.305998 h -1.58788 V 77.46821 Z"
         style="font-style:normal;font-variant:normal;font-weight:normal;font-stretch:normal;font-family:Calibri;-inkscape-font-specification:Calibri;stroke-width:0.352864"
         id="path171" />
      <path
         d="m 108.41598,79.056095 v 1.128887 h -0.3763 V 77.46821 h 0.74432 q 0.24811,0 0.42799,0.05376 0.18194,0.05169 0.29772,0.150931 0.11785,0.09718 0.17368,0.23777 0.0558,0.138526 0.0558,0.312201 0,0.142662 -0.0434,0.266715 -0.0414,0.124054 -0.12198,0.223297 -0.0786,0.09924 -0.19435,0.171607 -0.11579,0.0703 -0.26258,0.107513 0.0352,0.02274 0.0662,0.05169 0.031,0.02688 0.06,0.06616 l 0.72985,1.07513 h -0.33495 q -0.0972,0 -0.15093,-0.0765 l -0.64301,-0.967618 q -0.031,-0.04549 -0.0682,-0.06409 -0.0352,-0.02068 -0.10751,-0.02068 z m 0,-0.274985 h 0.35355 q 0.14886,0 0.26051,-0.03722 0.11372,-0.03928 0.19022,-0.109581 0.0765,-0.0703 0.11371,-0.167472 0.0393,-0.09924 0.0393,-0.217094 0,-0.485876 -0.58925,-0.485876 h -0.36802 z"
         style="font-style:normal;font-variant:normal;font-weight:normal;font-stretch:normal;font-family:Calibri;-inkscape-font-specification:Calibri;stroke-width:0.352864"
         id="path173" />
    </g>
    <g
       aria-label="HEAD"
       transform="scale(1.000045,0.999955)"
       style="font-style:normal;font-variant:normal;font-weight:normal;font-stretch:normal;font-size:4.23352003px;font-family:Calibri;-inkscape-font-specification:Calibri;writing-mode:lr-tb;fill:#000000;fill-opacity:1;fill-rule:nonzero;stroke:none;stroke-width:0.35279399"
       id="text879">
      <path
         d="m 67.457305,79.906586 h -0.378288 v -1.232021 h -1.302304 v 1.232021 h -0.378288 v -2.716233 h 0.378288 v 1.209281 h 1.302304 v -1.209281 h 0.378288 z"
         style="font-style:normal;font-variant:normal;font-weight:normal;font-stretch:normal;font-family:Calibri;-inkscape-font-specification:Calibri;stroke-width:0.35279399"
         id="path150" />
      <path
         d="m 69.634056,77.190353 v 0.305938 h -1.209281 v 0.890941 h 0.973626 v 0.295602 h -0.973626 v 0.917814 h 1.211349 l -0.0021,0.305938 h -1.58757 v -2.716233 z"
         style="font-style:normal;font-variant:normal;font-weight:normal;font-stretch:normal;font-family:Calibri;-inkscape-font-specification:Calibri;stroke-width:0.35279399"
         id="path152" />
      <path
         d="M 72.247998,79.906586 H 71.95653 q -0.04961,0 -0.08062,-0.02481 -0.02894,-0.02481 -0.04548,-0.06202 l -0.231521,-0.653218 h -1.120394 l -0.229454,0.651151 q -0.0124,0.03514 -0.04754,0.06202 -0.03307,0.02687 -0.08062,0.02687 h -0.291468 l 1.019104,-2.716233 h 0.382423 z m -1.674391,-1.008769 h 0.930217 l -0.384489,-1.093521 q -0.02067,-0.04961 -0.04134,-0.115761 -0.02067,-0.06615 -0.03928,-0.142633 -0.02067,0.07855 -0.04134,0.144701 -0.02067,0.06615 -0.03928,0.11576 z"
         style="font-style:normal;font-variant:normal;font-weight:normal;font-stretch:normal;font-family:Calibri;-inkscape-font-specification:Calibri;stroke-width:0.35279399"
         id="path154" />
      <path
         d="m 74.728369,78.548469 q 0,0.305938 -0.09095,0.556063 -0.08889,0.250125 -0.252192,0.429967 -0.161237,0.177775 -0.390691,0.274931 -0.227386,0.09716 -0.504384,0.09716 h -0.938485 v -2.716233 h 0.938485 q 0.276998,0 0.504384,0.09922 0.229454,0.09716 0.390691,0.27493 0.163305,0.177775 0.252192,0.429967 0.09095,0.250125 0.09095,0.553996 z m -0.386557,0 q 0,-0.248058 -0.05995,-0.44237 -0.05995,-0.196379 -0.171573,-0.332811 -0.111626,-0.136431 -0.26873,-0.206714 -0.157103,-0.07235 -0.351415,-0.07235 H 72.92995 v 2.108492 h 0.560197 q 0.194312,0 0.351415,-0.07028 0.157104,-0.07235 0.26873,-0.206715 0.111626,-0.136432 0.171573,-0.332811 0.05995,-0.196379 0.05995,-0.444437 z"
         style="font-style:normal;font-variant:normal;font-weight:normal;font-stretch:normal;font-family:Calibri;-inkscape-font-specification:Calibri;stroke-width:0.35279399"
         id="path156" />
    </g>
    <g
       transform="matrix(0.35277777,0,0,-0.35277777,79.901642,93.266887)"
       id="g911">
      <path
         inkscape:connector-curvature="0"
         id="path913"
         style="fill:none;stroke:#000000;stroke-width:0.50999999;stroke-linecap:butt;stroke-linejoin:miter;stroke-miterlimit:10;stroke-dasharray:none;stroke-opacity:1"
         d="M 0,0 1.3,9.4 4.1,8.5 0,0 m -61,9 -1.5,9.3 h 2.9 L -61,9" />
    </g>
    <g
       transform="matrix(0.35277777,0,0,-0.35277777,132.95942,94.748557)"
       id="g915">
      <path
         inkscape:connector-curvature="0"
         id="path917"
         style="fill:none;stroke:#000000;stroke-width:0.50999999;stroke-linecap:butt;stroke-linejoin:miter;stroke-miterlimit:10;stroke-dasharray:none;stroke-opacity:1"
         d="M 0,0 -1.4,9.4 H 1.4 L 0,0 M 0,-27.7 1.4,-37 h -2.8 l 1.4,9.3 m -173.8,31.9 -1.4,9.3 h 2.9 l -1.5,-9.3 m 0,-36 1.5,-9.4 h -2.9 l 1.4,9.4 M -29.4,41.5 -20,43 v -2.9 l -9.4,1.4 m -5.5,0 -9.4,-1.4 V 43 l 9.4,-1.5" />
    </g>
    <path
       inkscape:connector-curvature="0"
       sodipodi:nodetypes="cccccccc"
       d="m 90.661362,78.520777 h -6.27944 m 0,0 -4.48028,14.74612 m -15.34583,-15.02834 h -6.24417 m 0,0 0.0706,11.85334"
       style="fill:none;stroke:#000000;stroke-width:0.17991699;stroke-linecap:round;stroke-linejoin:round;stroke-miterlimit:10;stroke-dasharray:none;stroke-opacity:1"
       id="path925" />
    <g
       transform="matrix(0.35277777,0,0,-0.35277777,129.96081,94.748557)"
       id="g931">
      <path
         inkscape:connector-curvature="0"
         id="path933"
         style="fill:none;stroke:#000000;stroke-width:0.50999999;stroke-linecap:round;stroke-linejoin:round;stroke-miterlimit:10;stroke-dasharray:none;stroke-opacity:1"
         d="M 0,0 H 17.5 M 0,-27.7 h 17.5 m 9,-30.2 h -18 m 0,0 v 30.2 M 8.5,0 v 18 m -155.8,-75.9 h -18 m 0,0 v 26.1 m 0,36 v 18 M -20.9,7.8 V 50.5 M -26.4,7.8 v 42.7 m 5.5,-9 h 48.5 m -54,0 h -18" />
    </g>
    <g
       transform="matrix(0.35277777,0,0,-0.35277777,79.901642,93.266887)"
       id="g939">
      <path
         inkscape:connector-curvature="0"
         id="path941"
         style="fill:#000000;fill-opacity:1;fill-rule:nonzero;stroke:none"
         d="M 0,0 1.3,9.4 4.1,8.5 M -61,9 l -1.5,9.3 h 2.9" />
    </g>
    <g
       transform="matrix(0.35277777,0,0,-0.35277777,132.95942,94.748557)"
       id="g943">
      <path
         inkscape:connector-curvature="0"
         id="path945"
         style="fill:#000000;fill-opacity:1;fill-rule:nonzero;stroke:none"
         d="M 0,0 -1.4,9.4 H 1.4 M 0,-27.7 1.4,-37 h -2.8 m -172.4,41.2 -1.4,9.3 h 2.9 m -1.5,-45.3 1.5,-9.4 h -2.9 M -29.4,41.5 -20,43 v -2.9 m -14.9,1.4 -9.4,-1.4 V 43" />
    </g>
    <g
       transform="matrix(0.35277777,0,0,-0.35277777,57.394422,90.091887)"
       id="g951">
      <path
         inkscape:connector-curvature="0"
         id="path953"
         style="fill:none;stroke:#000000;stroke-width:0.50999999;stroke-linecap:round;stroke-linejoin:round;stroke-miterlimit:10;stroke-dasharray:none;stroke-opacity:1"
         d="M 0,0 -11.4,-11.4 M 12.7,0 1.3,-11.4 m 20.8,8 -15.7,-15.7 m -10.8,-23.5 -8.7,-8.7 M 29.2,-9 6.4,-31.9 M 41.9,-9 -3.1,-54 m 57.7,45 -45,-45 m 57.8,45 -36,-36 m 48.7,36 -36,-36 m 48.7,36 -36,-36 m 46.8,34 -34.1,-34 M 115.2,-12.1 82.3,-45 m 48.1,35.4 -32.9,-32.9 m 44.6,31.9 -32.9,-33 m 14.4,1.7 -2.7,-2.7 m 32.9,32.9 -29.7,-29.7 m 41.5,28.8 -29.5,-29.5 m 32.9,32.9 -2.2,-2.2 m 13.9,1.1 -33,-32.9 m 44.6,31.9 -32.9,-32.9 m 12.6,-0.2 -0.6,-0.6 m 30.7,30.7 -27.5,-27.5 m 27.5,14.8 -15.8,-15.8 m 15.8,3.1 -4.1,-4.2" />
    </g>
    <g
       transform="matrix(0.35277777,0,0,-0.35277777,90.626092,105.96689)"
       id="g955">
      <path
         inkscape:connector-curvature="0"
         id="path957"
         style="fill:none;stroke:#000000;stroke-width:0.70899999;stroke-linecap:round;stroke-linejoin:round;stroke-miterlimit:10;stroke-dasharray:none;stroke-opacity:1"
         d="M 0,0 V 0.1 M 107.2,3.5 V 3.6 M 99.7,0 l 1,1.8 1,1.8 M 94.1,0 l 1.1,1.8 1,1.8 M 88.6,0 l 1,1.8 1,1.8 M 83,0 l 1.1,1.8 1,1.8 M 77.5,0 l 1,1.8 1.1,1.8 M 72,0 73,1.8 74,3.6 M 66.4,0 l 1.1,1.8 1,1.8 M 60.9,0 l 1,1.8 1,1.8 M 55.3,0 l 1.1,1.8 1,1.8 M 49.8,0 l 1.1,1.8 1,1.8 M 44.3,0 l 1,1.8 1,1.8 M 38.7,0 l 1.1,1.8 1,1.8 M 33.2,0 l 1,1.8 1,1.8 M 27.7,0 l 1,1.8 1,1.8 M 22.1,0 l 1.1,1.8 1,1.8 M 16.6,0 l 1,1.8 1,1.8 M 11,0 l 1.1,1.8 1,1.8 M 5.5,0 6.5,1.8 7.6,3.6 M -0.1,0 3,3.1 M 1.2,34.7 -0.1,36 M 107,3.3 104.2,0.4 m 2.8,2.9 0.2,0.2 m 0.7,0.6 -0.6,-0.5 m -1.4,30.2 2,-2 M 0,0.1 -0.1,0 m 4.8,32.4 -0.5,1 -0.6,1 -0.9,1.6 m -110.8,-2.4 h 20.3 m -20.3,0 v 7.8 m 0,0 3.6,3.6 m 30.6,0 h -30.6 m 30.6,0 1.8,-1.8 m 0,-7.2 v 7.2 m 0,-7.2 h 72 M 2,36 1.4,35 1.2,34.7 M 2,36 H 2.7 M 5.4,32.4 H 4.7 M 7.5,36 6.9,35 6.4,34 5.4,32.4 M 7.5,36 h 0.7 m 2.1,-3.6 -0.6,1 -0.6,1 L 8.2,36 M 11,32.4 H 10.3 M 13.1,36 12.5,35 11.9,34 11,32.4 m 2.1,3.6 h 0.6 m 2.1,-3.6 -0.6,1 -0.5,1 -1,1.6 m 2.8,-3.6 H 15.8 M 18.6,36 18,35 17.4,34 16.5,32.4 m 2.1,3.6 h 0.7 m 2.1,-3.6 -0.6,1 -0.6,1 -0.9,1.6 m 2.8,-3.6 H 21.4 M 24.1,36 23.6,35 23,34 22.1,32.4 m 2,3.6 h 0.7 m 2.1,-3.6 -0.6,1 -0.6,1 -0.9,1.6 m 2.8,-3.6 h -0.7 m 2.8,3.6 -0.6,-1 -0.6,-1 -0.9,-1.6 m 2.1,3.6 h 0.7 m 2,-3.6 -0.5,1 -0.6,1 -0.9,1.6 m 2.7,-3.6 H 32.4 M 35.2,36 34.6,35 34,34 33.1,32.4 m 2.1,3.6 h 0.7 m 2.1,-3.6 -0.6,1 -0.6,1 -0.9,1.6 m 2.8,-3.6 H 38 m 2.7,3.6 -0.5,-1 -0.6,-1 -0.9,-1.6 m 2,3.6 h 0.7 m 2.1,-3.6 -0.6,1 -0.5,1 -1,1.6 m 2.8,-3.6 H 43.5 M 46.3,36 45.7,35 45.1,34 44.2,32.4 M 46.3,36 H 47 m 2.1,-3.6 -0.6,1 -0.6,1 L 47,36 m 2.7,-3.6 h -0.6 m 2.7,3.6 -0.6,-1 -0.5,-1 -1,-1.6 m 2.1,3.6 h 0.7 m 2.1,-3.6 -0.6,1 -0.6,1 -0.9,1.6 m 2.8,-3.6 h -0.7 m 2.8,3.6 -0.6,-1 -0.6,-1 -0.9,-1.6 m 2.1,3.6 h 0.7 m 2,-3.6 -0.5,1 -0.6,1 -0.9,1.6 m 2.7,-3.6 h -0.7 m 2.8,3.6 -0.6,-1 -0.6,-1 -0.9,-1.6 m 2.1,3.6 h 0.7 m 2.1,-3.6 -0.6,1 -0.6,1 -0.9,1.6 m 2.8,-3.6 h -0.7 m 2.7,3.6 -0.5,-1 -0.6,-1 -0.9,-1.6 m 2,3.6 h 0.7 m 2.1,-3.6 -0.6,1 -0.6,1 -0.9,1.6 m 2.8,-3.6 H 71.2 M 74,36 73.4,35 72.8,34 71.9,32.4 M 74,36 h 0.7 m 2,-3.6 -0.5,1 -0.6,1 -0.9,1.6 m 2.7,-3.6 h -0.7 m 2.8,3.6 -0.6,-1 -0.5,-1 -1,-1.6 m 2.1,3.6 h 0.7 m 2.1,-3.6 -0.6,1 -0.6,1 -0.9,1.6 M 83,32.4 H 82.3 M 85.1,36 84.5,35 83.9,34 83,32.4 m 2.1,3.6 h 0.6 m 2.1,-3.6 -0.6,1 -0.5,1 -1,1.6 m 2.8,-3.6 H 87.8 M 90.6,36 90,35 89.4,34 88.5,32.4 m 2.1,3.6 h 0.7 m 2.1,-3.6 -0.6,1 -0.6,1 -0.9,1.6 m 2.8,-3.6 H 93.4 M 96.1,36 95.6,35 95,34 94.1,32.4 m 2,3.6 h 0.7 m 2.1,-3.6 -0.6,1 -0.6,1 -0.9,1.6 m 2.8,-3.6 h -0.7 m 2.8,3.6 -0.6,-1 -0.6,-1 -0.9,-1.6 m 2.1,3.6 h 0.7 m 2,-3.6 -0.5,1 -0.6,1 -0.9,1.6 m 2.7,-3.6 h -0.7 m 1.5,1.4 -0.8,-1.4 m 2.8,-0.6 V 4.1 m -0.7,-0.5 h 0.1 m -0.3,-0.3 0.2,0.3 m -4.8,0 0.5,-1 0.6,-1 0.7,-1.2 m -2.5,3.2 h 0.7 M 99.6,0 l 0.6,1 0.6,1 0.9,1.6 M 99.6,0 h -0.7 m -2.1,3.6 0.6,-1 0.6,-1 0.9,-1.6 m -2.8,3.6 h 0.7 M 94.1,0 l 0.5,1 0.6,1 0.9,1.6 M 94.1,0 h -0.7 m -2.1,3.6 0.6,-1 0.5,-1 1,-1.6 m -2.8,3.6 h 0.7 M 88.5,0 l 0.6,1 0.6,1 0.9,1.6 M 88.5,0 h -0.7 m -2.1,3.6 0.6,-1 0.6,-1 0.9,-1.6 m -2.7,3.6 h 0.6 M 83,0 l 0.6,1 0.5,1 1,1.6 M 83,0 h -0.7 m -2.1,3.6 0.6,-1 0.6,-1 0.9,-1.6 m -2.8,3.6 h 0.7 M 77.4,0 78,1 78.6,2 79.5,3.6 M 77.4,0 h -0.7 m -2,3.6 0.5,-1 0.6,-1 L 76.7,0 M 74,3.6 h 0.7 M 71.9,0 72.5,1 73.1,2 74,3.6 M 71.9,0 h -0.7 m -2.1,3.6 0.6,-1 0.6,-1 0.9,-1.6 m -2.8,3.6 h 0.7 M 66.4,0 l 0.5,1 0.6,1 0.9,1.6 M 66.4,0 h -0.7 m -2.1,3.6 0.6,-1 0.6,-1 0.9,-1.6 m -2.8,3.6 h 0.7 M 60.8,0 61.4,1 62,2 62.9,3.6 M 60.8,0 h -0.7 m -2,3.6 0.5,-1 0.6,-1 0.9,-1.6 m -2.7,3.6 h 0.7 M 55.3,0 l 0.6,1 0.5,1 1,1.6 M 55.3,0 h -0.7 m -2.1,3.6 0.6,-1 0.6,-1 0.9,-1.6 m -2.8,3.6 h 0.7 M 49.7,0 l 0.6,1 0.6,1 0.9,1.6 M 49.7,0 h -0.6 m -2.1,3.6 0.6,-1 0.5,-1 1,-1.6 M 46.3,3.6 H 47 M 44.2,0 l 0.6,1 0.6,1 0.9,1.6 M 44.2,0 h -0.7 m -2.1,3.6 0.6,-1 0.6,-1 0.9,-1.6 m -2.8,3.6 h 0.7 M 38.7,0 l 0.5,1 0.6,1 0.9,1.6 M 38.7,0 H 38 m -2.1,3.6 0.6,-1 0.6,-1 L 38,0 m -2.8,3.6 h 0.7 M 33.1,0 l 0.6,1 0.6,1 0.9,1.6 M 33.1,0 h -0.7 m -2,3.6 0.5,-1 0.6,-1 0.9,-1.6 m -2.7,3.6 h 0.7 M 27.6,0 l 0.6,1 0.6,1 0.9,1.6 M 27.6,0 h -0.7 m -2.1,3.6 0.6,-1 0.6,-1 0.9,-1.6 m -2.8,3.6 h 0.7 M 22.1,0 l 0.5,1 0.6,1 0.9,1.6 M 22.1,0 h -0.7 m -2.1,3.6 0.6,-1 0.5,-1 1,-1.6 m -2.8,3.6 h 0.7 M 16.5,0 l 0.6,1 0.6,1 0.9,1.6 M 16.5,0 h -0.7 m -2.1,3.6 0.6,-1 0.6,-1 0.9,-1.6 m -2.7,3.6 h 0.6 M 11,0 l 0.6,1 0.5,1 1,1.6 M 11,0 H 10.3 M 8.2,3.6 8.8,2.6 9.4,1.6 10.3,0 M 7.5,3.6 H 8.2 M 5.4,0 6,1 6.6,2 7.5,3.6 M 5.4,0 H 4.7 M 3,3.1 3.2,2.6 3.8,1.6 4.7,0 m -4.8,0 h -72 m 0,-7.2 V 0 m 0,-7.2 -1.8,-1.8 m -30.6,0 h 30.6 m -30.6,0 -3.6,3.6 m 0,0 v 7.8 m 20.3,0 h -20.3 m 20.3,0 V 33.6 M 101.7,36 101.5,35.8 V 35.5 M 99.7,0.1 99.6,0 M 96.1,36 96,35.8 95.9,35.5 M 94.1,0.1 V 0 M 90.6,36 90.5,35.8 90.4,35.5 M 88.6,0.1 88.5,0 M 85.1,36 84.9,35.8 V 35.5 M 83,0.1 V 0 M 79.5,36 79.4,35.8 79.3,35.5 M 77.5,0.1 77.4,0 M 74,36 73.9,35.8 73.8,35.5 M 72,0.1 71.9,0 M 68.4,36 68.3,35.8 68.2,35.5 M 66.4,0.1 V 0 M 62.9,36 62.8,35.8 62.7,35.5 M 60.9,0.1 60.8,0 M 57.4,36 57.2,35.8 V 35.5 M 55.3,0.1 V 0 M 51.8,36 51.7,35.8 51.6,35.5 M 49.8,0.1 49.7,0 M 46.3,36 46.2,35.8 46.1,35.5 M 44.3,0.1 44.2,0 M 40.7,36 40.6,35.8 V 35.5 M 38.7,0.1 V 0 M 35.2,36 35.1,35.8 35,35.5 M 33.2,0.1 33.1,0 M 29.7,36 29.5,35.8 V 35.5 M 27.7,0.1 27.6,0 M 24.1,36 24,35.8 23.9,35.5 M 22.1,0.1 V 0 M 18.6,36 18.5,35.8 18.4,35.5 M 16.6,0.1 16.5,0 M 13.1,36 12.9,35.8 V 35.5 M 11,0.1 V 0 M 7.5,36 7.4,35.8 7.3,35.5 M 5.5,0.1 5.4,0 M 2,36 1.9,35.8 1.8,35.5 m -109.9,-25.3 0.7,-0.8 0.6,-0.8 0.5,-0.9 0.3,-0.9 V 6.3 l -0.1,-0.8 -0.2,-0.6 -0.3,-0.6 -0.3,-0.5 -0.8,-1 -0.4,-0.4 m 20.3,7.8 h -20.3 m 20.3,15.6 h -20.3 m 0,7.8 0.4,-0.4 0.7,-0.8 0.5,-0.9 0.4,-0.9 0.1,-0.4 v -0.7 l -0.3,-1.2 -0.3,-0.7 -0.3,-0.4 -0.8,-1 -0.4,-0.4 m 0,7.8 v -0.1 -0.3 -0.4 -0.6 -0.7 -0.9 -1 -1.2 -1.3 -1.3 m 0,-15.6 V 8.8 7.5 6.4 5.4 4.5 3.7 3.2 2.7 2.5 2.4 m 0,23.4 1.2,-2.7 0.6,-2.6 0.3,-2.7 -0.3,-2.7 -0.8,-2.6 -1,-2.3 m 0,15.6 V 24.3 22.8 21.2 19.6 18 16.4 14.7 13.2 11.6 10.2" />
    </g>
  </g>
</svg>
