  0
SECTION
  2
HEADER
  9
$ACADVER
  1
AC1015
  9
$ACADMAINTVER
 70
     6
  9
$DWGCODEPAGE
  3
ANSI_1252
  9
$INSBASE
 10
0.0
 20
0.0
 30
0.0
  9
$EXTMIN
 10
0.0
 20
0.0
 30
0.0
  9
$EXTMAX
 10
11.0
 20
8.5
 30
0.0
  9
$LIMMIN
 10
0.0
 20
0.0
  9
$LIMMAX
 10
12.0
 20
9.0
  9
$ORTHOMODE
 70
     0
  9
$REGENMODE
 70
     1
  9
$FILLMODE
 70
     1
  9
$QTEXTMODE
 70
     0
  9
$MIRRTEXT
 70
     1
  9
$LTSCALE
 40
1.0
  9
$ATTMODE
 70
     1
  9
$TEXTSIZE
 40
0.125
  9
$TRACEWID
 40
0.05
  9
$TEXTSTYLE
  7
Standard
  9
$CLAYER
  8
0
  9
$CELTYPE
  6
ByLayer
  9
$CECOLOR
 62
   256
  9
$CELTSCALE
 40
1.0
  9
$DISPSILH
 70
     0
  9
$DIMSCALE
 40
1.0
  9
$DIMASZ
 40
0.13
  9
$DIMEXO
 40
0.05
  9
$DIMDLI
 40
0.38
  9
$DIMRND
 40
0.0
  9
$DIMDLE
 40
0.0
  9
$DIMEXE
 40
0.125
  9
$DIMTP
 40
0.0
  9
$DIMTM
 40
0.0
  9
$DIMTXT
 40
0.125
  9
$DIMCEN
 40
0.09
  9
$DIMTSZ
 40
0.0
  9
$DIMTOL
 70
     0
  9
$DIMLIM
 70
     0
  9
$DIMTIH
 70
     1
  9
$DIMTOH
 70
     1
  9
$DIMSE1
 70
     0
  9
$DIMSE2
 70
     0
  9
$DIMTAD
 70
     0
  9
$DIMZIN
 70
     0
  9
$DIMBLK
  1

  9
$DIMASO
 70
     1
  9
$DIMSHO
 70
     1
  9
$DIMPOST
  1

  9
$DIMAPOST
  1

  9
$DIMALT
 70
     0
  9
$DIMALTD
 70
     2
  9
$DIMALTF
 40
25.4
  9
$DIMLFAC
 40
1.0
  9
$DIMTOFL
 70
     0
  9
$DIMTVP
 40
0.0
  9
$DIMTIX
 70
     0
  9
$DIMSOXD
 70
     0
  9
$DIMSAH
 70
     0
  9
$DIMBLK1
  1

  9
$DIMBLK2
  1

  9
$DIMSTYLE
  2
Standard
  9
$DIMCLRD
 70
     0
  9
$DIMCLRE
 70
     0
  9
$DIMCLRT
 70
     0
  9
$DIMTFAC
 40
1.0
  9
$DIMGAP
 40
0.06
  9
$DIMJUST
 70
     0
  9
$DIMSD1
 70
     0
  9
$DIMSD2
 70
     0
  9
$DIMTOLJ
 70
     1
  9
$DIMTZIN
 70
     0
  9
$DIMALTZ
 70
     0
  9
$DIMALTTZ
 70
     0
  9
$DIMUPT
 70
     0
  9
$DIMDEC
 70
     3
  9
$DIMTDEC
 70
     3
  9
$DIMALTU
 70
     2
  9
$DIMALTTD
 70
     2
  9
$DIMTXSTY
  7
Standard
  9
$DIMAUNIT
 70
     0
  9
$DIMADEC
 70
     0
  9
$DIMALTRND
 40
0.0
  9
$DIMAZIN
 70
     0
  9
$DIMDSEP
 70
    46
  9
$DIMATFIT
 70
     3
  9
$DIMFRAC
 70
     0
  9
$DIMLDRBLK
  1

  9
$DIMLUNIT
 70
     2
  9
$DIMLWD
 70
    -2
  9
$DIMLWE
 70
    -2
  9
$DIMTMOVE
 70
     0
  9
$LUNITS
 70
     2
  9
$LUPREC
 70
     3
  9
$SKETCHINC
 40
0.1
  9
$FILLETRAD
 40
0.5
  9
$AUNITS
 70
     0
  9
$AUPREC
 70
     2
  9
$MENU
  1
.
  9
$ELEVATION
 40
0.0
  9
$PELEVATION
 40
0.0
  9
$THICKNESS
 40
0.0
  9
$LIMCHECK
 70
     0
  9
$CHAMFERA
 40
0.0
  9
$CHAMFERB
 40
0.0
  9
$CHAMFERC
 40
0.0
  9
$CHAMFERD
 40
0.0
  9
$SKPOLY
 70
     0
  9
$TDCREATE
 40
2459007.679493669
  9
$TDUCREATE
 40
2459007.846160335
  9
$TDUPDATE
 40
2459007.679498889
  9
$TDUUPDATE
 40
2459007.846165556
  9
$TDINDWG
 40
0.0000000116
  9
$TDUSRTIMER
 40
0.0000000116
  9
$USRTIMER
 70
     1
  9
$ANGBASE
 50
0.0
  9
$ANGDIR
 70
     0
  9
$PDMODE
 70
     0
  9
$PDSIZE
 40
-1.0
  9
$PLINEWID
 40
0.0
  9
$SPLFRAME
 70
     0
  9
$SPLINETYPE
 70
     6
  9
$SPLINESEGS
 70
     8
  9
$HANDSEED
  5
1C6
  9
$SURFTAB1
 70
     6
  9
$SURFTAB2
 70
     6
  9
$SURFTYPE
 70
     6
  9
$SURFU
 70
     6
  9
$SURFV
 70
     6
  9
$UCSBASE
  2

  9
$UCSNAME
  2

  9
$UCSORG
 10
0.0
 20
0.0
 30
0.0
  9
$UCSXDIR
 10
1.0
 20
0.0
 30
0.0
  9
$UCSYDIR
 10
0.0
 20
1.0
 30
0.0
  9
$UCSORTHOREF
  2

  9
$UCSORTHOVIEW
 70
     0
  9
$UCSORGTOP
 10
0.0
 20
0.0
 30
0.0
  9
$UCSORGBOTTOM
 10
0.0
 20
0.0
 30
0.0
  9
$UCSORGLEFT
 10
0.0
 20
0.0
 30
0.0
  9
$UCSORGRIGHT
 10
0.0
 20
0.0
 30
0.0
  9
$UCSORGFRONT
 10
0.0
 20
0.0
 30
0.0
  9
$UCSORGBACK
 10
0.0
 20
0.0
 30
0.0
  9
$PUCSBASE
  2

  9
$PUCSNAME
  2

  9
$PUCSORG
 10
0.0
 20
0.0
 30
0.0
  9
$PUCSXDIR
 10
1.0
 20
0.0
 30
0.0
  9
$PUCSYDIR
 10
0.0
 20
1.0
 30
0.0
  9
$PUCSORTHOREF
  2

  9
$PUCSORTHOVIEW
 70
     0
  9
$PUCSORGTOP
 10
0.0
 20
0.0
 30
0.0
  9
$PUCSORGBOTTOM
 10
0.0
 20
0.0
 30
0.0
  9
$PUCSORGLEFT
 10
0.0
 20
0.0
 30
0.0
  9
$PUCSORGRIGHT
 10
0.0
 20
0.0
 30
0.0
  9
$PUCSORGFRONT
 10
0.0
 20
0.0
 30
0.0
  9
$PUCSORGBACK
 10
0.0
 20
0.0
 30
0.0
  9
$USERI1
 70
     0
  9
$USERI2
 70
     0
  9
$USERI3
 70
     0
  9
$USERI4
 70
     0
  9
$USERI5
 70
     0
  9
$USERR1
 40
0.0
  9
$USERR2
 40
0.0
  9
$USERR3
 40
0.0
  9
$USERR4
 40
0.0
  9
$USERR5
 40
0.0
  9
$WORLDVIEW
 70
     1
  9
$SHADEDGE
 70
     3
  9
$SHADEDIF
 70
    70
  9
$TILEMODE
 70
     0
  9
$MAXACTVP
 70
    64
  9
$PINSBASE
 10
0.0
 20
0.0
 30
0.0
  9
$PLIMCHECK
 70
     0
  9
$PEXTMIN
 10
0.0
 20
0.0
 30
0.0
  9
$PEXTMAX
 10
11.0
 20
8.5
 30
0.0
  9
$PLIMMIN
 10
0.0
 20
0.0
  9
$PLIMMAX
 10
11.0
 20
8.5
  9
$UNITMODE
 70
     0
  9
$VISRETAIN
 70
     1
  9
$PLINEGEN
 70
     0
  9
$PSLTSCALE
 70
     1
  9
$TREEDEPTH
 70
  3020
  9
$CMLSTYLE
  2
Standard
  9
$CMLJUST
 70
     0
  9
$CMLSCALE
 40
1.0
  9
$PROXYGRAPHICS
 70
     1
  9
$MEASUREMENT
 70
     0
  9
$CELWEIGHT
370
    -1
  9
$ENDCAPS
280
     0
  9
$JOINSTYLE
280
     0
  9
$LWDISPLAY
290
     1
  9
$INSUNITS
 70
     1
  9
$HYPERLINKBASE
  1

  9
$STYLESHEET
  1

  9
$XEDIT
290
     1
  9
$CEPSNTYPE
380
     0
  9
$PSTYLEMODE
290
     1
  9
$FINGERPRINTGUID
  2
{AABA7740-11E7-46C5-B5CD-1FF657412446}
  9
$VERSIONGUID
  2
{FAEB1C32-E019-11D5-929B-00C0DF256EC4}
  9
$EXTNAMES
290
     1
  9
$PSVPSCALE
 40
0.0
  9
$OLESTARTUP
290
     0
  0
ENDSEC
  0
SECTION
  2
CLASSES
  0
CLASS
  1
ACDBDICTIONARYWDFLT
  2
AcDbDictionaryWithDefault
  3
ObjectDBX Classes
 90
        0
280
     0
281
     0
  0
CLASS
  1
VISUALSTYLE
  2
AcDbVisualStyle
  3
ObjectDBX Classes
 90
     4095
280
     0
281
     0
  0
CLASS
  1
MATERIAL
  2
AcDbMaterial
  3
ObjectDBX Classes
 90
     1153
280
     0
281
     0
  0
CLASS
  1
SCALE
  2
AcDbScale
  3
ObjectDBX Classes
 90
     1153
280
     0
281
     0
  0
CLASS
  1
TABLESTYLE
  2
AcDbTableStyle
  3
ObjectDBX Classes
 90
     4095
280
     0
281
     0
  0
CLASS
  1
MLEADERSTYLE
  2
AcDbMLeaderStyle
  3
ACDB_MLEADERSTYLE_CLASS
 90
     4095
280
     0
281
     0
  0
CLASS
  1
SUN
  2
AcDbSun
  3
SCENEOE
 90
     1153
280
     0
281
     0
  0
CLASS
  1
ACDBPLACEHOLDER
  2
AcDbPlaceHolder
  3
ObjectDBX Classes
 90
        0
280
     0
281
     0
  0
CLASS
  1
LAYOUT
  2
AcDbLayout
  3
ObjectDBX Classes
 90
        0
280
     0
281
     0
  0
ENDSEC
  0
SECTION
  2
TABLES
  0
TABLE
  2
VPORT
  5
8
330
0
100
AcDbSymbolTable
 70
     1
  0
VPORT
  5
29
330
8
100
AcDbSymbolTableRecord
100
AcDbViewportTableRecord
  2
*Active
 70
     0
 10
0.0
 20
0.0
 11
1.0
 21
1.0
 12
5.5
 22
4.25
 13
0.0
 23
0.0
 14
0.5
 24
0.5
 15
0.5
 25
0.5
 16
0.0
 26
0.0
 36
1.0
 17
0.0
 27
0.0
 37
0.0
 40
8.5
 41
1.2941176471
 42
50.0
 43
0.0
 44
0.0
 50
0.0
 51
0.0
 71
     0
 72
  2000
 73
     1
 74
     3
 75
     0
 76
     0
 77
     0
 78
     0
281
     0
 65
     1
110
0.0
120
0.0
130
0.0
111
1.0
121
0.0
131
0.0
112
0.0
122
1.0
132
0.0
 79
     0
146
0.0
  0
ENDTAB
  0
TABLE
  2
LTYPE
  5
5
330
0
100
AcDbSymbolTable
 70
     6
  0
LTYPE
  5
14
330
5
100
AcDbSymbolTableRecord
100
AcDbLinetypeTableRecord
  2
ByBlock
 70
     0
  3

 72
    65
 73
     0
 40
0.0
  0
LTYPE
  5
15
330
5
100
AcDbSymbolTableRecord
100
AcDbLinetypeTableRecord
  2
ByLayer
 70
     0
  3

 72
    65
 73
     0
 40
0.0
  0
LTYPE
  5
16
330
5
100
AcDbSymbolTableRecord
100
AcDbLinetypeTableRecord
  2
Continuous
 70
     0
  3
Solid line
 72
    65
 73
     0
 40
0.0
  0
LTYPE
  5
6E
330
5
100
AcDbSymbolTableRecord
100
AcDbLinetypeTableRecord
  2
HIDDEN
 70
     0
  3
Hidden __ __ __ __ __ __ __ __ __ __ __ __ __ __
 72
    65
 73
     2
 40
0.075
 49
0.05
 74
     0
 49
-0.025
 74
     0
  0
LTYPE
  5
6F
330
5
100
AcDbSymbolTableRecord
100
AcDbLinetypeTableRecord
  2
PHANTOM
 70
     0
  3
Phantom ______  __  __  ______  __  __  ______
 72
    65
 73
     6
 40
0.5
 49
0.25
 74
     0
 49
-0.05
 74
     0
 49
0.05
 74
     0
 49
-0.05
 74
     0
 49
0.05
 74
     0
 49
-0.05
 74
     0
  0
LTYPE
  5
70
330
5
100
AcDbSymbolTableRecord
100
AcDbLinetypeTableRecord
  2
CENTER
 70
     0
  3
Center ____ _ ____ _ ____ _ ____ _ ____ _ ____
 72
    65
 73
     4
 40
0.4
 49
0.25
 74
     0
 49
-0.05
 74
     0
 49
0.05
 74
     0
 49
-0.05
 74
     0
  0
LTYPE
  5
71
330
5
100
AcDbSymbolTableRecord
100
AcDbLinetypeTableRecord
  2
CENTERX2
 70
     0
  3
Center (2x) ________  __  ________  __  _____
 72
    65
 73
     4
 40
0.8
 49
0.5
 74
     0
 49
-0.1
 74
     0
 49
0.1
 74
     0
 49
-0.1
 74
     0
  0
LTYPE
  5
72
330
5
100
AcDbSymbolTableRecord
100
AcDbLinetypeTableRecord
  2
DOT2
 70
     0
  3
Dot (.5x) ........................................
 72
    65
 73
     2
 40
0.025
 49
0.0
 74
     0
 49
-0.025
 74
     0
  0
ENDTAB
  0
TABLE
  2
LAYER
  5
2
330
0
100
AcDbSymbolTable
 70
     5
  0
LAYER
  5
10
330
2
100
AcDbSymbolTableRecord
100
AcDbLayerTableRecord
  2
0
 70
     0
 62
     7
  6
Continuous
370
    -3
390
F
  0
LAYER
  5
73
330
2
100
AcDbSymbolTableRecord
100
AcDbLayerTableRecord
  2
FORMAT
 70
     0
 62
     7
  6
Continuous
370
    -3
390
F
  0
LAYER
  5
74
330
2
100
AcDbSymbolTableRecord
100
AcDbLayerTableRecord
  2
DIMENSION
 70
     0
 62
     7
  6
Continuous
370
    -3
390
F
  0
LAYER
  5
75
330
2
100
AcDbSymbolTableRecord
100
AcDbLayerTableRecord
  2
ANNOTATION
 70
     0
 62
     7
  6
Continuous
370
    -3
390
F
  0
LAYER
  5
76
330
2
100
AcDbSymbolTableRecord
100
AcDbLayerTableRecord
  2
LAYER_1
 70
     0
 62
   179
  6
Continuous
370
    -3
390
F
  0
ENDTAB
  0
TABLE
  2
STYLE
  5
3
330
0
100
AcDbSymbolTable
 70
     2
  0
STYLE
  5
11
330
3
100
AcDbSymbolTableRecord
100
AcDbTextStyleTableRecord
  2
Standard
 70
     0
 40
0.0
 41
1.0
 50
0.0
 71
     0
 42
0.125
  3
txt
  4

  0
STYLE
  5
89
330
3
100
AcDbSymbolTableRecord
100
AcDbTextStyleTableRecord
  2
SLDTEXTSTYLE0
 70
     0
 40
0.0
 41
0.7
 50
0.0
 71
     0
 42
0.125
  3
TXT
  4

  0
ENDTAB
  0
TABLE
  2
VIEW
  5
6
330
0
100
AcDbSymbolTable
 70
     0
  0
ENDTAB
  0
TABLE
  2
UCS
  5
7
330
0
100
AcDbSymbolTable
 70
     0
  0
ENDTAB
  0
TABLE
  2
APPID
  5
9
330
0
100
AcDbSymbolTable
 70
     1
  0
APPID
  5
12
330
9
100
AcDbSymbolTableRecord
100
AcDbRegAppTableRecord
  2
ACAD
 70
     0
  0
ENDTAB
  0
TABLE
  2
DIMSTYLE
  5
A
330
0
100
AcDbSymbolTable
 70
     3
100
AcDbDimStyleTable
  0
DIMSTYLE
105
27
330
A
100
AcDbSymbolTableRecord
100
AcDbDimStyleTableRecord
  2
Standard
 70
     0
178
     0
340
11
  0
DIMSTYLE
105
19D
102
{ACAD_REACTORS
330
19C
330
1AA
330
1B5
102
}
330
A
100
AcDbSymbolTableRecord
100
AcDbDimStyleTableRecord
  2
SLDDIMSTYLE0
 70
     0
 41
0.13
 44
0.0
 45
0.000000001
 78
    12
 79
     3
140
0.125
147
0.03125
172
     1
173
     1
178
     0
271
     3
272
     3
276
     2
284
    12
289
     0
340
89
  0
DIMSTYLE
105
1C2
330
A
100
AcDbSymbolTableRecord
100
AcDbDimStyleTableRecord
  2
SLDDIMSTYLE1
 70
     0
 41
0.13
 44
0.0
 45
0.000000001
146
0.13
147
0.0
173
     1
178
     0
271
     0
272
     0
276
     2
340
11
  0
ENDTAB
  0
TABLE
  2
BLOCK_RECORD
  5
1
330
0
100
AcDbSymbolTable
 70
     4
  0
BLOCK_RECORD
  5
1F
330
1
100
AcDbSymbolTableRecord
100
AcDbBlockTableRecord
  2
*Model_Space
340
22
  0
BLOCK_RECORD
  5
1B
330
1
100
AcDbSymbolTableRecord
100
AcDbBlockTableRecord
  2
*Paper_Space
340
1E
  0
BLOCK_RECORD
  5
19E
330
1
100
AcDbSymbolTableRecord
100
AcDbBlockTableRecord
  2
_D
340
0
  0
BLOCK_RECORD
  5
1AB
330
1
100
AcDbSymbolTableRecord
100
AcDbBlockTableRecord
  2
_D_1
340
0
  0
BLOCK_RECORD
  5
1B6
330
1
100
AcDbSymbolTableRecord
100
AcDbBlockTableRecord
  2
_D_2
340
0
  0
ENDTAB
  0
ENDSEC
  0
SECTION
  2
BLOCKS
  0
BLOCK
  5
20
330
1F
100
AcDbEntity
  8
0
100
AcDbBlockBegin
  2
*Model_Space
 70
     0
 10
0.0
 20
0.0
 30
0.0
  3
*Model_Space
  1

  0
ENDBLK
  5
21
330
1F
100
AcDbEntity
  8
0
100
AcDbBlockEnd
  0
BLOCK
  5
1C
330
1B
100
AcDbEntity
 67
     1
  8
0
100
AcDbBlockBegin
  2
*Paper_Space
 70
     0
 10
0.0
 20
0.0
 30
0.0
  3
*Paper_Space
  1

  0
ENDBLK
  5
1D
330
1B
100
AcDbEntity
 67
     1
  8
0
100
AcDbBlockEnd
  0
BLOCK
  5
19F
330
19E
100
AcDbEntity
  8
0
100
AcDbBlockBegin
  2
_D
 70
     0
 10
0.0
 20
0.0
 30
0.0
  3
_D
  1

  0
SOLID
  5
1A1
330
19E
100
AcDbEntity
  8
ANNOTATION
100
AcDbTrace
 10
8.7256572605
 20
4.5677242408
 30
0.0
 11
8.7456572605
 21
4.6977242408
 31
0.0
 12
8.7056572605
 22
4.6977242408
 32
0.0
 13
8.7056572605
 23
4.6977242408
 33
0.0
  0
SOLID
  5
1A2
330
19E
100
AcDbEntity
  8
ANNOTATION
100
AcDbTrace
 10
8.7256572605
 20
4.1831088562
 30
0.0
 11
8.7056572605
 21
4.0531088562
 31
0.0
 12
8.7456572605
 22
4.0531088562
 32
0.0
 13
8.7456572605
 23
4.0531088562
 33
0.0
  0
LINE
  5
1A3
330
19E
100
AcDbEntity
  8
ANNOTATION
100
AcDbLine
 10
8.6076409082
 20
4.5677242408
 30
0.0
 11
8.8506572605
 21
4.5677242408
 31
0.0
  0
LINE
  5
1A4
330
19E
100
AcDbEntity
  8
ANNOTATION
100
AcDbLine
 10
8.6076409082
 20
4.1831088562
 30
0.0
 11
8.8506572605
 21
4.1831088562
 31
0.0
  0
LINE
  5
1A5
330
19E
100
AcDbEntity
  8
ANNOTATION
100
AcDbLine
 10
8.9756572605
 20
3.76251003
 30
0.0
 11
8.7256572605
 21
3.76251003
 31
0.0
  0
LINE
  5
1A6
330
19E
100
AcDbEntity
  8
ANNOTATION
100
AcDbLine
 10
8.7256572605
 20
3.76251003
 30
0.0
 11
8.7256572605
 21
4.1831088562
 31
0.0
  0
LINE
  5
1A7
330
19E
100
AcDbEntity
  8
ANNOTATION
100
AcDbLine
 10
8.7256572605
 20
4.5677242408
 30
0.0
 11
8.7256572605
 21
4.8177242408
 31
0.0
  0
MTEXT
  5
1A8
330
19E
100
AcDbEntity
  8
ANNOTATION
100
AcDbMText
 10
8.9756572605
 20
3.9236434883
 30
0.0
 40
0.125
 41
0.0
 71
     1
 72
     1
  1
MINOR
  7
SLDTEXTSTYLE0
 73
     1
 44
1.0
  0
MTEXT
  5
1A9
330
19E
100
AcDbEntity
  8
ANNOTATION
100
AcDbMText
 10
8.9756572605
 20
3.7201712672
 30
0.0
 40
0.125
 41
0.0
 71
     1
 72
     1
  1
DIAMETER
  7
SLDTEXTSTYLE0
 73
     1
 44
1.0
  0
ENDBLK
  5
1A0
330
19E
100
AcDbEntity
  8
0
100
AcDbBlockEnd
  0
BLOCK
  5
1AC
330
1AB
100
AcDbEntity
  8
0
100
AcDbBlockBegin
  2
_D_1
 70
     0
 10
0.0
 20
0.0
 30
0.0
  3
_D_1
  1

  0
SOLID
  5
1AE
330
1AB
100
AcDbEntity
  8
ANNOTATION
100
AcDbTrace
 10
6.312157603
 20
4.6254165485
 30
0.0
 11
6.332157603
 21
4.7554165485
 31
0.0
 12
6.292157603
 22
4.7554165485
 32
0.0
 13
6.292157603
 23
4.7554165485
 33
0.0
  0
SOLID
  5
1AF
330
1AB
100
AcDbEntity
  8
ANNOTATION
100
AcDbTrace
 10
6.312157603
 20
4.1254165485
 30
0.0
 11
6.292157603
 21
3.9954165485
 31
0.0
 12
6.332157603
 22
3.9954165485
 32
0.0
 13
6.332157603
 23
3.9954165485
 33
0.0
  0
LINE
  5
1B0
330
1AB
100
AcDbEntity
  8
ANNOTATION
100
AcDbLine
 10
6.562157603
 20
3.76251003
 30
0.0
 11
6.312157603
 21
3.76251003
 31
0.0
  0
LINE
  5
1B1
330
1AB
100
AcDbEntity
  8
ANNOTATION
100
AcDbLine
 10
6.312157603
 20
3.76251003
 30
0.0
 11
6.312157603
 21
4.1254165485
 31
0.0
  0
LINE
  5
1B2
330
1AB
100
AcDbEntity
  8
ANNOTATION
100
AcDbLine
 10
6.312157603
 20
4.6254165485
 30
0.0
 11
6.312157603
 21
4.8754165485
 31
0.0
  0
MTEXT
  5
1B3
330
1AB
100
AcDbEntity
  8
ANNOTATION
100
AcDbMText
 10
6.562157603
 20
3.9236434883
 30
0.0
 40
0.125
 41
0.0
 71
     1
 72
     1
  1
MAJOR
  7
SLDTEXTSTYLE0
 73
     1
 44
1.0
  0
MTEXT
  5
1B4
330
1AB
100
AcDbEntity
  8
ANNOTATION
100
AcDbMText
 10
6.562157603
 20
3.7201712672
 30
0.0
 40
0.125
 41
0.0
 71
     1
 72
     1
  1
DIAMETER
  7
SLDTEXTSTYLE0
 73
     1
 44
1.0
  0
ENDBLK
  5
1AD
330
1AB
100
AcDbEntity
  8
0
100
AcDbBlockEnd
  0
BLOCK
  5
1B7
330
1B6
100
AcDbEntity
  8
0
100
AcDbBlockBegin
  2
_D_2
 70
     0
 10
0.0
 20
0.0
 30
0.0
  3
_D_2
  1

  0
SOLID
  5
1B9
330
1B6
100
AcDbEntity
  8
ANNOTATION
100
AcDbTrace
 10
8.3172562928
 20
5.1441173359
 30
0.0
 11
8.4472562928
 21
5.1241173359
 31
0.0
 12
8.4472562928
 22
5.1641173359
 32
0.0
 13
8.4472562928
 23
5.1641173359
 33
0.0
  0
SOLID
  5
1BA
330
1B6
100
AcDbEntity
  8
ANNOTATION
100
AcDbTrace
 10
8.2403332158
 20
5.1441173359
 30
0.0
 11
8.1103332158
 21
5.1641173359
 31
0.0
 12
8.1103332158
 22
5.1241173359
 32
0.0
 13
8.1103332158
 23
5.1241173359
 33
0.0
  0
LINE
  5
1BB
330
1B6
100
AcDbEntity
  8
ANNOTATION
100
AcDbLine
 10
8.3172562928
 20
4.6754165485
 30
0.0
 11
8.3172562928
 21
5.2691173359
 31
0.0
  0
LINE
  5
1BC
330
1B6
100
AcDbEntity
  8
ANNOTATION
100
AcDbLine
 10
8.2403332158
 20
4.6754165485
 30
0.0
 11
8.2403332158
 21
5.2691173359
 31
0.0
  0
LINE
  5
1BD
330
1B6
100
AcDbEntity
  8
ANNOTATION
100
AcDbLine
 10
8.3172562928
 20
5.1441173359
 30
0.0
 11
8.9908587392
 21
5.1441173359
 31
0.0
  0
LINE
  5
1BE
330
1B6
100
AcDbEntity
  8
ANNOTATION
100
AcDbLine
 10
8.2403332158
 20
5.1441173359
 30
0.0
 11
7.9903332158
 21
5.1441173359
 31
0.0
  0
MTEXT
  5
1BF
330
1B6
100
AcDbEntity
  8
ANNOTATION
100
AcDbMText
 10
8.9908587392
 20
5.3052507942
 30
0.0
 40
0.125
 41
0.0
 71
     1
 72
     1
  1
THREAD
  7
SLDTEXTSTYLE0
 73
     1
 44
1.0
  0
MTEXT
  5
1C0
330
1B6
100
AcDbEntity
  8
ANNOTATION
100
AcDbMText
 10
8.9908587392
 20
5.1017785731
 30
0.0
 40
0.125
 41
0.0
 71
     1
 72
     1
  1
PITCH
  7
SLDTEXTSTYLE0
 73
     1
 44
1.0
  0
ENDBLK
  5
1B8
330
1B6
100
AcDbEntity
  8
0
100
AcDbBlockEnd
  0
ENDSEC
  0
SECTION
  2
ENTITIES
  0
VIEWPORT
  5
77
330
1B
100
AcDbEntity
 67
     1
  8
0
100
AcDbViewport
 10
5.5
 20
4.25
 30
0.0
 40
11.638
 41
8.993
 68
     1
 69
     1
 12
5.5
 22
4.25
 13
0.0
 23
0.0
 14
0.5
 24
0.5
 15
0.5
 25
0.5
 16
0.0
 26
0.0
 36
1.0
 17
0.0
 27
0.0
 37
0.0
 42
50.0
 43
0.0
 44
0.0
 45
8.993
 50
0.0
 51
0.0
 72
   100
 90
   557152
  1

281
     0
 71
     1
 74
     0
110
0.0
120
0.0
130
0.0
111
1.0
121
0.0
131
0.0
112
0.0
122
1.0
132
0.0
 79
     0
146
0.0
  0
LINE
  5
79
330
1B
100
AcDbEntity
 67
     1
  8
FORMAT
  6
Continuous
370
    18
100
AcDbLine
 10
0.5
 20
0.5
 30
0.0
 11
0.5
 21
8.0
 31
0.0
  0
LINE
  5
7A
330
1B
100
AcDbEntity
 67
     1
  8
FORMAT
  6
Continuous
370
    18
100
AcDbLine
 10
0.5
 20
8.0
 30
0.0
 11
10.5
 21
8.0
 31
0.0
  0
LINE
  5
7B
330
1B
100
AcDbEntity
 67
     1
  8
FORMAT
  6
Continuous
370
    18
100
AcDbLine
 10
10.5
 20
8.0
 30
0.0
 11
10.5
 21
0.5
 31
0.0
  0
LINE
  5
7C
330
1B
100
AcDbEntity
 67
     1
  8
FORMAT
  6
Continuous
370
    18
100
AcDbLine
 10
10.5
 20
0.5
 30
0.0
 11
0.5
 21
0.5
 31
0.0
  0
LINE
  5
7D
330
1B
100
AcDbEntity
 67
     1
  8
FORMAT
  6
Continuous
370
    18
100
AcDbLine
 10
0.1874606299
 20
4.25
 30
0.0
 11
0.5000393701
 21
4.25
 31
0.0
  0
LINE
  5
7E
330
1B
100
AcDbEntity
 67
     1
  8
FORMAT
  6
Continuous
370
    18
100
AcDbLine
 10
5.5
 20
8.3125393701
 30
0.0
 11
5.5
 21
7.9999606299
 31
0.0
  0
LINE
  5
7F
330
1B
100
AcDbEntity
 67
     1
  8
FORMAT
  6
Continuous
370
    18
100
AcDbLine
 10
10.8125393701
 20
4.25
 30
0.0
 11
10.4999606299
 21
4.25
 31
0.0
  0
LINE
  5
80
330
1B
100
AcDbEntity
 67
     1
  8
FORMAT
  6
Continuous
370
    18
100
AcDbLine
 10
5.5
 20
0.1874606299
 30
0.0
 11
5.5
 21
0.5000393701
 31
0.0
  0
LINE
  5
81
330
1B
100
AcDbEntity
 67
     1
  8
FORMAT
  6
Continuous
370
    18
100
AcDbLine
 10
0.5
 20
4.25
 30
0.0
 11
0.1875
 21
4.25
 31
0.0
  0
LINE
  5
82
330
1B
100
AcDbEntity
 67
     1
  8
FORMAT
  6
Continuous
370
    18
100
AcDbLine
 10
10.5
 20
4.25
 30
0.0
 11
10.8125
 21
4.25
 31
0.0
  0
LINE
  5
83
330
1B
100
AcDbEntity
 67
     1
  8
FORMAT
  6
Continuous
370
    18
100
AcDbLine
 10
2.75
 20
8.0
 30
0.0
 11
2.75
 21
8.3125
 31
0.0
  0
LINE
  5
84
330
1B
100
AcDbEntity
 67
     1
  8
FORMAT
  6
Continuous
370
    18
100
AcDbLine
 10
2.75
 20
0.5
 30
0.0
 11
2.75
 21
0.1875
 31
0.0
  0
LINE
  5
85
330
1B
100
AcDbEntity
 67
     1
  8
FORMAT
  6
Continuous
370
    18
100
AcDbLine
 10
5.5
 20
8.0
 30
0.0
 11
5.5
 21
8.3125
 31
0.0
  0
LINE
  5
86
330
1B
100
AcDbEntity
 67
     1
  8
FORMAT
  6
Continuous
370
    18
100
AcDbLine
 10
5.5
 20
0.5
 30
0.0
 11
5.5
 21
0.1875
 31
0.0
  0
LINE
  5
87
330
1B
100
AcDbEntity
 67
     1
  8
FORMAT
  6
Continuous
370
    18
100
AcDbLine
 10
8.25
 20
8.0
 30
0.0
 11
8.25
 21
8.3125
 31
0.0
  0
LINE
  5
88
330
1B
100
AcDbEntity
 67
     1
  8
FORMAT
  6
Continuous
370
    18
100
AcDbLine
 10
8.25
 20
0.5
 30
0.0
 11
8.25
 21
0.1875
 31
0.0
  0
MTEXT
  5
8A
330
1B
100
AcDbEntity
 67
     1
  8
FORMAT
100
AcDbMText
 10
0.342447917
 20
2.182385101
 30
0.0
 40
0.125
 41
0.0
 71
     2
 72
     1
  1
A
  7
SLDTEXTSTYLE0
 73
     1
 44
1.0
  0
MTEXT
  5
8B
330
1B
100
AcDbEntity
 67
     1
  8
FORMAT
100
AcDbMText
 10
10.654947917
 20
2.182385101
 30
0.0
 40
0.125
 41
0.0
 71
     2
 72
     1
  1
A
  7
SLDTEXTSTYLE0
 73
     1
 44
1.0
  0
MTEXT
  5
8C
330
1B
100
AcDbEntity
 67
     1
  8
FORMAT
100
AcDbMText
 10
0.3433593743
 20
6.432385101
 30
0.0
 40
0.125
 41
0.0
 71
     2
 72
     1
  1
B
  7
SLDTEXTSTYLE0
 73
     1
 44
1.0
  0
MTEXT
  5
8D
330
1B
100
AcDbEntity
 67
     1
  8
FORMAT
100
AcDbMText
 10
10.6558593743
 20
6.432385101
 30
0.0
 40
0.125
 41
0.0
 71
     2
 72
     1
  1
B
  7
SLDTEXTSTYLE0
 73
     1
 44
1.0
  0
MTEXT
  5
8E
330
1B
100
AcDbEntity
 67
     1
  8
FORMAT
100
AcDbMText
 10
1.3737413213
 20
0.401135101
 30
0.0
 40
0.125
 41
0.0
 71
     2
 72
     1
  1
4
  7
SLDTEXTSTYLE0
 73
     1
 44
1.0
  0
MTEXT
  5
8F
330
1B
100
AcDbEntity
 67
     1
  8
FORMAT
100
AcDbMText
 10
1.3737413213
 20
8.213635101
 30
0.0
 40
0.125
 41
0.0
 71
     2
 72
     1
  1
4
  7
SLDTEXTSTYLE0
 73
     1
 44
1.0
  0
MTEXT
  5
90
330
1B
100
AcDbEntity
 67
     1
  8
FORMAT
100
AcDbMText
 10
4.1237413213
 20
0.401135101
 30
0.0
 40
0.125
 41
0.0
 71
     2
 72
     1
  1
3
  7
SLDTEXTSTYLE0
 73
     1
 44
1.0
  0
MTEXT
  5
91
330
1B
100
AcDbEntity
 67
     1
  8
FORMAT
100
AcDbMText
 10
4.1237413213
 20
8.213635101
 30
0.0
 40
0.125
 41
0.0
 71
     2
 72
     1
  1
3
  7
SLDTEXTSTYLE0
 73
     1
 44
1.0
  0
MTEXT
  5
92
330
1B
100
AcDbEntity
 67
     1
  8
FORMAT
100
AcDbMText
 10
6.8737413213
 20
0.401135101
 30
0.0
 40
0.125
 41
0.0
 71
     2
 72
     1
  1
2
  7
SLDTEXTSTYLE0
 73
     1
 44
1.0
  0
MTEXT
  5
93
330
1B
100
AcDbEntity
 67
     1
  8
FORMAT
100
AcDbMText
 10
6.8737413213
 20
8.213635101
 30
0.0
 40
0.125
 41
0.0
 71
     2
 72
     1
  1
2
  7
SLDTEXTSTYLE0
 73
     1
 44
1.0
  0
MTEXT
  5
94
330
1B
100
AcDbEntity
 67
     1
  8
FORMAT
100
AcDbMText
 10
9.6237413213
 20
0.401135101
 30
0.0
 40
0.125
 41
0.0
 71
     2
 72
     1
  1
1
  7
SLDTEXTSTYLE0
 73
     1
 44
1.0
  0
MTEXT
  5
95
330
1B
100
AcDbEntity
 67
     1
  8
FORMAT
100
AcDbMText
 10
9.6237413213
 20
8.213635101
 30
0.0
 40
0.125
 41
0.0
 71
     2
 72
     1
  1
1
  7
SLDTEXTSTYLE0
 73
     1
 44
1.0
  0
SPLINE
  5
96
330
1B
100
AcDbEntity
 67
     1
  8
0
  6
Continuous
 62
     7
370
    25
100
AcDbSpline
210
0.0
220
0.0
230
1.0
 70
    24
 71
     3
 72
    16
 73
    12
 74
     0
 42
0.000000001
 43
0.00000001
 40
0.0
 40
0.0
 40
0.0
 40
0.0
 40
0.2499999999999981
 40
0.2499999999999981
 40
0.3749999999999983
 40
0.3749999999999983
 40
0.4999999999999986
 40
0.4999999999999986
 40
0.7499999999999992
 40
0.7499999999999992
 40
1.0
 40
1.0
 40
1.0
 40
1.0
 10
2.954422799151395
 20
4.48366972396572
 30
0.0
 10
2.939772976048045
 20
4.49212780327802
 30
0.0
 10
2.924792701173266
 20
4.500776669009508
 30
0.0
 10
2.901518528937555
 20
4.514214018614961
 30
0.0
 10
2.893625098648371
 20
4.518771292717251
 30
0.0
 10
2.87750449237834
 20
4.528078529086754
 30
0.0
 10
2.869202098379128
 20
4.532871918497117
 30
0.0
 10
2.844649692299062
 20
4.547047256756696
 30
0.0
 10
2.828560899328755
 20
4.556336125709039
 30
0.0
 10
2.796831842120989
 20
4.574654905429075
 30
0.0
 10
2.781658908245836
 20
4.583415002886292
 30
0.0
 10
2.766922799151393
 20
4.591922899438776
 30
0.0
  0
ARC
  5
97
330
1B
100
AcDbEntity
 67
     1
  8
0
  6
Continuous
 62
     7
370
    25
100
AcDbCircle
 10
2.7669227992
 20
4.3754165485
 30
0.0
 40
0.2165063509461098
100
AcDbArc
 50
30.0
 51
90.0
  0
SPLINE
  5
98
330
1B
100
AcDbEntity
 67
     1
  8
0
  6
Continuous
 62
     7
370
    25
100
AcDbSpline
210
0.0
220
0.0
230
1.0
 70
    24
 71
     3
 72
    16
 73
    12
 74
     0
 42
0.000000001
 43
0.00000001
 40
0.0
 40
0.0
 40
0.0
 40
0.0
 40
0.2499999999999982
 40
0.2499999999999982
 40
0.3749999999999984
 40
0.3749999999999984
 40
0.4999999999999987
 40
0.4999999999999987
 40
0.7499999999999993
 40
0.7499999999999993
 40
1.0
 40
1.0
 40
1.0
 40
1.0
 10
2.766922799151395
 20
4.158910197546556
 30
0.0
 10
2.781572622254745
 20
4.167368276858855
 30
0.0
 10
2.796552897129525
 20
4.176017142590344
 30
0.0
 10
2.819827069365235
 20
4.189454492195797
 30
0.0
 10
2.827720499654419
 20
4.194011766298087
 30
0.0
 10
2.84384110592445
 20
4.203319002667589
 30
0.0
 10
2.852143499923661
 20
4.208112392077952
 30
0.0
 10
2.876695906003728
 20
4.222287730337531
 30
0.0
 10
2.892784698974034
 20
4.231576599289874
 30
0.0
 10
2.9245137561818
 20
4.249895379009911
 30
0.0
 10
2.939686690056953
 20
4.258655476467126
 30
0.0
 10
2.954422799151397
 20
4.267163373019612
 30
0.0
  0
ARC
  5
99
330
1B
100
AcDbEntity
 67
     1
  8
0
  6
Continuous
 62
     7
370
    25
100
AcDbCircle
 10
2.7669227992
 20
4.3754165485
 30
0.0
 40
0.2165063509461098
100
AcDbArc
 50
270.0
 51
330.0
  0
SPLINE
  5
9A
330
1B
100
AcDbEntity
 67
     1
  8
0
  6
Continuous
 62
     7
370
    25
100
AcDbSpline
210
0.0
220
0.0
230
1.0
 70
    24
 71
     3
 72
    16
 73
    12
 74
     0
 42
0.000000001
 43
0.00000001
 40
0.0
 40
0.0
 40
0.0
 40
0.0
 40
0.2499999999999984
 40
0.2499999999999984
 40
0.3749999999999988
 40
0.3749999999999988
 40
0.4999999999999991
 40
0.4999999999999991
 40
0.7499999999999996
 40
0.7499999999999996
 40
1.0
 40
1.0
 40
1.0
 40
1.0
 10
2.579422799151395
 20
4.26716337301961
 30
0.0
 10
2.594072622254745
 20
4.258705293707311
 30
0.0
 10
2.609052897129524
 20
4.250056427975823
 30
0.0
 10
2.632327069365235
 20
4.236619078370369
 30
0.0
 10
2.640220499654419
 20
4.23206180426808
 30
0.0
 10
2.65634110592445
 20
4.222754567898577
 30
0.0
 10
2.664643499923661
 20
4.217961178488214
 30
0.0
 10
2.689195906003727
 20
4.203785840228634
 30
0.0
 10
2.705284698974034
 20
4.194496971276292
 30
0.0
 10
2.7370137561818
 20
4.176178191556255
 30
0.0
 10
2.752186690056953
 20
4.167418094099039
 30
0.0
 10
2.766922799151397
 20
4.158910197546555
 30
0.0
  0
ARC
  5
9B
330
1B
100
AcDbEntity
 67
     1
  8
0
  6
Continuous
 62
     7
370
    25
100
AcDbCircle
 10
2.7669227992
 20
4.3754165485
 30
0.0
 40
0.2165063509461094
100
AcDbArc
 50
210.0
 51
270.0
  0
ARC
  5
9C
330
1B
100
AcDbEntity
 67
     1
  8
0
  6
Continuous
 62
     7
370
    25
100
AcDbCircle
 10
2.7669227992
 20
4.3754165485
 30
0.0
 40
0.2165063509461098
100
AcDbArc
 50
90.0
 51
150.0
  0
SPLINE
  5
9D
330
1B
100
AcDbEntity
 67
     1
  8
0
  6
Continuous
 62
     7
370
    25
100
AcDbSpline
210
0.0
220
0.0
230
1.0
 70
    24
 71
     3
 72
    16
 73
    12
 74
     0
 42
0.000000001
 43
0.00000001
 40
0.0
 40
0.0
 40
0.0
 40
0.0
 40
0.2499999999999984
 40
0.2499999999999984
 40
0.3749999999999986
 40
0.3749999999999986
 40
0.4999999999999988
 40
0.4999999999999988
 40
0.7499999999999993
 40
0.7499999999999993
 40
1.0
 40
1.0
 40
1.0
 40
1.0
 10
2.766922799151395
 20
4.591922899438774
 30
0.0
 10
2.752272976048045
 20
4.583464820126475
 30
0.0
 10
2.737292701173265
 20
4.574815954394987
 30
0.0
 10
2.714018528937555
 20
4.561378604789533
 30
0.0
 10
2.706125098648371
 20
4.556821330687244
 30
0.0
 10
2.69000449237834
 20
4.547514094317742
 30
0.0
 10
2.681702098379129
 20
4.542720704907379
 30
0.0
 10
2.657149692299063
 20
4.528545366647799
 30
0.0
 10
2.641060899328756
 20
4.519256497695457
 30
0.0
 10
2.60933184212099
 20
4.50093771797542
 30
0.0
 10
2.594158908245837
 20
4.492177620518204
 30
0.0
 10
2.579422799151393
 20
4.483669723965719
 30
0.0
  0
ARC
  5
9E
330
1B
100
AcDbEntity
 67
     1
  8
0
  6
Continuous
 62
     7
370
    25
100
AcDbCircle
 10
2.7669227992
 20
4.3754165485
 30
0.0
 40
0.2165063509461098
100
AcDbArc
 50
150.0
 51
210.0
  0
SPLINE
  5
9F
330
1B
100
AcDbEntity
 67
     1
  8
0
  6
Continuous
 62
     7
370
    25
100
AcDbSpline
210
0.0
220
0.0
230
1.0
 70
    24
 71
     3
 72
    18
 73
    14
 74
     0
 42
0.000000001
 43
0.00000001
 40
0.0
 40
0.0
 40
0.0
 40
0.0
 40
0.1250000000000007
 40
0.1250000000000007
 40
0.2500000000000015
 40
0.2500000000000015
 40
0.500000000000001
 40
0.500000000000001
 40
0.7500000000000004
 40
0.7500000000000004
 40
0.8750000000000002
 40
0.8750000000000002
 40
1.0
 40
1.0
 40
1.0
 40
1.0
 10
2.579422799151395
 20
4.267163373019611
 30
0.0
 10
2.579422799151395
 20
4.275551460898842
 30
0.0
 10
2.579422799151395
 20
4.284106756449012
 30
0.0
 10
2.579422799151395
 20
4.301671378981125
 30
0.0
 10
2.579422799151395
 20
4.310648247674352
 30
0.0
 10
2.579422799151395
 20
4.33778115142799
 30
0.0
 10
2.579422799151395
 20
4.356379805348415
 30
0.0
 10
2.579422799151395
 20
4.394492889134232
 30
0.0
 10
2.579422799151395
 20
4.413027815489747
 30
0.0
 10
2.579422799151395
 20
4.440236855519072
 30
0.0
 10
2.579422799151395
 20
4.449250846508102
 30
0.0
 10
2.579422799151395
 20
4.466760179715192
 30
0.0
 10
2.579422799151395
 20
4.475295952082374
 30
0.0
 10
2.579422799151395
 20
4.48366972396572
 30
0.0
  0
SPLINE
  5
A0
330
1B
100
AcDbEntity
 67
     1
  8
0
  6
Continuous
 62
     7
370
    25
100
AcDbSpline
210
0.0
220
0.0
230
1.0
 70
    24
 71
     3
 72
    18
 73
    14
 74
     0
 42
0.000000001
 43
0.00000001
 40
0.0
 40
0.0
 40
0.0
 40
0.0
 40
0.125
 40
0.125
 40
0.25
 40
0.25
 40
0.5
 40
0.5
 40
0.75
 40
0.75
 40
0.875
 40
0.875
 40
1.0
 40
1.0
 40
1.0
 40
1.0
 10
2.954422799151395
 20
4.26716337301961
 30
0.0
 10
2.954422799151395
 20
4.275551460898844
 30
0.0
 10
2.954422799151395
 20
4.284106756449021
 30
0.0
 10
2.954422799151395
 20
4.301671378981166
 30
0.0
 10
2.954422799151395
 20
4.310648247674361
 30
0.0
 10
2.954422799151395
 20
4.337781151428001
 30
0.0
 10
2.954422799151395
 20
4.356379805348803
 30
0.0
 10
2.954422799151395
 20
4.394492889134265
 30
0.0
 10
2.954422799151395
 20
4.413027815489767
 30
0.0
 10
2.954422799151395
 20
4.440236855519232
 30
0.0
 10
2.954422799151395
 20
4.449250846508281
 30
0.0
 10
2.954422799151395
 20
4.466760179715251
 30
0.0
 10
2.954422799151395
 20
4.475295952082397
 30
0.0
 10
2.954422799151395
 20
4.48366972396572
 30
0.0
  0
ARC
  5
A1
330
1B
100
AcDbEntity
 67
     1
  8
0
  6
Continuous
 62
     7
370
    25
100
AcDbCircle
 10
2.7669227992
 20
4.3754165485
 30
0.0
 40
0.2165063509461098
100
AcDbArc
 50
330.0
 51
30.0
  0
CIRCLE
  5
A2
330
1B
100
AcDbEntity
 67
     1
  8
0
  6
Continuous
 62
     7
370
    25
100
AcDbCircle
 10
2.7669227992
 20
4.3754165485
 30
0.0
 40
0.3249999999999997
  0
CIRCLE
  5
A3
330
1B
100
AcDbEntity
 67
     1
  8
0
  6
Continuous
 62
     7
370
    25
100
AcDbCircle
 10
2.7669227992
 20
4.3754165485
 30
0.0
 40
0.375
  0
LINE
  5
A4
330
1B
100
AcDbEntity
 67
     1
  8
ANNOTATION
100
AcDbLine
 10
2.7669227992
 20
4.8404165485
 30
0.0
 11
2.7669227992
 21
3.9104165485
 31
0.0
  0
LINE
  5
A5
330
1B
100
AcDbEntity
 67
     1
  8
ANNOTATION
100
AcDbLine
 10
2.7669227992
 20
4.8404165485
 30
0.0
 11
2.2669227992
 21
4.8404165485
 31
0.0
  0
SOLID
  5
A6
330
1B
100
AcDbEntity
 67
     1
  8
ANNOTATION
100
AcDbTrace
 10
2.2669227992
 20
4.8404165485
 30
0.0
 11
2.5169227992
 21
4.8004165485
 31
0.0
 12
2.5169227992
 22
4.8804165485
 32
0.0
 13
2.5169227992
 23
4.8804165485
 33
0.0
  0
LINE
  5
A7
330
1B
100
AcDbEntity
 67
     1
  8
ANNOTATION
100
AcDbLine
 10
2.7669227992
 20
3.9104165485
 30
0.0
 11
2.2669227992
 21
3.9104165485
 31
0.0
  0
SOLID
  5
A8
330
1B
100
AcDbEntity
 67
     1
  8
ANNOTATION
100
AcDbTrace
 10
2.2669227992
 20
3.9104165485
 30
0.0
 11
2.5169227992
 21
3.8704165485
 31
0.0
 12
2.5169227992
 22
3.9504165485
 32
0.0
 13
2.5169227992
 23
3.9504165485
 33
0.0
  0
MTEXT
  5
A9
330
1B
100
AcDbEntity
 67
     1
  8
ANNOTATION
100
AcDbMText
 10
2.1170693588
 20
4.9420790626
 30
0.0
 40
0.125
 41
0.0
 71
     1
 72
     1
  1
A
  7
SLDTEXTSTYLE0
 73
     1
 44
1.0
  0
MTEXT
  5
AA
330
1B
100
AcDbEntity
 67
     1
  8
ANNOTATION
100
AcDbMText
 10
2.1170693588
 20
4.0120790626
 30
0.0
 40
0.125
 41
0.0
 71
     1
 72
     1
  1
A
  7
SLDTEXTSTYLE0
 73
     1
 44
1.0
  0
LINE
  5
AB
330
1B
100
AcDbEntity
 67
     1
  8
0
  6
Continuous
 62
     7
370
    25
100
AcDbLine
 10
7.0585109062
 20
4.1261521313
 30
0.0
 11
7.0586959974
 21
4.1264716227
 31
0.0
  0
LINE
  5
AC
330
1B
100
AcDbEntity
 67
     1
  8
0
  6
Continuous
 62
     7
370
    25
100
AcDbLine
 10
8.5477936489
 20
4.1740311316
 30
0.0
 11
8.5485756493
 21
4.175379551
 31
0.0
  0
SPLINE
  5
AD
330
1B
100
AcDbEntity
 67
     1
  8
0
  6
Continuous
 62
     7
370
    25
100
AcDbSpline
210
0.0
220
0.0
230
1.0
 70
     8
 71
     3
 72
     9
 73
     5
 74
     0
 42
0.000000001
 43
0.00000001
 40
0.0
 40
0.0
 40
0.0
 40
0.0
 40
0.5095994569450647
 40
1.0
 40
1.0
 40
1.0
 40
1.0
 10
8.443126245206209
 20
4.126152131349816
 30
0.0
 10
8.447971116694893
 20
4.134515403122282
 30
0.0
 10
8.45747833147437
 20
4.150926864434665
 30
0.0
 10
8.46699519590431
 20
4.167333652987634
 30
0.0
 10
8.471662271388933
 20
4.175379551003797
 30
0.0
  0
SPLINE
  5
AE
330
1B
100
AcDbEntity
 67
     1
  8
0
  6
Continuous
 62
     7
370
    25
100
AcDbSpline
210
0.0
220
0.0
230
1.0
 70
     8
 71
     3
 72
     9
 73
     5
 74
     0
 42
0.000000001
 43
0.00000001
 40
0.0
 40
0.0
 40
0.0
 40
0.0
 40
0.5095994157621193
 40
0.9999999999999999
 40
0.9999999999999999
 40
0.9999999999999999
 40
0.9999999999999999
 10
8.366203171328122
 20
4.126152131349816
 30
0.0
 10
8.371048042211452
 20
4.134515403473332
 30
0.0
 10
8.38055525657135
 20
4.15092686680087
 30
0.0
 10
8.39007212757641
 20
4.167333653312854
 30
0.0
 10
8.394739206677407
 20
4.175379551003797
 30
0.0
  0
SPLINE
  5
AF
330
1B
100
AcDbEntity
 67
     1
  8
0
  6
Continuous
 62
     7
370
    25
100
AcDbSpline
210
0.0
220
0.0
230
1.0
 70
     8
 71
     3
 72
     9
 73
     5
 74
     0
 42
0.000000001
 43
0.00000001
 40
0.0
 40
0.0
 40
0.0
 40
0.0
 40
0.5095994157621193
 40
0.9999999999999999
 40
0.9999999999999999
 40
0.9999999999999999
 40
0.9999999999999999
 10
8.289280088283475
 20
4.126152131349816
 30
0.0
 10
8.294124959166805
 20
4.134515403473332
 30
0.0
 10
8.303632173526703
 20
4.15092686680087
 30
0.0
 10
8.313149044531762
 20
4.167333653312854
 30
0.0
 10
8.31781612363276
 20
4.175379551003797
 30
0.0
  0
SPLINE
  5
B0
330
1B
100
AcDbEntity
 67
     1
  8
0
  6
Continuous
 62
     7
370
    25
100
AcDbSpline
210
0.0
220
0.0
230
1.0
 70
     8
 71
     3
 72
     9
 73
     5
 74
     0
 42
0.000000001
 43
0.00000001
 40
0.0
 40
0.0
 40
0.0
 40
0.0
 40
0.5095993365529491
 40
1.0
 40
1.0
 40
1.0
 40
1.0
 10
8.212357023571949
 20
4.126152131349816
 30
0.0
 10
8.21720188717888
 20
4.134515404148522
 30
0.0
 10
8.226709088737858
 20
4.150926871351908
 30
0.0
 10
8.23622596040742
 20
4.167333653938367
 30
0.0
 10
8.240893040588112
 20
4.175379551003797
 30
0.0
  0
SPLINE
  5
B1
330
1B
100
AcDbEntity
 67
     1
  8
0
  6
Continuous
 62
     7
370
    25
100
AcDbSpline
210
0.0
220
0.0
230
1.0
 70
     8
 71
     3
 72
     9
 73
     5
 74
     0
 42
0.000000001
 43
0.00000001
 40
0.0
 40
0.0
 40
0.0
 40
0.0
 40
0.5095994949713388
 40
1.0
 40
1.0
 40
1.0
 40
1.0
 10
8.135433922194181
 20
4.126152131349816
 30
0.0
 10
8.14027880035391
 20
4.134515402798139
 30
0.0
 10
8.149786027514724
 20
4.150926862249829
 30
0.0
 10
8.159302897855284
 20
4.167333652687342
 30
0.0
 10
8.163969975876586
 20
4.175379551003797
 30
0.0
  0
SPLINE
  5
B2
330
1B
100
AcDbEntity
 67
     1
  8
0
  6
Continuous
 62
     7
370
    25
100
AcDbSpline
210
0.0
220
0.0
230
1.0
 70
     8
 71
     3
 72
     9
 73
     5
 74
     0
 42
0.000000001
 43
0.00000001
 40
0.0
 40
0.0
 40
0.0
 40
0.0
 40
0.5095996597030386
 40
1.0
 40
1.0
 40
1.0
 40
1.0
 10
8.058510857482656
 20
4.126152131349816
 30
0.0
 10
8.0633557380638
 20
4.13451540139394
 30
0.0
 10
8.072862966902942
 20
4.150926852785012
 30
0.0
 10
8.082379810943014
 20
4.167333651386462
 30
0.0
 10
8.087046874498817
 20
4.175379551003797
 30
0.0
  0
SPLINE
  5
B3
330
1B
100
AcDbEntity
 67
     1
  8
0
  6
Continuous
 62
     7
370
    25
100
AcDbSpline
210
0.0
220
0.0
230
1.0
 70
     8
 71
     3
 72
     9
 73
     5
 74
     0
 42
0.000000001
 43
0.00000001
 40
0.0
 40
0.0
 40
0.0
 40
0.0
 40
0.5095993365529491
 40
1.0
 40
1.0
 40
1.0
 40
1.0
 10
7.981587792771129
 20
4.126152131349816
 30
0.0
 10
7.98643265637806
 20
4.134515404148522
 30
0.0
 10
7.995939857937037
 20
4.150926871351908
 30
0.0
 10
8.0054567296066
 20
4.167333653938367
 30
0.0
 10
8.010123809787292
 20
4.175379551003797
 30
0.0
  0
SPLINE
  5
B4
330
1B
100
AcDbEntity
 67
     1
  8
0
  6
Continuous
 62
     7
370
    25
100
AcDbSpline
210
0.0
220
0.0
230
1.0
 70
     8
 71
     3
 72
     9
 73
     5
 74
     0
 42
0.000000001
 43
0.00000001
 40
0.0
 40
0.0
 40
0.0
 40
0.0
 40
0.5095996597030386
 40
1.0
 40
1.0
 40
1.0
 40
1.0
 10
7.904664691393361
 20
4.126152131349816
 30
0.0
 10
7.909509571974506
 20
4.13451540139394
 30
0.0
 10
7.919016800813647
 20
4.150926852785012
 30
0.0
 10
7.92853364485372
 20
4.167333651386462
 30
0.0
 10
7.933200708409523
 20
4.175379551003797
 30
0.0
  0
SPLINE
  5
B5
330
1B
100
AcDbEntity
 67
     1
  8
0
  6
Continuous
 62
     7
370
    25
100
AcDbSpline
210
0.0
220
0.0
230
1.0
 70
     8
 71
     3
 72
     9
 73
     5
 74
     0
 42
0.000000001
 43
0.00000001
 40
0.0
 40
0.0
 40
0.0
 40
0.0
 40
0.5095996597030386
 40
1.0
 40
1.0
 40
1.0
 40
1.0
 10
7.827741626681835
 20
4.126152131349816
 30
0.0
 10
7.83258650726298
 20
4.13451540139394
 30
0.0
 10
7.842093736102122
 20
4.150926852785012
 30
0.0
 10
7.851610580142194
 20
4.167333651386462
 30
0.0
 10
7.856277643697998
 20
4.175379551003797
 30
0.0
  0
SPLINE
  5
B6
330
1B
100
AcDbEntity
 67
     1
  8
0
  6
Continuous
 62
     7
370
    25
100
AcDbSpline
210
0.0
220
0.0
230
1.0
 70
     8
 71
     3
 72
     9
 73
     5
 74
     0
 42
0.000000001
 43
0.00000001
 40
0.0
 40
0.0
 40
0.0
 40
0.0
 40
0.5095996597030386
 40
1.0
 40
1.0
 40
1.0
 40
1.0
 10
7.750818561970309
 20
4.126152131349816
 30
0.0
 10
7.755663442551454
 20
4.13451540139394
 30
0.0
 10
7.765170671390596
 20
4.150926852785012
 30
0.0
 10
7.774687515430669
 20
4.167333651386462
 30
0.0
 10
7.779354578986473
 20
4.175379551003797
 30
0.0
  0
SPLINE
  5
B7
330
1B
100
AcDbEntity
 67
     1
  8
0
  6
Continuous
 62
     7
370
    25
100
AcDbSpline
210
0.0
220
0.0
230
1.0
 70
     8
 71
     3
 72
     9
 73
     5
 74
     0
 42
0.000000001
 43
0.00000001
 40
0.0
 40
0.0
 40
0.0
 40
0.0
 40
0.5095990134028361
 40
0.9999999999999999
 40
0.9999999999999999
 40
0.9999999999999999
 40
0.9999999999999999
 10
7.673895497258783
 20
4.126152131349816
 30
0.0
 10
7.678740343891511
 20
4.134515406903098
 30
0.0
 10
7.688247518170315
 20
4.150926889918805
 30
0.0
 10
7.697764417469354
 20
4.167333656490277
 30
0.0
 10
7.702431514274947
 20
4.175379551003797
 30
0.0
  0
SPLINE
  5
B8
330
1B
100
AcDbEntity
 67
     1
  8
0
  6
Continuous
 62
     7
370
    25
100
AcDbSpline
210
0.0
220
0.0
230
1.0
 70
     8
 71
     3
 72
     9
 73
     5
 74
     0
 42
0.000000001
 43
0.00000001
 40
0.0
 40
0.0
 40
0.0
 40
0.0
 40
0.5095990134028361
 40
0.9999999999999999
 40
0.9999999999999999
 40
0.9999999999999999
 40
0.9999999999999999
 10
7.596972432547258
 20
4.126152131349816
 30
0.0
 10
7.601817279179985
 20
4.134515406903098
 30
0.0
 10
7.611324453458789
 20
4.150926889918805
 30
0.0
 10
7.620841352757828
 20
4.167333656490277
 30
0.0
 10
7.625508449563421
 20
4.175379551003797
 30
0.0
  0
SPLINE
  5
B9
330
1B
100
AcDbEntity
 67
     1
  8
0
  6
Continuous
 62
     7
370
    25
100
AcDbSpline
210
0.0
220
0.0
230
1.0
 70
     8
 71
     3
 72
     9
 73
     5
 74
     0
 42
0.000000001
 43
0.00000001
 40
0.0
 40
0.0
 40
0.0
 40
0.0
 40
0.5095993302394228
 40
1.0
 40
1.0
 40
1.0
 40
1.0
 10
7.520049294503246
 20
4.126152131349816
 30
0.0
 10
7.524894170241564
 20
4.13451540420234
 30
0.0
 10
7.534401395724066
 20
4.150926871714659
 30
0.0
 10
7.543918292365094
 20
4.167333653988225
 30
0.0
 10
7.548585384851895
 20
4.175379551003797
 30
0.0
  0
SPLINE
  5
BA
330
1B
100
AcDbEntity
 67
     1
  8
0
  6
Continuous
 62
     7
370
    25
100
AcDbSpline
210
0.0
220
0.0
230
1.0
 70
     8
 71
     3
 72
     9
 73
     5
 74
     0
 42
0.000000001
 43
0.00000001
 40
0.0
 40
0.0
 40
0.0
 40
0.0
 40
0.5095996597030386
 40
1.0
 40
1.0
 40
1.0
 40
1.0
 10
7.44312622979172
 20
4.126152131349816
 30
0.0
 10
7.447971110372865
 20
4.13451540139394
 30
0.0
 10
7.457478339212007
 20
4.150926852785012
 30
0.0
 10
7.46699518325208
 20
4.167333651386462
 30
0.0
 10
7.471662246807883
 20
4.175379551003797
 30
0.0
  0
SPLINE
  5
BB
330
1B
100
AcDbEntity
 67
     1
  8
0
  6
Continuous
 62
     7
370
    25
100
AcDbSpline
210
0.0
220
0.0
230
1.0
 70
     8
 71
     3
 72
     9
 73
     5
 74
     0
 42
0.000000001
 43
0.00000001
 40
0.0
 40
0.0
 40
0.0
 40
0.0
 40
0.5095996597030386
 40
1.0
 40
1.0
 40
1.0
 40
1.0
 10
7.366203165080194
 20
4.126152131349816
 30
0.0
 10
7.371048045661341
 20
4.13451540139394
 30
0.0
 10
7.380555274500481
 20
4.150926852785012
 30
0.0
 10
7.390072118540554
 20
4.167333651386462
 30
0.0
 10
7.394739182096358
 20
4.175379551003797
 30
0.0
  0
SPLINE
  5
BC
330
1B
100
AcDbEntity
 67
     1
  8
0
  6
Continuous
 62
     7
370
    25
100
AcDbSpline
210
0.0
220
0.0
230
1.0
 70
     8
 71
     3
 72
     9
 73
     5
 74
     0
 42
0.000000001
 43
0.00000001
 40
0.0
 40
0.0
 40
0.0
 40
0.0
 40
0.5095990007749415
 40
1.0
 40
1.0
 40
1.0
 40
1.0
 10
7.289280027036183
 20
4.126152131349816
 30
0.0
 10
7.294124897931699
 20
4.13451540701074
 30
0.0
 10
7.303632120057623
 20
4.150926890644353
 30
0.0
 10
7.313149069299518
 20
4.167333656589999
 30
0.0
 10
7.317816190717318
 20
4.175379551003797
 30
0.0
  0
SPLINE
  5
BD
330
1B
100
AcDbEntity
 67
     1
  8
0
  6
Continuous
 62
     7
370
    25
100
AcDbSpline
210
0.0
220
0.0
230
1.0
 70
     8
 71
     3
 72
     9
 73
     5
 74
     0
 42
0.000000001
 43
0.00000001
 40
0.0
 40
0.0
 40
0.0
 40
0.0
 40
0.5095996597030386
 40
1.0
 40
1.0
 40
1.0
 40
1.0
 10
7.212357035657143
 20
4.126152131349816
 30
0.0
 10
7.217201916238289
 20
4.13451540139394
 30
0.0
 10
7.226709145077431
 20
4.150926852785012
 30
0.0
 10
7.236225989117503
 20
4.167333651386462
 30
0.0
 10
7.240893052673306
 20
4.175379551003797
 30
0.0
  0
SPLINE
  5
BE
330
1B
100
AcDbEntity
 67
     1
  8
0
  6
Continuous
 62
     7
370
    25
100
AcDbSpline
210
0.0
220
0.0
230
1.0
 70
     8
 71
     3
 72
     9
 73
     5
 74
     0
 42
0.000000001
 43
0.00000001
 40
0.0
 40
0.0
 40
0.0
 40
0.0
 40
0.5095996597030386
 40
1.0
 40
1.0
 40
1.0
 40
1.0
 10
7.135433897613131
 20
4.126152131349816
 30
0.0
 10
7.140278778194276
 20
4.13451540139394
 30
0.0
 10
7.149786007033418
 20
4.150926852785012
 30
0.0
 10
7.159302851073491
 20
4.167333651386462
 30
0.0
 10
7.163969914629294
 20
4.175379551003797
 30
0.0
  0
LINE
  5
BF
330
1B
100
AcDbEntity
 67
     1
  8
0
  6
Continuous
 62
     7
370
    25
100
AcDbLine
 10
7.0576408896
 20
4.1254165515
 30
0.0
 11
7.10031233
 21
4.1680879186
 31
0.0
  0
LINE
  5
C0
330
1B
100
AcDbEntity
 67
     1
  8
0
  6
Continuous
 62
     7
370
    25
100
AcDbLine
 10
7.0759286917
 20
4.6071288167
 30
0.0
 11
7.0576408896
 21
4.6254165455
 31
0.0
  0
LINE
  5
C1
330
1B
100
AcDbEntity
 67
     1
  8
0
  6
Continuous
 62
     7
370
    25
100
AcDbLine
 10
8.545449089
 20
4.1709170309
 30
0.0
 11
8.50604451
 21
4.1315124611
 31
0.0
  0
SPLINE
  5
C2
330
1B
100
AcDbEntity
 67
     1
  8
0
  6
Continuous
 62
     7
370
    25
100
AcDbSpline
210
0.0
220
0.0
230
1.0
 70
     8
 71
     3
 72
     9
 73
     5
 74
     0
 42
0.000000001
 43
0.00000001
 40
0.0
 40
0.0
 40
0.0
 40
0.0
 40
0.9350933035124094
 40
1.0
 40
1.0
 40
1.0
 40
1.0
 10
8.54544908899732
 20
4.170917030888543
 30
0.0
 10
8.54615559319927
 20
4.171638539430188
 30
0.0
 10
8.546911137270964
 20
4.172410129322807
 30
0.0
 10
8.547723592592728
 20
4.173941747520826
 30
0.0
 10
8.547776326383708
 20
4.17404115979834
 30
0.0
  0
LINE
  5
C3
330
1B
100
AcDbEntity
 67
     1
  8
0
  6
Continuous
 62
     7
370
    25
100
AcDbLine
 10
8.5576409082
 20
4.18310885
 30
0.0
 11
8.5499116045
 21
4.175379551
 31
0.0
  0
LINE
  5
C4
330
1B
100
AcDbEntity
 67
     1
  8
0
  6
Continuous
 62
     7
370
    25
100
AcDbLine
 10
8.5304281484
 20
4.5949369976
 30
0.0
 11
8.5576409082
 21
4.5677242469
 31
0.0
  0
LINE
  5
C5
330
1B
100
AcDbEntity
 67
     1
  8
0
  6
Continuous
 62
     7
370
    25
100
AcDbLine
 10
7.0585299727
 20
4.1268838429
 30
0.0
 11
7.0576408896
 21
4.1254165515
 31
0.0
  0
LINE
  5
C6
330
1B
100
AcDbEntity
 67
     1
  8
0
  6
Continuous
 62
     7
370
    25
100
AcDbLine
 10
7.1249486721
 20
4.575453546
 30
0.0
 11
7.0961024586
 21
4.6254165455
 31
0.0
  0
LINE
  5
C7
330
1B
100
AcDbEntity
 67
     1
  8
0
  6
Continuous
 62
     7
370
    25
100
AcDbLine
 10
5.5576408711
 20
4.5919229041
 30
0.0
 11
5.8388909021
 21
4.5919229041
 31
0.0
  0
LINE
  5
C8
330
1B
100
AcDbEntity
 67
     1
  8
0
  6
Continuous
 62
     7
370
    25
100
AcDbLine
 10
5.5576408711
 20
4.5919229041
 30
0.0
 11
5.5576408711
 21
4.7004165574
 31
0.0
  0
LINE
  5
C9
330
1B
100
AcDbEntity
 67
     1
  8
0
  6
Continuous
 62
     7
370
    25
100
AcDbLine
 10
5.5576408711
 20
4.7004165574
 30
0.0
 11
5.6076410135
 21
4.7504165531
 31
0.0
  0
LINE
  5
CA
330
1B
100
AcDbEntity
 67
     1
  8
0
  6
Continuous
 62
     7
370
    25
100
AcDbLine
 10
6.0326409038
 20
4.7504165531
 30
0.0
 11
5.6076410135
 21
4.7504165531
 31
0.0
  0
LINE
  5
CB
330
1B
100
AcDbEntity
 67
     1
  8
0
  6
Continuous
 62
     7
370
    25
100
AcDbLine
 10
6.0326409038
 20
4.7504165531
 30
0.0
 11
6.0576408284
 21
4.7254165553
 31
0.0
  0
LINE
  5
CC
330
1B
100
AcDbEntity
 67
     1
  8
0
  6
Continuous
 62
     7
370
    25
100
AcDbLine
 10
6.0576408284
 20
4.6254165455
 30
0.0
 11
6.0576408284
 21
4.7254165553
 31
0.0
  0
LINE
  5
CD
330
1B
100
AcDbEntity
 67
     1
  8
0
  6
Continuous
 62
     7
370
    25
100
AcDbLine
 10
6.0576408284
 20
4.6254165455
 30
0.0
 11
7.0576408896
 21
4.6254165455
 31
0.0
  0
LWPOLYLINE
  5
CE
330
1B
100
AcDbEntity
 67
     1
  8
0
  6
Continuous
 62
     7
370
    25
100
AcDbPolyline
 90
        3
 70
   128
 43
0.0
 10
7.0864871031
 20
4.6254165455
 10
7.0784243429
 20
4.6114514735
 10
7.0759286917
 20
4.6071288167
  0
LINE
  5
CF
330
1B
100
AcDbEntity
 67
     1
  8
0
  6
Continuous
 62
     7
370
    25
100
AcDbLine
 10
7.0864871031
 20
4.6254165455
 30
0.0
 11
7.0961024586
 21
4.6254165455
 31
0.0
  0
LINE
  5
D0
330
1B
100
AcDbEntity
 67
     1
  8
0
  6
Continuous
 62
     7
370
    25
100
AcDbLine
 10
7.1345640277
 20
4.575453546
 30
0.0
 11
7.1249486721
 21
4.575453546
 31
0.0
  0
LWPOLYLINE
  5
D1
330
1B
100
AcDbEntity
 67
     1
  8
0
  6
Continuous
 62
     7
370
    25
100
AcDbPolyline
 90
        4
 70
   128
 43
0.0
 10
7.1634100944
 20
4.6254165455
 10
7.1553473342
 20
4.6114514735
 10
7.1472847207
 20
4.5974863831
 10
7.1345640277
 20
4.575453546
  0
LINE
  5
D2
330
1B
100
AcDbEntity
 67
     1
  8
0
  6
Continuous
 62
     7
370
    25
100
AcDbLine
 10
7.1634100944
 20
4.6254165455
 30
0.0
 11
7.1730255967
 21
4.6254165455
 31
0.0
  0
LWPOLYLINE
  5
D3
330
1B
100
AcDbEntity
 67
     1
  8
0
  6
Continuous
 62
     7
370
    25
100
AcDbPolyline
 90
        4
 70
   128
 43
0.0
 10
7.2018716635
 20
4.575453546
 10
7.1938089033
 20
4.5894186363
 10
7.1857461431
 20
4.6033837083
 10
7.1730255967
 20
4.6254165455
  0
LINE
  5
D4
330
1B
100
AcDbEntity
 67
     1
  8
0
  6
Continuous
 62
     7
370
    25
100
AcDbLine
 10
7.211487019
 20
4.575453546
 30
0.0
 11
7.2018716635
 21
4.575453546
 31
0.0
  0
LINE
  5
D5
330
1B
100
AcDbEntity
 67
     1
  8
0
  6
Continuous
 62
     7
370
    25
100
AcDbLine
 10
7.2403332325
 20
4.6254165455
 30
0.0
 11
7.211487019
 21
4.575453546
 31
0.0
  0
LINE
  5
D6
330
1B
100
AcDbEntity
 67
     1
  8
0
  6
Continuous
 62
     7
370
    25
100
AcDbLine
 10
7.2403332325
 20
4.6254165455
 30
0.0
 11
7.2499485881
 21
4.6254165455
 31
0.0
  0
LINE
  5
D7
330
1B
100
AcDbEntity
 67
     1
  8
0
  6
Continuous
 62
     7
370
    25
100
AcDbLine
 10
7.2787948015
 20
4.575453546
 30
0.0
 11
7.2499485881
 21
4.6254165455
 31
0.0
  0
LINE
  5
D8
330
1B
100
AcDbEntity
 67
     1
  8
0
  6
Continuous
 62
     7
370
    25
100
AcDbLine
 10
7.2884101571
 20
4.575453546
 30
0.0
 11
7.2787948015
 21
4.575453546
 31
0.0
  0
LWPOLYLINE
  5
D9
330
1B
100
AcDbEntity
 67
     1
  8
0
  6
Continuous
 62
     7
370
    25
100
AcDbPolyline
 90
        4
 70
   128
 43
0.0
 10
7.3172562239
 20
4.6254165455
 10
7.3091936103
 20
4.6114514735
 10
7.3011308501
 20
4.5974863831
 10
7.2884101571
 20
4.575453546
  0
LINE
  5
DA
330
1B
100
AcDbEntity
 67
     1
  8
0
  6
Continuous
 62
     7
370
    25
100
AcDbLine
 10
7.3172562239
 20
4.6254165455
 30
0.0
 11
7.3268717261
 21
4.6254165455
 31
0.0
  0
LWPOLYLINE
  5
DB
330
1B
100
AcDbEntity
 67
     1
  8
0
  6
Continuous
 62
     7
370
    25
100
AcDbPolyline
 90
        4
 70
   128
 43
0.0
 10
7.3557178662
 20
4.575453546
 10
7.347655106
 20
4.5894186363
 10
7.3395923458
 20
4.6033837083
 10
7.3268717261
 20
4.6254165455
  0
LINE
  5
DC
330
1B
100
AcDbEntity
 67
     1
  8
0
  6
Continuous
 62
     7
370
    25
100
AcDbLine
 10
7.3653332218
 20
4.575453546
 30
0.0
 11
7.3557178662
 21
4.575453546
 31
0.0
  0
LWPOLYLINE
  5
DD
330
1B
100
AcDbEntity
 67
     1
  8
0
  6
Continuous
 62
     7
370
    25
100
AcDbPolyline
 90
        4
 70
   128
 43
0.0
 10
7.3941793619
 20
4.6254165455
 10
7.3861166017
 20
4.6114514735
 10
7.3780539148
 20
4.5974863831
 10
7.3653332218
 20
4.575453546
  0
LINE
  5
DE
330
1B
100
AcDbEntity
 67
     1
  8
0
  6
Continuous
 62
     7
370
    25
100
AcDbLine
 10
7.3941793619
 20
4.6254165455
 30
0.0
 11
7.4037947908
 21
4.6254165455
 31
0.0
  0
LWPOLYLINE
  5
DF
330
1B
100
AcDbEntity
 67
     1
  8
0
  6
Continuous
 62
     7
370
    25
100
AcDbPolyline
 90
        4
 70
   128
 43
0.0
 10
7.4326409309
 20
4.575453546
 10
7.4245781707
 20
4.5894186363
 10
7.4165154105
 20
4.6033837083
 10
7.4037947908
 20
4.6254165455
  0
LINE
  5
E0
330
1B
100
AcDbEntity
 67
     1
  8
0
  6
Continuous
 62
     7
370
    25
100
AcDbLine
 10
7.4422562865
 20
4.575453546
 30
0.0
 11
7.4326409309
 21
4.575453546
 31
0.0
  0
LWPOLYLINE
  5
E1
330
1B
100
AcDbEntity
 67
     1
  8
0
  6
Continuous
 62
     7
370
    25
100
AcDbPolyline
 90
        4
 70
   128
 43
0.0
 10
7.4711024266
 20
4.6254165455
 10
7.4630396664
 20
4.6114514735
 10
7.4549769796
 20
4.5974863831
 10
7.4422562865
 20
4.575453546
  0
LINE
  5
E2
330
1B
100
AcDbEntity
 67
     1
  8
0
  6
Continuous
 62
     7
370
    25
100
AcDbLine
 10
7.4711024266
 20
4.6254165455
 30
0.0
 11
7.4807178555
 21
4.6254165455
 31
0.0
  0
LWPOLYLINE
  5
E3
330
1B
100
AcDbEntity
 67
     1
  8
0
  6
Continuous
 62
     7
370
    25
100
AcDbPolyline
 90
        4
 70
   128
 43
0.0
 10
7.5095639956
 20
4.575453546
 10
7.5015012354
 20
4.5894186363
 10
7.4934384752
 20
4.6033837083
 10
7.4807178555
 20
4.6254165455
  0
LINE
  5
E4
330
1B
100
AcDbEntity
 67
     1
  8
0
  6
Continuous
 62
     7
370
    25
100
AcDbLine
 10
7.5191793512
 20
4.575453546
 30
0.0
 11
7.5095639956
 21
4.575453546
 31
0.0
  0
LWPOLYLINE
  5
E5
330
1B
100
AcDbEntity
 67
     1
  8
0
  6
Continuous
 62
     7
370
    25
100
AcDbPolyline
 90
        4
 70
   128
 43
0.0
 10
7.5480254913
 20
4.6254165455
 10
7.5399628045
 20
4.6114514735
 10
7.5319000443
 20
4.5974863831
 10
7.5191793512
 20
4.575453546
  0
LINE
  5
E6
330
1B
100
AcDbEntity
 67
     1
  8
0
  6
Continuous
 62
     7
370
    25
100
AcDbLine
 10
7.5480254913
 20
4.6254165455
 30
0.0
 11
7.5576409202
 21
4.6254165455
 31
0.0
  0
LWPOLYLINE
  5
E7
330
1B
100
AcDbEntity
 67
     1
  8
0
  6
Continuous
 62
     7
370
    25
100
AcDbPolyline
 90
        4
 70
   128
 43
0.0
 10
7.5864870603
 20
4.575453546
 10
7.5784243002
 20
4.5894186363
 10
7.57036154
 20
4.6033837083
 10
7.5576409202
 20
4.6254165455
  0
LINE
  5
E8
330
1B
100
AcDbEntity
 67
     1
  8
0
  6
Continuous
 62
     7
370
    25
100
AcDbLine
 10
7.5961024159
 20
4.575453546
 30
0.0
 11
7.5864870603
 21
4.575453546
 31
0.0
  0
LINE
  5
E9
330
1B
100
AcDbEntity
 67
     1
  8
0
  6
Continuous
 62
     7
370
    25
100
AcDbLine
 10
7.6249486294
 20
4.6254165455
 30
0.0
 11
7.5961024159
 21
4.575453546
 31
0.0
  0
LINE
  5
EA
330
1B
100
AcDbEntity
 67
     1
  8
0
  6
Continuous
 62
     7
370
    25
100
AcDbLine
 10
7.6249486294
 20
4.6254165455
 30
0.0
 11
7.634563985
 21
4.6254165455
 31
0.0
  0
LWPOLYLINE
  5
EB
330
1B
100
AcDbEntity
 67
     1
  8
0
  6
Continuous
 62
     7
370
    25
100
AcDbPolyline
 90
        4
 70
   128
 43
0.0
 10
7.6634101251
 20
4.575453546
 10
7.6553473649
 20
4.5894186363
 10
7.647284678
 20
4.6033837083
 10
7.634563985
 20
4.6254165455
  0
LINE
  5
EC
330
1B
100
AcDbEntity
 67
     1
  8
0
  6
Continuous
 62
     7
370
    25
100
AcDbLine
 10
7.673025554
 20
4.575453546
 30
0.0
 11
7.6634101251
 21
4.575453546
 31
0.0
  0
LWPOLYLINE
  5
ED
330
1B
100
AcDbEntity
 67
     1
  8
0
  6
Continuous
 62
     7
370
    25
100
AcDbPolyline
 90
        4
 70
   128
 43
0.0
 10
7.7018716941
 20
4.6254165455
 10
7.6938089339
 20
4.6114514735
 10
7.6857461737
 20
4.5974863831
 10
7.673025554
 20
4.575453546
  0
LINE
  5
EE
330
1B
100
AcDbEntity
 67
     1
  8
0
  6
Continuous
 62
     7
370
    25
100
AcDbLine
 10
7.7018716941
 20
4.6254165455
 30
0.0
 11
7.7114870497
 21
4.6254165455
 31
0.0
  0
LWPOLYLINE
  5
EF
330
1B
100
AcDbEntity
 67
     1
  8
0
  6
Continuous
 62
     7
370
    25
100
AcDbPolyline
 90
        4
 70
   128
 43
0.0
 10
7.7403331898
 20
4.575453546
 10
7.7322705029
 20
4.5894186363
 10
7.7242077427
 20
4.6033837083
 10
7.7114870497
 20
4.6254165455
  0
LINE
  5
F0
330
1B
100
AcDbEntity
 67
     1
  8
0
  6
Continuous
 62
     7
370
    25
100
AcDbLine
 10
7.7499486187
 20
4.575453546
 30
0.0
 11
7.7403331898
 21
4.575453546
 31
0.0
  0
LWPOLYLINE
  5
F1
330
1B
100
AcDbEntity
 67
     1
  8
0
  6
Continuous
 62
     7
370
    25
100
AcDbPolyline
 90
        4
 70
   128
 43
0.0
 10
7.7787947588
 20
4.6254165455
 10
7.7707319986
 20
4.6114514735
 10
7.7626692384
 20
4.5974863831
 10
7.7499486187
 20
4.575453546
  0
LINE
  5
F2
330
1B
100
AcDbEntity
 67
     1
  8
0
  6
Continuous
 62
     7
370
    25
100
AcDbLine
 10
7.7787947588
 20
4.6254165455
 30
0.0
 11
7.7884101144
 21
4.6254165455
 31
0.0
  0
LINE
  5
F3
330
1B
100
AcDbEntity
 67
     1
  8
0
  6
Continuous
 62
     7
370
    25
100
AcDbLine
 10
7.8172563278
 20
4.575453546
 30
0.0
 11
7.7884101144
 21
4.6254165455
 31
0.0
  0
LINE
  5
F4
330
1B
100
AcDbEntity
 67
     1
  8
0
  6
Continuous
 62
     7
370
    25
100
AcDbLine
 10
7.8268716834
 20
4.575453546
 30
0.0
 11
7.8172563278
 21
4.575453546
 31
0.0
  0
LWPOLYLINE
  5
F5
330
1B
100
AcDbEntity
 67
     1
  8
0
  6
Continuous
 62
     7
370
    25
100
AcDbPolyline
 90
        4
 70
   128
 43
0.0
 10
7.8557178235
 20
4.6254165455
 10
7.8476550633
 20
4.6114514735
 10
7.8395923764
 20
4.5974863831
 10
7.8268716834
 20
4.575453546
  0
LINE
  5
F6
330
1B
100
AcDbEntity
 67
     1
  8
0
  6
Continuous
 62
     7
370
    25
100
AcDbLine
 10
7.8557178235
 20
4.6254165455
 30
0.0
 11
7.8653332524
 21
4.6254165455
 31
0.0
  0
LWPOLYLINE
  5
F7
330
1B
100
AcDbEntity
 67
     1
  8
0
  6
Continuous
 62
     7
370
    25
100
AcDbPolyline
 90
        4
 70
   128
 43
0.0
 10
7.8941793925
 20
4.575453546
 10
7.8861166323
 20
4.5894186363
 10
7.8780538721
 20
4.6033837083
 10
7.8653332524
 20
4.6254165455
  0
LINE
  5
F8
330
1B
100
AcDbEntity
 67
     1
  8
0
  6
Continuous
 62
     7
370
    25
100
AcDbLine
 10
7.9037947481
 20
4.575453546
 30
0.0
 11
7.8941793925
 21
4.575453546
 31
0.0
  0
LWPOLYLINE
  5
F9
330
1B
100
AcDbEntity
 67
     1
  8
0
  6
Continuous
 62
     7
370
    25
100
AcDbPolyline
 90
        4
 70
   128
 43
0.0
 10
7.9326408882
 20
4.6254165455
 10
7.924578128
 20
4.6114514735
 10
7.9165154412
 20
4.5974863831
 10
7.9037947481
 20
4.575453546
  0
LINE
  5
FA
330
1B
100
AcDbEntity
 67
     1
  8
0
  6
Continuous
 62
     7
370
    25
100
AcDbLine
 10
7.9326408882
 20
4.6254165455
 30
0.0
 11
7.9422563171
 21
4.6254165455
 31
0.0
  0
LWPOLYLINE
  5
FB
330
1B
100
AcDbEntity
 67
     1
  8
0
  6
Continuous
 62
     7
370
    25
100
AcDbPolyline
 90
        4
 70
   128
 43
0.0
 10
7.9711024572
 20
4.575453546
 10
7.963039697
 20
4.5894186363
 10
7.9549769735
 20
4.6033837083
 10
7.9422563171
 20
4.6254165455
  0
LINE
  5
FC
330
1B
100
AcDbEntity
 67
     1
  8
0
  6
Continuous
 62
     7
370
    25
100
AcDbLine
 10
7.9807178495
 20
4.575453546
 30
0.0
 11
7.9711024572
 21
4.575453546
 31
0.0
  0
LWPOLYLINE
  5
FD
330
1B
100
AcDbEntity
 67
     1
  8
0
  6
Continuous
 62
     7
370
    25
100
AcDbPolyline
 90
        4
 70
   128
 43
0.0
 10
8.0095639896
 20
4.6254165455
 10
8.0015012294
 20
4.6114514735
 10
7.9934385059
 20
4.5974863831
 10
7.9807178495
 20
4.575453546
  0
LINE
  5
FE
330
1B
100
AcDbEntity
 67
     1
  8
0
  6
Continuous
 62
     7
370
    25
100
AcDbLine
 10
8.0095639896
 20
4.6254165455
 30
0.0
 11
8.0191793818
 21
4.6254165455
 31
0.0
  0
LWPOLYLINE
  5
FF
330
1B
100
AcDbEntity
 67
     1
  8
0
  6
Continuous
 62
     7
370
    25
100
AcDbPolyline
 90
        4
 70
   128
 43
0.0
 10
8.0480255219
 20
4.575453546
 10
8.0399627618
 20
4.5894186363
 10
8.0319000382
 20
4.6033837083
 10
8.0191793818
 20
4.6254165455
  0
LINE
  5
100
330
1B
100
AcDbEntity
 67
     1
  8
0
  6
Continuous
 62
     7
370
    25
100
AcDbLine
 10
8.0576409142
 20
4.575453546
 30
0.0
 11
8.0480255219
 21
4.575453546
 31
0.0
  0
LINE
  5
101
330
1B
100
AcDbEntity
 67
     1
  8
0
  6
Continuous
 62
     7
370
    25
100
AcDbLine
 10
8.0864870543
 20
4.6254165455
 30
0.0
 11
8.0576409142
 21
4.575453546
 31
0.0
  0
LINE
  5
102
330
1B
100
AcDbEntity
 67
     1
  8
0
  6
Continuous
 62
     7
370
    25
100
AcDbLine
 10
8.0864870543
 20
4.6254165455
 30
0.0
 11
8.0961024466
 21
4.6254165455
 31
0.0
  0
LWPOLYLINE
  5
103
330
1B
100
AcDbEntity
 67
     1
  8
0
  6
Continuous
 62
     7
370
    25
100
AcDbPolyline
 90
        4
 70
   128
 43
0.0
 10
8.1249485867
 20
4.575453546
 10
8.1168858631
 20
4.5894186363
 10
8.1088231029
 20
4.6033837083
 10
8.0961024466
 20
4.6254165455
  0
LINE
  5
104
330
1B
100
AcDbEntity
 67
     1
  8
0
  6
Continuous
 62
     7
370
    25
100
AcDbLine
 10
8.1345639789
 20
4.575453546
 30
0.0
 11
8.1249485867
 21
4.575453546
 31
0.0
  0
LWPOLYLINE
  5
105
330
1B
100
AcDbEntity
 67
     1
  8
0
  6
Continuous
 62
     7
370
    25
100
AcDbPolyline
 90
        4
 70
   128
 43
0.0
 10
8.1634101557
 20
4.6254165455
 10
8.1553473955
 20
4.6114514735
 10
8.1472846353
 20
4.5974863831
 10
8.1345639789
 20
4.575453546
  0
LINE
  5
106
330
1B
100
AcDbEntity
 67
     1
  8
0
  6
Continuous
 62
     7
370
    25
100
AcDbLine
 10
8.1634101557
 20
4.6254165455
 30
0.0
 11
8.1730255113
 21
4.6254165455
 31
0.0
  0
LWPOLYLINE
  5
107
330
1B
100
AcDbEntity
 67
     1
  8
0
  6
Continuous
 62
     7
370
    25
100
AcDbPolyline
 90
        4
 70
   128
 43
0.0
 10
8.201871688
 20
4.575453546
 10
8.1938089278
 20
4.5894186363
 10
8.1857462043
 20
4.6033837083
 10
8.1730255113
 20
4.6254165455
  0
LINE
  5
108
330
1B
100
AcDbEntity
 67
     1
  8
0
  6
Continuous
 62
     7
370
    25
100
AcDbLine
 10
8.2114870803
 20
4.575453546
 30
0.0
 11
8.201871688
 21
4.575453546
 31
0.0
  0
LWPOLYLINE
  5
109
330
1B
100
AcDbEntity
 67
     1
  8
0
  6
Continuous
 62
     7
370
    25
100
AcDbPolyline
 90
        4
 70
   128
 43
0.0
 10
8.2403332204
 20
4.6254165455
 10
8.2322704602
 20
4.6114514735
 10
8.2242077367
 20
4.5974863831
 10
8.2114870803
 20
4.575453546
  0
LINE
  5
10A
330
1B
100
AcDbEntity
 67
     1
  8
0
  6
Continuous
 62
     7
370
    25
100
AcDbLine
 10
8.2403332204
 20
4.6254165455
 30
0.0
 11
8.2499486126
 21
4.6254165455
 31
0.0
  0
LINE
  5
10B
330
1B
100
AcDbEntity
 67
     1
  8
0
  6
Continuous
 62
     7
370
    25
100
AcDbLine
 10
8.2787947527
 20
4.575453546
 30
0.0
 11
8.2499486126
 21
4.6254165455
 31
0.0
  0
LINE
  5
10C
330
1B
100
AcDbEntity
 67
     1
  8
0
  6
Continuous
 62
     7
370
    25
100
AcDbLine
 10
8.288410145
 20
4.575453546
 30
0.0
 11
8.2787947527
 21
4.575453546
 31
0.0
  0
LINE
  5
10D
330
1B
100
AcDbEntity
 67
     1
  8
0
  6
Continuous
 62
     7
370
    25
100
AcDbLine
 10
8.3172562851
 20
4.6254165455
 30
0.0
 11
8.288410145
 21
4.575453546
 31
0.0
  0
LINE
  5
10E
330
1B
100
AcDbEntity
 67
     1
  8
0
  6
Continuous
 62
     7
370
    25
100
AcDbLine
 10
8.3172562851
 20
4.6254165455
 30
0.0
 11
8.3268716774
 21
4.6254165455
 31
0.0
  0
LINE
  5
10F
330
1B
100
AcDbEntity
 67
     1
  8
0
  6
Continuous
 62
     7
370
    25
100
AcDbLine
 10
8.3557178358
 20
4.575453546
 30
0.0
 11
8.3268716774
 21
4.6254165455
 31
0.0
  0
LINE
  5
110
330
1B
100
AcDbEntity
 67
     1
  8
0
  6
Continuous
 62
     7
370
    25
100
AcDbLine
 10
8.3653332097
 20
4.575453546
 30
0.0
 11
8.3557178358
 21
4.575453546
 31
0.0
  0
LINE
  5
111
330
1B
100
AcDbEntity
 67
     1
  8
0
  6
Continuous
 62
     7
370
    25
100
AcDbLine
 10
8.3941793681
 20
4.6254165455
 30
0.0
 11
8.3653332097
 21
4.575453546
 31
0.0
  0
LINE
  5
112
330
1B
100
AcDbEntity
 67
     1
  8
0
  6
Continuous
 62
     7
370
    25
100
AcDbLine
 10
8.3941793681
 20
4.6254165455
 30
0.0
 11
8.4037947604
 21
4.6254165455
 31
0.0
  0
LINE
  5
113
330
1B
100
AcDbEntity
 67
     1
  8
0
  6
Continuous
 62
     7
370
    25
100
AcDbLine
 10
8.4326409097
 20
4.575453546
 30
0.0
 11
8.4037947604
 21
4.6254165455
 31
0.0
  0
LINE
  5
114
330
1B
100
AcDbEntity
 67
     1
  8
0
  6
Continuous
 62
     7
370
    25
100
AcDbLine
 10
8.4422562928
 20
4.575453546
 30
0.0
 11
8.4326409097
 21
4.575453546
 31
0.0
  0
LINE
  5
115
330
1B
100
AcDbEntity
 67
     1
  8
0
  6
Continuous
 62
     7
370
    25
100
AcDbLine
 10
8.4711024512
 20
4.6254165455
 30
0.0
 11
8.4422562928
 21
4.575453546
 31
0.0
  0
LINE
  5
116
330
1B
100
AcDbEntity
 67
     1
  8
0
  6
Continuous
 62
     7
370
    25
100
AcDbLine
 10
8.4711024512
 20
4.6254165455
 30
0.0
 11
8.4807178343
 21
4.6254165455
 31
0.0
  0
LINE
  5
117
330
1B
100
AcDbEntity
 67
     1
  8
0
  6
Continuous
 62
     7
370
    25
100
AcDbLine
 10
8.5095639835
 20
4.575453546
 30
0.0
 11
8.4807178343
 21
4.6254165455
 31
0.0
  0
LINE
  5
118
330
1B
100
AcDbEntity
 67
     1
  8
0
  6
Continuous
 62
     7
370
    25
100
AcDbLine
 10
8.5191793712
 20
4.575453546
 30
0.0
 11
8.5095639835
 21
4.575453546
 31
0.0
  0
LINE
  5
119
330
1B
100
AcDbEntity
 67
     1
  8
0
  6
Continuous
 62
     7
370
    25
100
AcDbLine
 10
8.5304281484
 20
4.5949369976
 30
0.0
 11
8.5191793712
 21
4.575453546
 31
0.0
  0
LINE
  5
11A
330
1B
100
AcDbEntity
 67
     1
  8
0
  6
Continuous
 62
     7
370
    25
100
AcDbLine
 10
8.5576409082
 20
4.5677242469
 30
0.0
 11
8.5576409082
 21
4.18310885
 31
0.0
  0
LINE
  5
11B
330
1B
100
AcDbEntity
 67
     1
  8
0
  6
Continuous
 62
     7
370
    25
100
AcDbLine
 10
8.5480255239
 20
4.175379551
 30
0.0
 11
8.5499116045
 21
4.175379551
 31
0.0
  0
LINE
  5
11C
330
1B
100
AcDbEntity
 67
     1
  8
0
  6
Continuous
 62
     7
370
    25
100
AcDbLine
 10
8.545449089
 20
4.1709170309
 30
0.0
 11
8.5480255239
 21
4.175379551
 31
0.0
  0
LINE
  5
11D
330
1B
100
AcDbEntity
 67
     1
  8
0
  6
Continuous
 62
     7
370
    25
100
AcDbLine
 10
8.4807178343
 20
4.175379551
 30
0.0
 11
8.50604451
 21
4.1315124611
 31
0.0
  0
LINE
  5
11E
330
1B
100
AcDbEntity
 67
     1
  8
0
  6
Continuous
 62
     7
370
    25
100
AcDbLine
 10
8.4711024512
 20
4.175379551
 30
0.0
 11
8.4807178343
 21
4.175379551
 31
0.0
  0
LINE
  5
11F
330
1B
100
AcDbEntity
 67
     1
  8
0
  6
Continuous
 62
     7
370
    25
100
AcDbLine
 10
8.4422562928
 20
4.1254165515
 30
0.0
 11
8.4711024512
 21
4.175379551
 31
0.0
  0
LINE
  5
120
330
1B
100
AcDbEntity
 67
     1
  8
0
  6
Continuous
 62
     7
370
    25
100
AcDbLine
 10
8.4422562928
 20
4.1254165515
 30
0.0
 11
8.4326409097
 21
4.1254165515
 31
0.0
  0
LINE
  5
121
330
1B
100
AcDbEntity
 67
     1
  8
0
  6
Continuous
 62
     7
370
    25
100
AcDbLine
 10
8.4037947604
 20
4.175379551
 30
0.0
 11
8.4326409097
 21
4.1254165515
 31
0.0
  0
LINE
  5
122
330
1B
100
AcDbEntity
 67
     1
  8
0
  6
Continuous
 62
     7
370
    25
100
AcDbLine
 10
8.3941793681
 20
4.175379551
 30
0.0
 11
8.4037947604
 21
4.175379551
 31
0.0
  0
LWPOLYLINE
  5
123
330
1B
100
AcDbEntity
 67
     1
  8
0
  6
Continuous
 62
     7
370
    25
100
AcDbPolyline
 90
        4
 70
   128
 43
0.0
 10
8.3653332097
 20
4.1254165515
 10
8.3733959699
 20
4.1393816235
 10
8.3814587118
 20
4.1533467139
 10
8.3941793681
 20
4.175379551
  0
LINE
  5
124
330
1B
100
AcDbEntity
 67
     1
  8
0
  6
Continuous
 62
     7
370
    25
100
AcDbLine
 10
8.3653332097
 20
4.1254165515
 30
0.0
 11
8.3557178358
 21
4.1254165515
 31
0.0
  0
LINE
  5
125
330
1B
100
AcDbEntity
 67
     1
  8
0
  6
Continuous
 62
     7
370
    25
100
AcDbLine
 10
8.3268716774
 20
4.175379551
 30
0.0
 11
8.3557178358
 21
4.1254165515
 31
0.0
  0
LINE
  5
126
330
1B
100
AcDbEntity
 67
     1
  8
0
  6
Continuous
 62
     7
370
    25
100
AcDbLine
 10
8.3172562851
 20
4.175379551
 30
0.0
 11
8.3268716774
 21
4.175379551
 31
0.0
  0
LINE
  5
127
330
1B
100
AcDbEntity
 67
     1
  8
0
  6
Continuous
 62
     7
370
    25
100
AcDbLine
 10
8.288410145
 20
4.1254165515
 30
0.0
 11
8.3172562851
 21
4.175379551
 31
0.0
  0
LINE
  5
128
330
1B
100
AcDbEntity
 67
     1
  8
0
  6
Continuous
 62
     7
370
    25
100
AcDbLine
 10
8.288410145
 20
4.1254165515
 30
0.0
 11
8.2787947527
 21
4.1254165515
 31
0.0
  0
LINE
  5
129
330
1B
100
AcDbEntity
 67
     1
  8
0
  6
Continuous
 62
     7
370
    25
100
AcDbLine
 10
8.2499486126
 20
4.175379551
 30
0.0
 11
8.2787947527
 21
4.1254165515
 31
0.0
  0
LINE
  5
12A
330
1B
100
AcDbEntity
 67
     1
  8
0
  6
Continuous
 62
     7
370
    25
100
AcDbLine
 10
8.2403332204
 20
4.175379551
 30
0.0
 11
8.2499486126
 21
4.175379551
 31
0.0
  0
LINE
  5
12B
330
1B
100
AcDbEntity
 67
     1
  8
0
  6
Continuous
 62
     7
370
    25
100
AcDbLine
 10
8.2114870803
 20
4.1254165515
 30
0.0
 11
8.2403332204
 21
4.175379551
 31
0.0
  0
LINE
  5
12C
330
1B
100
AcDbEntity
 67
     1
  8
0
  6
Continuous
 62
     7
370
    25
100
AcDbLine
 10
8.2114870803
 20
4.1254165515
 30
0.0
 11
8.201871688
 21
4.1254165515
 31
0.0
  0
LWPOLYLINE
  5
12D
330
1B
100
AcDbEntity
 67
     1
  8
0
  6
Continuous
 62
     7
370
    25
100
AcDbPolyline
 90
        4
 70
   128
 43
0.0
 10
8.1730255113
 20
4.175379551
 10
8.1810882715
 20
4.1614144607
 10
8.1891510316
 20
4.1474493887
 10
8.201871688
 20
4.1254165515
  0
LINE
  5
12E
330
1B
100
AcDbEntity
 67
     1
  8
0
  6
Continuous
 62
     7
370
    25
100
AcDbLine
 10
8.1634101557
 20
4.175379551
 30
0.0
 11
8.1730255113
 21
4.175379551
 31
0.0
  0
LWPOLYLINE
  5
12F
330
1B
100
AcDbEntity
 67
     1
  8
0
  6
Continuous
 62
     7
370
    25
100
AcDbPolyline
 90
        4
 70
   128
 43
0.0
 10
8.1345639789
 20
4.1254165515
 10
8.1426267391
 20
4.1393816235
 10
8.1506894626
 20
4.1533467139
 10
8.1634101557
 20
4.175379551
  0
LINE
  5
130
330
1B
100
AcDbEntity
 67
     1
  8
0
  6
Continuous
 62
     7
370
    25
100
AcDbLine
 10
8.1345639789
 20
4.1254165515
 30
0.0
 11
8.1249485867
 21
4.1254165515
 31
0.0
  0
LWPOLYLINE
  5
131
330
1B
100
AcDbEntity
 67
     1
  8
0
  6
Continuous
 62
     7
370
    25
100
AcDbPolyline
 90
        4
 70
   128
 43
0.0
 10
8.0961024466
 20
4.175379551
 10
8.1041652067
 20
4.1614144607
 10
8.1122279303
 20
4.1474493887
 10
8.1249485867
 20
4.1254165515
  0
LINE
  5
132
330
1B
100
AcDbEntity
 67
     1
  8
0
  6
Continuous
 62
     7
370
    25
100
AcDbLine
 10
8.0864870543
 20
4.175379551
 30
0.0
 11
8.0961024466
 21
4.175379551
 31
0.0
  0
LINE
  5
133
330
1B
100
AcDbEntity
 67
     1
  8
0
  6
Continuous
 62
     7
370
    25
100
AcDbLine
 10
8.0576409142
 20
4.1254165515
 30
0.0
 11
8.0864870543
 21
4.175379551
 31
0.0
  0
LINE
  5
134
330
1B
100
AcDbEntity
 67
     1
  8
0
  6
Continuous
 62
     7
370
    25
100
AcDbLine
 10
8.0576409142
 20
4.1254165515
 30
0.0
 11
8.0480255219
 21
4.1254165515
 31
0.0
  0
LWPOLYLINE
  5
135
330
1B
100
AcDbEntity
 67
     1
  8
0
  6
Continuous
 62
     7
370
    25
100
AcDbPolyline
 90
        4
 70
   128
 43
0.0
 10
8.0191793818
 20
4.175379551
 10
8.0272421054
 20
4.1614144607
 10
8.0353048656
 20
4.1474493887
 10
8.0480255219
 20
4.1254165515
  0
LINE
  5
136
330
1B
100
AcDbEntity
 67
     1
  8
0
  6
Continuous
 62
     7
370
    25
100
AcDbLine
 10
8.0095639896
 20
4.175379551
 30
0.0
 11
8.0191793818
 21
4.175379551
 31
0.0
  0
LINE
  5
137
330
1B
100
AcDbEntity
 67
     1
  8
0
  6
Continuous
 62
     7
370
    25
100
AcDbLine
 10
7.9807178495
 20
4.1254165515
 30
0.0
 11
8.0095639896
 21
4.175379551
 31
0.0
  0
LINE
  5
138
330
1B
100
AcDbEntity
 67
     1
  8
0
  6
Continuous
 62
     7
370
    25
100
AcDbLine
 10
7.9807178495
 20
4.1254165515
 30
0.0
 11
7.9711024572
 21
4.1254165515
 31
0.0
  0
LWPOLYLINE
  5
139
330
1B
100
AcDbEntity
 67
     1
  8
0
  6
Continuous
 62
     7
370
    25
100
AcDbPolyline
 90
        4
 70
   128
 43
0.0
 10
7.9422563171
 20
4.175379551
 10
7.9503190407
 20
4.1614144607
 10
7.9583818008
 20
4.1474493887
 10
7.9711024572
 20
4.1254165515
  0
LINE
  5
13A
330
1B
100
AcDbEntity
 67
     1
  8
0
  6
Continuous
 62
     7
370
    25
100
AcDbLine
 10
7.9326408882
 20
4.175379551
 30
0.0
 11
7.9422563171
 21
4.175379551
 31
0.0
  0
LWPOLYLINE
  5
13B
330
1B
100
AcDbEntity
 67
     1
  8
0
  6
Continuous
 62
     7
370
    25
100
AcDbPolyline
 90
        4
 70
   128
 43
0.0
 10
7.9037947481
 20
4.1254165515
 10
7.9118575083
 20
4.1393816235
 10
7.9199202685
 20
4.1533467139
 10
7.9326408882
 20
4.175379551
  0
LINE
  5
13C
330
1B
100
AcDbEntity
 67
     1
  8
0
  6
Continuous
 62
     7
370
    25
100
AcDbLine
 10
7.9037947481
 20
4.1254165515
 30
0.0
 11
7.8941793925
 21
4.1254165515
 31
0.0
  0
LWPOLYLINE
  5
13D
330
1B
100
AcDbEntity
 67
     1
  8
0
  6
Continuous
 62
     7
370
    25
100
AcDbPolyline
 90
        4
 70
   128
 43
0.0
 10
7.8653332524
 20
4.175379551
 10
7.8733959393
 20
4.1614144607
 10
7.8814586995
 20
4.1474493887
 10
7.8941793925
 20
4.1254165515
  0
LINE
  5
13E
330
1B
100
AcDbEntity
 67
     1
  8
0
  6
Continuous
 62
     7
370
    25
100
AcDbLine
 10
7.8557178235
 20
4.175379551
 30
0.0
 11
7.8653332524
 21
4.175379551
 31
0.0
  0
LWPOLYLINE
  5
13F
330
1B
100
AcDbEntity
 67
     1
  8
0
  6
Continuous
 62
     7
370
    25
100
AcDbPolyline
 90
        4
 70
   128
 43
0.0
 10
7.8268716834
 20
4.1254165515
 10
7.8349344436
 20
4.1393816235
 10
7.8429972038
 20
4.1533467139
 10
7.8557178235
 20
4.175379551
  0
LINE
  5
140
330
1B
100
AcDbEntity
 67
     1
  8
0
  6
Continuous
 62
     7
370
    25
100
AcDbLine
 10
7.8268716834
 20
4.1254165515
 30
0.0
 11
7.8172563278
 21
4.1254165515
 31
0.0
  0
LINE
  5
141
330
1B
100
AcDbEntity
 67
     1
  8
0
  6
Continuous
 62
     7
370
    25
100
AcDbLine
 10
7.7884101144
 20
4.175379551
 30
0.0
 11
7.8172563278
 21
4.1254165515
 31
0.0
  0
LINE
  5
142
330
1B
100
AcDbEntity
 67
     1
  8
0
  6
Continuous
 62
     7
370
    25
100
AcDbLine
 10
7.7787947588
 20
4.175379551
 30
0.0
 11
7.7884101144
 21
4.175379551
 31
0.0
  0
LWPOLYLINE
  5
143
330
1B
100
AcDbEntity
 67
     1
  8
0
  6
Continuous
 62
     7
370
    25
100
AcDbPolyline
 90
        4
 70
   128
 43
0.0
 10
7.7499486187
 20
4.1254165515
 10
7.7580113789
 20
4.1393816235
 10
7.7660740657
 20
4.1533467139
 10
7.7787947588
 20
4.175379551
  0
LINE
  5
144
330
1B
100
AcDbEntity
 67
     1
  8
0
  6
Continuous
 62
     7
370
    25
100
AcDbLine
 10
7.7499486187
 20
4.1254165515
 30
0.0
 11
7.7403331898
 21
4.1254165515
 31
0.0
  0
LWPOLYLINE
  5
145
330
1B
100
AcDbEntity
 67
     1
  8
0
  6
Continuous
 62
     7
370
    25
100
AcDbPolyline
 90
        4
 70
   128
 43
0.0
 10
7.7114870497
 20
4.175379551
 10
7.7195498099
 20
4.1614144607
 10
7.72761257
 20
4.1474493887
 10
7.7403331898
 20
4.1254165515
  0
LINE
  5
146
330
1B
100
AcDbEntity
 67
     1
  8
0
  6
Continuous
 62
     7
370
    25
100
AcDbLine
 10
7.7018716941
 20
4.175379551
 30
0.0
 11
7.7114870497
 21
4.175379551
 31
0.0
  0
LWPOLYLINE
  5
147
330
1B
100
AcDbEntity
 67
     1
  8
0
  6
Continuous
 62
     7
370
    25
100
AcDbPolyline
 90
        4
 70
   128
 43
0.0
 10
7.673025554
 20
4.1254165515
 10
7.6810882408
 20
4.1393816235
 10
7.689151001
 20
4.1533467139
 10
7.7018716941
 20
4.175379551
  0
LINE
  5
148
330
1B
100
AcDbEntity
 67
     1
  8
0
  6
Continuous
 62
     7
370
    25
100
AcDbLine
 10
7.673025554
 20
4.1254165515
 30
0.0
 11
7.6634101251
 21
4.1254165515
 31
0.0
  0
LWPOLYLINE
  5
149
330
1B
100
AcDbEntity
 67
     1
  8
0
  6
Continuous
 62
     7
370
    25
100
AcDbPolyline
 90
        4
 70
   128
 43
0.0
 10
7.634563985
 20
4.175379551
 10
7.6426267451
 20
4.1614144607
 10
7.6506895053
 20
4.1474493887
 10
7.6634101251
 20
4.1254165515
  0
LINE
  5
14A
330
1B
100
AcDbEntity
 67
     1
  8
0
  6
Continuous
 62
     7
370
    25
100
AcDbLine
 10
7.6249486294
 20
4.175379551
 30
0.0
 11
7.634563985
 21
4.175379551
 31
0.0
  0
LINE
  5
14B
330
1B
100
AcDbEntity
 67
     1
  8
0
  6
Continuous
 62
     7
370
    25
100
AcDbLine
 10
7.5961024159
 20
4.1254165515
 30
0.0
 11
7.6249486294
 21
4.175379551
 31
0.0
  0
LINE
  5
14C
330
1B
100
AcDbEntity
 67
     1
  8
0
  6
Continuous
 62
     7
370
    25
100
AcDbLine
 10
7.5961024159
 20
4.1254165515
 30
0.0
 11
7.5864870603
 21
4.1254165515
 31
0.0
  0
LWPOLYLINE
  5
14D
330
1B
100
AcDbEntity
 67
     1
  8
0
  6
Continuous
 62
     7
370
    25
100
AcDbPolyline
 90
        4
 70
   128
 43
0.0
 10
7.5576409202
 20
4.175379551
 10
7.5657036804
 20
4.1614144607
 10
7.5737663673
 20
4.1474493887
 10
7.5864870603
 20
4.1254165515
  0
LINE
  5
14E
330
1B
100
AcDbEntity
 67
     1
  8
0
  6
Continuous
 62
     7
370
    25
100
AcDbLine
 10
7.5480254913
 20
4.175379551
 30
0.0
 11
7.5576409202
 21
4.175379551
 31
0.0
  0
LWPOLYLINE
  5
14F
330
1B
100
AcDbEntity
 67
     1
  8
0
  6
Continuous
 62
     7
370
    25
100
AcDbPolyline
 90
        4
 70
   128
 43
0.0
 10
7.5191793512
 20
4.1254165515
 10
7.5272421114
 20
4.1393816235
 10
7.5353048716
 20
4.1533467139
 10
7.5480254913
 20
4.175379551
  0
LINE
  5
150
330
1B
100
AcDbEntity
 67
     1
  8
0
  6
Continuous
 62
     7
370
    25
100
AcDbLine
 10
7.5191793512
 20
4.1254165515
 30
0.0
 11
7.5095639956
 21
4.1254165515
 31
0.0
  0
LWPOLYLINE
  5
151
330
1B
100
AcDbEntity
 67
     1
  8
0
  6
Continuous
 62
     7
370
    25
100
AcDbPolyline
 90
        4
 70
   128
 43
0.0
 10
7.4807178555
 20
4.175379551
 10
7.4887805424
 20
4.1614144607
 10
7.4968433026
 20
4.1474493887
 10
7.5095639956
 20
4.1254165515
  0
LINE
  5
152
330
1B
100
AcDbEntity
 67
     1
  8
0
  6
Continuous
 62
     7
370
    25
100
AcDbLine
 10
7.4711024266
 20
4.175379551
 30
0.0
 11
7.4807178555
 21
4.175379551
 31
0.0
  0
LWPOLYLINE
  5
153
330
1B
100
AcDbEntity
 67
     1
  8
0
  6
Continuous
 62
     7
370
    25
100
AcDbPolyline
 90
        4
 70
   128
 43
0.0
 10
7.4422562865
 20
4.1254165515
 10
7.4503190467
 20
4.1393816235
 10
7.4583818069
 20
4.1533467139
 10
7.4711024266
 20
4.175379551
  0
LINE
  5
154
330
1B
100
AcDbEntity
 67
     1
  8
0
  6
Continuous
 62
     7
370
    25
100
AcDbLine
 10
7.4422562865
 20
4.1254165515
 30
0.0
 11
7.4326409309
 21
4.1254165515
 31
0.0
  0
LWPOLYLINE
  5
155
330
1B
100
AcDbEntity
 67
     1
  8
0
  6
Continuous
 62
     7
370
    25
100
AcDbPolyline
 90
        4
 70
   128
 43
0.0
 10
7.4037947908
 20
4.175379551
 10
7.4118574777
 20
4.1614144607
 10
7.4199202379
 20
4.1474493887
 10
7.4326409309
 20
4.1254165515
  0
LINE
  5
156
330
1B
100
AcDbEntity
 67
     1
  8
0
  6
Continuous
 62
     7
370
    25
100
AcDbLine
 10
7.3941793619
 20
4.175379551
 30
0.0
 11
7.4037947908
 21
4.175379551
 31
0.0
  0
LWPOLYLINE
  5
157
330
1B
100
AcDbEntity
 67
     1
  8
0
  6
Continuous
 62
     7
370
    25
100
AcDbPolyline
 90
        4
 70
   128
 43
0.0
 10
7.3653332218
 20
4.1254165515
 10
7.373395982
 20
4.1393816235
 10
7.3814587422
 20
4.1533467139
 10
7.3941793619
 20
4.175379551
  0
LINE
  5
158
330
1B
100
AcDbEntity
 67
     1
  8
0
  6
Continuous
 62
     7
370
    25
100
AcDbLine
 10
7.3653332218
 20
4.1254165515
 30
0.0
 11
7.3557178662
 21
4.1254165515
 31
0.0
  0
LWPOLYLINE
  5
159
330
1B
100
AcDbEntity
 67
     1
  8
0
  6
Continuous
 62
     7
370
    25
100
AcDbPolyline
 90
        4
 70
   128
 43
0.0
 10
7.3268717261
 20
4.175379551
 10
7.334934413
 20
4.1614144607
 10
7.3429971732
 20
4.1474493887
 10
7.3557178662
 20
4.1254165515
  0
LINE
  5
15A
330
1B
100
AcDbEntity
 67
     1
  8
0
  6
Continuous
 62
     7
370
    25
100
AcDbLine
 10
7.3172562239
 20
4.175379551
 30
0.0
 11
7.3268717261
 21
4.175379551
 31
0.0
  0
LWPOLYLINE
  5
15B
330
1B
100
AcDbEntity
 67
     1
  8
0
  6
Continuous
 62
     7
370
    25
100
AcDbPolyline
 90
        4
 70
   128
 43
0.0
 10
7.2884101571
 20
4.1254165515
 10
7.2964729173
 20
4.1393816235
 10
7.3045356775
 20
4.1533467139
 10
7.3172562239
 20
4.175379551
  0
LINE
  5
15C
330
1B
100
AcDbEntity
 67
     1
  8
0
  6
Continuous
 62
     7
370
    25
100
AcDbLine
 10
7.2884101571
 20
4.1254165515
 30
0.0
 11
7.2787948015
 21
4.1254165515
 31
0.0
  0
LINE
  5
15D
330
1B
100
AcDbEntity
 67
     1
  8
0
  6
Continuous
 62
     7
370
    25
100
AcDbLine
 10
7.2499485881
 20
4.175379551
 30
0.0
 11
7.2787948015
 21
4.1254165515
 31
0.0
  0
LINE
  5
15E
330
1B
100
AcDbEntity
 67
     1
  8
0
  6
Continuous
 62
     7
370
    25
100
AcDbLine
 10
7.2403332325
 20
4.175379551
 30
0.0
 11
7.2499485881
 21
4.175379551
 31
0.0
  0
LINE
  5
15F
330
1B
100
AcDbEntity
 67
     1
  8
0
  6
Continuous
 62
     7
370
    25
100
AcDbLine
 10
7.211487019
 20
4.1254165515
 30
0.0
 11
7.2403332325
 21
4.175379551
 31
0.0
  0
LINE
  5
160
330
1B
100
AcDbEntity
 67
     1
  8
0
  6
Continuous
 62
     7
370
    25
100
AcDbLine
 10
7.211487019
 20
4.1254165515
 30
0.0
 11
7.2018716635
 21
4.1254165515
 31
0.0
  0
LWPOLYLINE
  5
161
330
1B
100
AcDbEntity
 67
     1
  8
0
  6
Continuous
 62
     7
370
    25
100
AcDbPolyline
 90
        4
 70
   128
 43
0.0
 10
7.1730255967
 20
4.175379551
 10
7.1810882102
 20
4.1614144607
 10
7.1891509704
 20
4.1474493887
 10
7.2018716635
 20
4.1254165515
  0
LINE
  5
162
330
1B
100
AcDbEntity
 67
     1
  8
0
  6
Continuous
 62
     7
370
    25
100
AcDbLine
 10
7.1634100944
 20
4.175379551
 30
0.0
 11
7.1730255967
 21
4.175379551
 31
0.0
  0
LWPOLYLINE
  5
163
330
1B
100
AcDbEntity
 67
     1
  8
0
  6
Continuous
 62
     7
370
    25
100
AcDbPolyline
 90
        4
 70
   128
 43
0.0
 10
7.1345640277
 20
4.1254165515
 10
7.1426267879
 20
4.1393816235
 10
7.150689548
 20
4.1533467139
 10
7.1634100944
 20
4.175379551
  0
LINE
  5
164
330
1B
100
AcDbEntity
 67
     1
  8
0
  6
Continuous
 62
     7
370
    25
100
AcDbLine
 10
7.1345640277
 20
4.1254165515
 30
0.0
 11
7.1249486721
 21
4.1254165515
 31
0.0
  0
LWPOLYLINE
  5
165
330
1B
100
AcDbEntity
 67
     1
  8
0
  6
Continuous
 62
     7
370
    25
100
AcDbPolyline
 90
        4
 70
   128
 43
0.0
 10
7.10031233
 20
4.1680879186
 10
7.1041652188
 20
4.1614144607
 10
7.112227979
 20
4.1474493887
 10
7.1249486721
 20
4.1254165515
  0
LINE
  5
166
330
1B
100
AcDbEntity
 67
     1
  8
0
  6
Continuous
 62
     7
370
    25
100
AcDbLine
 10
7.0576408896
 20
4.1254165515
 30
0.0
 11
6.0576408284
 21
4.1254165515
 31
0.0
  0
LINE
  5
167
330
1B
100
AcDbEntity
 67
     1
  8
0
  6
Continuous
 62
     7
370
    25
100
AcDbLine
 10
6.0576408284
 20
4.0254165417
 30
0.0
 11
6.0576408284
 21
4.1254165515
 31
0.0
  0
LINE
  5
168
330
1B
100
AcDbEntity
 67
     1
  8
0
  6
Continuous
 62
     7
370
    25
100
AcDbLine
 10
6.0576408284
 20
4.0254165417
 30
0.0
 11
6.0326409038
 21
4.0004165439
 31
0.0
  0
LINE
  5
169
330
1B
100
AcDbEntity
 67
     1
  8
0
  6
Continuous
 62
     7
370
    25
100
AcDbLine
 10
5.6076410135
 20
4.0004165439
 30
0.0
 11
6.0326409038
 21
4.0004165439
 31
0.0
  0
LINE
  5
16A
330
1B
100
AcDbEntity
 67
     1
  8
0
  6
Continuous
 62
     7
370
    25
100
AcDbLine
 10
5.6076410135
 20
4.0004165439
 30
0.0
 11
5.5576408711
 21
4.0504165396
 31
0.0
  0
LINE
  5
16B
330
1B
100
AcDbEntity
 67
     1
  8
0
  6
Continuous
 62
     7
370
    25
100
AcDbLine
 10
5.5576408711
 20
4.0504165396
 30
0.0
 11
5.5576408711
 21
4.1589101929
 31
0.0
  0
LINE
  5
16C
330
1B
100
AcDbEntity
 67
     1
  8
0
  6
Continuous
 62
     7
370
    25
100
AcDbLine
 10
5.8388909021
 20
4.1589101929
 30
0.0
 11
5.5576408711
 21
4.1589101929
 31
0.0
  0
LINE
  5
16D
330
1B
100
AcDbEntity
 67
     1
  8
0
  6
Continuous
 62
     7
370
    25
100
AcDbLine
 10
5.8388909021
 20
4.1589101929
 30
0.0
 11
5.8388909021
 21
4.5919229041
 31
0.0
  0
SPLINE
  5
16E
330
1B
100
AcDbEntity
 67
     1
  8
0
  6
Continuous
 62
     7
370
    25
100
AcDbSpline
210
0.0
220
0.0
230
1.0
 70
     8
 71
     3
 72
     9
 73
     5
 74
     0
 42
0.000000001
 43
0.00000001
 40
0.0
 40
0.0
 40
0.0
 40
0.0
 40
0.6794243369840093
 40
1.0
 40
1.0
 40
1.0
 40
1.0
 10
8.471102451189356
 20
4.625416545471367
 30
0.0
 10
8.470526701547179
 20
4.625107020352903
 30
0.0
 10
8.46967929351241
 20
4.624651450686621
 30
0.0
 10
8.468751489124093
 20
4.619899243709211
 30
0.0
 10
8.46845405761716
 20
4.618375801806638
 30
0.0
  0
LINE
  5
16F
330
1B
100
AcDbEntity
 67
     1
  8
0
  6
Continuous
 62
     7
370
    25
100
AcDbLine
 10
8.4431453208
 20
4.1268838429
 30
0.0
 11
8.4422562928
 21
4.1254165515
 31
0.0
  0
SPLINE
  5
170
330
1B
100
AcDbEntity
 67
     1
  8
0
  6
Continuous
 62
     7
370
    25
100
AcDbSpline
210
0.0
220
0.0
230
1.0
 70
     8
 71
     3
 72
     9
 73
     5
 74
     0
 42
0.000000001
 43
0.00000001
 40
0.0
 40
0.0
 40
0.0
 40
0.0
 40
0.6794243424174963
 40
1.0
 40
1.0
 40
1.0
 40
1.0
 10
8.394179368144709
 20
4.625416545471367
 30
0.0
 10
8.393603616308004
 20
4.625107020382909
 30
0.0
 10
8.39275620505003
 20
4.624651450764434
 30
0.0
 10
8.391828411701788
 20
4.619899243708547
 30
0.0
 10
8.391530983739074
 20
4.618375801806638
 30
0.0
  0
LINE
  5
171
330
1B
100
AcDbEntity
 67
     1
  8
0
  6
Continuous
 62
     7
370
    25
100
AcDbLine
 10
8.3662222378
 20
4.1268838429
 30
0.0
 11
8.3653332097
 21
4.1254165515
 31
0.0
  0
SPLINE
  5
172
330
1B
100
AcDbEntity
 67
     1
  8
0
  6
Continuous
 62
     7
370
    25
100
AcDbSpline
210
0.0
220
0.0
230
1.0
 70
     8
 71
     3
 72
     9
 73
     5
 74
     0
 42
0.000000001
 43
0.00000001
 40
0.0
 40
0.0
 40
0.0
 40
0.0
 40
0.6794243267220268
 40
1.0
 40
1.0
 40
1.0
 40
1.0
 10
8.317256285100063
 20
4.625416545471367
 30
0.0
 10
8.316680545834657
 20
4.625107020296232
 30
0.0
 10
8.315833153059978
 20
4.624651450539658
 30
0.0
 10
8.314905336206808
 20
4.619899243710464
 30
0.0
 10
8.314607900694426
 20
4.618375801806638
 30
0.0
  0
LINE
  5
173
330
1B
100
AcDbEntity
 67
     1
  8
0
  6
Continuous
 62
     7
370
    25
100
AcDbLine
 10
8.2892991731
 20
4.1268838429
 30
0.0
 11
8.288410145
 21
4.1254165515
 31
0.0
  0
SPLINE
  5
174
330
1B
100
AcDbEntity
 67
     1
  8
0
  6
Continuous
 62
     7
370
    25
100
AcDbSpline
210
0.0
220
0.0
230
1.0
 70
     8
 71
     3
 72
     9
 73
     5
 74
     0
 42
0.000000001
 43
0.00000001
 40
0.0
 40
0.0
 40
0.0
 40
0.0
 40
0.6794243158547784
 40
0.9999999999999999
 40
0.9999999999999999
 40
0.9999999999999999
 40
0.9999999999999999
 10
8.240333220388537
 20
4.625416545471367
 30
0.0
 10
8.239757485512186
 20
4.625107020236219
 30
0.0
 10
8.238910099183913
 20
4.624651450384028
 30
0.0
 10
8.237982260250602
 20
4.619899243711791
 30
0.0
 10
8.237684817649779
 20
4.618375801806638
 30
0.0
  0
LINE
  5
175
330
1B
100
AcDbEntity
 67
     1
  8
0
  6
Continuous
 62
     7
370
    25
100
AcDbLine
 10
8.21237609
 20
4.1268838429
 30
0.0
 11
8.2114870803
 21
4.1254165515
 31
0.0
  0
SPLINE
  5
176
330
1B
100
AcDbEntity
 67
     1
  8
0
  6
Continuous
 62
     7
370
    25
100
AcDbSpline
210
0.0
220
0.0
230
1.0
 70
     8
 71
     3
 72
     9
 73
     5
 74
     0
 42
0.000000001
 43
0.00000001
 40
0.0
 40
0.0
 40
0.0
 40
0.0
 40
0.6794243472459875
 40
1.0
 40
1.0
 40
1.0
 40
1.0
 10
8.163410155677012
 20
4.625416545471367
 30
0.0
 10
8.162834395658061
 20
4.625107020409574
 30
0.0
 10
8.161986972363204
 20
4.624651450833583
 30
0.0
 10
8.161059180439738
 20
4.619899243707958
 30
0.0
 10
8.160761752938253
 20
4.618375801806638
 30
0.0
  0
LINE
  5
177
330
1B
100
AcDbEntity
 67
     1
  8
0
  6
Continuous
 62
     7
370
    25
100
AcDbLine
 10
8.1354530253
 20
4.1268838429
 30
0.0
 11
8.1345639789
 21
4.1254165515
 31
0.0
  0
SPLINE
  5
178
330
1B
100
AcDbEntity
 67
     1
  8
0
  6
Continuous
 62
     7
370
    25
100
AcDbSpline
210
0.0
220
0.0
230
1.0
 70
     8
 71
     3
 72
     9
 73
     5
 74
     0
 42
0.000000001
 43
0.00000001
 40
0.0
 40
0.0
 40
0.0
 40
0.0
 40
0.6794243375890572
 40
1.0
 40
1.0
 40
1.0
 40
1.0
 10
8.086487054299242
 20
4.625416545471367
 30
0.0
 10
8.08591131064478
 20
4.625107020356245
 30
0.0
 10
8.085063911423692
 20
4.624651450695286
 30
0.0
 10
8.08413611665067
 20
4.619899243709137
 30
0.0
 10
8.083838688226727
 20
4.618375801806638
 30
0.0
  0
LINE
  5
179
330
1B
100
AcDbEntity
 67
     1
  8
0
  6
Continuous
 62
     7
370
    25
100
AcDbLine
 10
8.0585299239
 20
4.1268838429
 30
0.0
 11
8.0576409142
 21
4.1254165515
 31
0.0
  0
SPLINE
  5
17A
330
1B
100
AcDbEntity
 67
     1
  8
0
  6
Continuous
 62
     7
370
    25
100
AcDbSpline
210
0.0
220
0.0
230
1.0
 70
     8
 71
     3
 72
     9
 73
     5
 74
     0
 42
0.000000001
 43
0.00000001
 40
0.0
 40
0.0
 40
0.0
 40
0.0
 40
0.6794243158547744
 40
1.0
 40
1.0
 40
1.0
 40
1.0
 10
8.009563989587717
 20
4.625416545471367
 30
0.0
 10
8.008988254711365
 20
4.625107020236219
 30
0.0
 10
8.008140868383094
 20
4.624651450384028
 30
0.0
 10
8.007213029449781
 20
4.619899243711791
 30
0.0
 10
8.006915586848958
 20
4.618375801806638
 30
0.0
  0
LINE
  5
17B
330
1B
100
AcDbEntity
 67
     1
  8
0
  6
Continuous
 62
     7
370
    25
100
AcDbLine
 10
7.9816068592
 20
4.1268838429
 30
0.0
 11
7.9807178495
 21
4.1254165515
 31
0.0
  0
SPLINE
  5
17C
330
1B
100
AcDbEntity
 67
     1
  8
0
  6
Continuous
 62
     7
370
    25
100
AcDbSpline
210
0.0
220
0.0
230
1.0
 70
     8
 71
     3
 72
     9
 73
     5
 74
     0
 42
0.000000001
 43
0.00000001
 40
0.0
 40
0.0
 40
0.0
 40
0.0
 40
0.679424284462872
 40
1.0
 40
1.0
 40
1.0
 40
1.0
 10
7.932640888209948
 20
4.625416545471367
 30
0.0
 10
7.932065178476192
 20
4.625107020062859
 30
0.0
 10
7.931217829114503
 20
4.624651449934463
 30
0.0
 10
7.930289943171352
 20
4.619899243715623
 30
0.0
 10
7.92999248547119
 20
4.618375801806638
 30
0.0
  0
LINE
  5
17D
330
1B
100
AcDbEntity
 67
     1
  8
0
  6
Continuous
 62
     7
370
    25
100
AcDbLine
 10
7.9046837578
 20
4.1268838429
 30
0.0
 11
7.9037947481
 21
4.1254165515
 31
0.0
  0
SPLINE
  5
17E
330
1B
100
AcDbEntity
 67
     1
  8
0
  6
Continuous
 62
     7
370
    25
100
AcDbSpline
210
0.0
220
0.0
230
1.0
 70
     8
 71
     3
 72
     9
 73
     5
 74
     0
 42
0.000000001
 43
0.00000001
 40
0.0
 40
0.0
 40
0.0
 40
0.0
 40
0.6794243472459991
 40
0.9999999999999999
 40
0.9999999999999999
 40
0.9999999999999999
 40
0.9999999999999999
 10
7.855717823498422
 20
4.625416545471367
 30
0.0
 10
7.855142063479472
 20
4.625107020409574
 30
0.0
 10
7.854294640184615
 20
4.624651450833583
 30
0.0
 10
7.853366848261149
 20
4.619899243707958
 30
0.0
 10
7.853069420759664
 20
4.618375801806638
 30
0.0
  0
LINE
  5
17F
330
1B
100
AcDbEntity
 67
     1
  8
0
  6
Continuous
 62
     7
370
    25
100
AcDbLine
 10
7.8277606931
 20
4.1268838429
 30
0.0
 11
7.8268716834
 21
4.1254165515
 31
0.0
  0
SPLINE
  5
180
330
1B
100
AcDbEntity
 67
     1
  8
0
  6
Continuous
 62
     7
370
    25
100
AcDbSpline
210
0.0
220
0.0
230
1.0
 70
     8
 71
     3
 72
     9
 73
     5
 74
     0
 42
0.000000001
 43
0.00000001
 40
0.0
 40
0.0
 40
0.0
 40
0.0
 40
0.6794243472459994
 40
1.0
 40
1.0
 40
1.0
 40
1.0
 10
7.778794758786896
 20
4.625416545471367
 30
0.0
 10
7.778218998767946
 20
4.625107020409574
 30
0.0
 10
7.777371575473089
 20
4.624651450833583
 30
0.0
 10
7.776443783549623
 20
4.619899243707958
 30
0.0
 10
7.776146356048138
 20
4.618375801806638
 30
0.0
  0
LINE
  5
181
330
1B
100
AcDbEntity
 67
     1
  8
0
  6
Continuous
 62
     7
370
    25
100
AcDbLine
 10
7.7508376284
 20
4.1268838429
 30
0.0
 11
7.7499486187
 21
4.1254165515
 31
0.0
  0
SPLINE
  5
182
330
1B
100
AcDbEntity
 67
     1
  8
0
  6
Continuous
 62
     7
370
    25
100
AcDbSpline
210
0.0
220
0.0
230
1.0
 70
     8
 71
     3
 72
     9
 73
     5
 74
     0
 42
0.000000001
 43
0.00000001
 40
0.0
 40
0.0
 40
0.0
 40
0.0
 40
0.6794243472459897
 40
1.0
 40
1.0
 40
1.0
 40
1.0
 10
7.70187169407537
 20
4.625416545471367
 30
0.0
 10
7.701295934056421
 20
4.625107020409574
 30
0.0
 10
7.700448510761563
 20
4.624651450833583
 30
0.0
 10
7.699520718838098
 20
4.619899243707958
 30
0.0
 10
7.699223291336613
 20
4.618375801806638
 30
0.0
  0
LINE
  5
183
330
1B
100
AcDbEntity
 67
     1
  8
0
  6
Continuous
 62
     7
370
    25
100
AcDbLine
 10
7.6739145637
 20
4.1268838429
 30
0.0
 11
7.673025554
 21
4.1254165515
 31
0.0
  0
SPLINE
  5
184
330
1B
100
AcDbEntity
 67
     1
  8
0
  6
Continuous
 62
     7
370
    25
100
AcDbSpline
210
0.0
220
0.0
230
1.0
 70
     8
 71
     3
 72
     9
 73
     5
 74
     0
 42
0.000000001
 43
0.00000001
 40
0.0
 40
0.0
 40
0.0
 40
0.0
 40
0.6794243472460001
 40
1.0
 40
1.0
 40
1.0
 40
1.0
 10
7.624948629363845
 20
4.625416545471367
 30
0.0
 10
7.624372869344895
 20
4.625107020409574
 30
0.0
 10
7.623525446050038
 20
4.624651450833583
 30
0.0
 10
7.622597654126572
 20
4.619899243707958
 30
0.0
 10
7.622300226625087
 20
4.618375801806638
 30
0.0
  0
LINE
  5
185
330
1B
100
AcDbEntity
 67
     1
  8
0
  6
Continuous
 62
     7
370
    25
100
AcDbLine
 10
7.596991499
 20
4.1268838429
 30
0.0
 11
7.5961024159
 21
4.1254165515
 31
0.0
  0
SPLINE
  5
186
330
1B
100
AcDbEntity
 67
     1
  8
0
  6
Continuous
 62
     7
370
    25
100
AcDbSpline
210
0.0
220
0.0
230
1.0
 70
     8
 71
     3
 72
     9
 73
     5
 74
     0
 42
0.000000001
 43
0.00000001
 40
0.0
 40
0.0
 40
0.0
 40
0.0
 40
0.6794243279323284
 40
1.0
 40
1.0
 40
1.0
 40
1.0
 10
7.548025491319833
 20
4.625416545471367
 30
0.0
 10
7.54744976402986
 20
4.625107020302916
 30
0.0
 10
7.546602388882542
 20
4.624651450556992
 30
0.0
 10
7.545674591259963
 20
4.619899243710316
 30
0.0
 10
7.545377161913561
 20
4.618375801806638
 30
0.0
  0
LINE
  5
187
330
1B
100
AcDbEntity
 67
     1
  8
0
  6
Continuous
 62
     7
370
    25
100
AcDbLine
 10
7.5200684343
 20
4.1268838429
 30
0.0
 11
7.5191793512
 21
4.1254165515
 31
0.0
  0
SPLINE
  5
188
330
1B
100
AcDbEntity
 67
     1
  8
0
  6
Continuous
 62
     7
370
    25
100
AcDbSpline
210
0.0
220
0.0
230
1.0
 70
     8
 71
     3
 72
     9
 73
     5
 74
     0
 42
0.000000001
 43
0.00000001
 40
0.0
 40
0.0
 40
0.0
 40
0.0
 40
0.6794242844628741
 40
1.0
 40
1.0
 40
1.0
 40
1.0
 10
7.471102426608307
 20
4.625416545471367
 30
0.0
 10
7.470526716874551
 20
4.625107020062859
 30
0.0
 10
7.469679367512862
 20
4.624651449934463
 30
0.0
 10
7.468751481569711
 20
4.619899243715623
 30
0.0
 10
7.468454023869549
 20
4.618375801806638
 30
0.0
  0
LINE
  5
189
330
1B
100
AcDbEntity
 67
     1
  8
0
  6
Continuous
 62
     7
370
    25
100
AcDbLine
 10
7.4431452962
 20
4.1268838429
 30
0.0
 11
7.4422562865
 21
4.1254165515
 31
0.0
  0
SPLINE
  5
18A
330
1B
100
AcDbEntity
 67
     1
  8
0
  6
Continuous
 62
     7
370
    25
100
AcDbSpline
210
0.0
220
0.0
230
1.0
 70
     8
 71
     3
 72
     9
 73
     5
 74
     0
 42
0.000000001
 43
0.00000001
 40
0.0
 40
0.0
 40
0.0
 40
0.0
 40
0.6794243472459911
 40
1.0
 40
1.0
 40
1.0
 40
1.0
 10
7.394179361896781
 20
4.625416545471367
 30
0.0
 10
7.393603601877832
 20
4.625107020409574
 30
0.0
 10
7.392756178582974
 20
4.624651450833583
 30
0.0
 10
7.391828386659509
 20
4.619899243707958
 30
0.0
 10
7.391530959158024
 20
4.618375801806638
 30
0.0
  0
LINE
  5
18B
330
1B
100
AcDbEntity
 67
     1
  8
0
  6
Continuous
 62
     7
370
    25
100
AcDbLine
 10
7.3662222315
 20
4.1268838429
 30
0.0
 11
7.3653332218
 21
4.1254165515
 31
0.0
  0
SPLINE
  5
18C
330
1B
100
AcDbEntity
 67
     1
  8
0
  6
Continuous
 62
     7
370
    25
100
AcDbSpline
210
0.0
220
0.0
230
1.0
 70
     8
 71
     3
 72
     9
 73
     5
 74
     0
 42
0.000000001
 43
0.00000001
 40
0.0
 40
0.0
 40
0.0
 40
0.0
 40
0.6794242651500102
 40
1.0
 40
1.0
 40
1.0
 40
1.0
 10
7.31725622385277
 20
4.625416545471367
 30
0.0
 10
7.316680546847989
 20
4.625107019956205
 30
0.0
 10
7.315833245633843
 20
4.624651449657883
 30
0.0
 10
7.314905353991579
 20
4.619899243717981
 30
0.0
 10
7.314607894446498
 20
4.618375801806638
 30
0.0
  0
LINE
  5
18D
330
1B
100
AcDbEntity
 67
     1
  8
0
  6
Continuous
 62
     7
370
    25
100
AcDbLine
 10
7.2892992401
 20
4.1268838429
 30
0.0
 11
7.2884101571
 21
4.1254165515
 31
0.0
  0
SPLINE
  5
18E
330
1B
100
AcDbEntity
 67
     1
  8
0
  6
Continuous
 62
     7
370
    25
100
AcDbSpline
210
0.0
220
0.0
230
1.0
 70
     8
 71
     3
 72
     9
 73
     5
 74
     0
 42
0.000000001
 43
0.00000001
 40
0.0
 40
0.0
 40
0.0
 40
0.0
 40
0.6794243037765486
 40
1.0
 40
1.0
 40
1.0
 40
1.0
 10
7.240333232473731
 20
4.625416545471367
 30
0.0
 10
7.239757490011001
 20
4.625107020169517
 30
0.0
 10
7.238910092501772
 20
4.624651450211055
 30
0.0
 10
7.237982212257732
 20
4.619899243713265
 30
0.0
 10
7.237684756402485
 20
4.618375801806638
 30
0.0
  0
LINE
  5
18F
330
1B
100
AcDbEntity
 67
     1
  8
0
  6
Continuous
 62
     7
370
    25
100
AcDbLine
 10
7.2123761021
 20
4.1268838429
 30
0.0
 11
7.211487019
 21
4.1254165515
 31
0.0
  0
SPLINE
  5
190
330
1B
100
AcDbEntity
 67
     1
  8
0
  6
Continuous
 62
     7
370
    25
100
AcDbSpline
210
0.0
220
0.0
230
1.0
 70
     8
 71
     3
 72
     9
 73
     5
 74
     0
 42
0.000000001
 43
0.00000001
 40
0.0
 40
0.0
 40
0.0
 40
0.0
 40
0.6794243907118741
 40
1.0
 40
1.0
 40
1.0
 40
1.0
 10
7.163410094429718
 20
4.625416545471367
 30
0.0
 10
7.162834316854536
 20
4.625107020649611
 30
0.0
 10
7.161986867774029
 20
4.62465145145606
 30
0.0
 10
7.161059164171171
 20
4.619899243702651
 30
0.0
 10
7.160761765023447
 20
4.618375801806638
 30
0.0
  0
LINE
  5
191
330
1B
100
AcDbEntity
 67
     1
  8
0
  6
Continuous
 62
     7
370
    25
100
AcDbLine
 10
7.1354529641
 20
4.1268838429
 30
0.0
 11
7.1345640277
 21
4.1254165515
 31
0.0
  0
SPLINE
  5
192
330
1B
100
AcDbEntity
 67
     1
  8
0
  6
Continuous
 62
     7
370
    25
100
AcDbSpline
210
0.0
220
0.0
230
1.0
 70
     8
 71
     3
 72
     9
 73
     5
 74
     0
 42
0.000000001
 43
0.00000001
 40
0.0
 40
0.0
 40
0.0
 40
0.0
 40
0.6794484374961451
 40
1.0
 40
1.0
 40
1.0
 40
1.0
 10
7.086487103050679
 20
4.625416545471367
 30
0.0
 10
7.085911349336584
 20
4.625107043446277
 30
0.0
 10
7.085063965366999
 20
4.624651523927781
 30
0.0
 10
7.084136177496096
 20
4.619899521831623
 30
0.0
 10
7.083838773644407
 20
4.618376260134677
 30
0.0
  0
SPLINE
  5
193
330
1B
100
AcDbEntity
 67
     1
  8
0
  6
Continuous
 62
     7
370
    25
100
AcDbSpline
210
0.0
220
0.0
230
1.0
 70
     8
 71
     3
 72
    16
 73
    12
 74
     0
 42
0.000000001
 43
0.00000001
 40
0.0
 40
0.0
 40
0.0
 40
0.0
 40
0.2499999999999984
 40
0.2499999999999984
 40
0.3749999999999986
 40
0.3749999999999986
 40
0.4999999999999987
 40
0.4999999999999987
 40
0.7499999999999993
 40
0.7499999999999993
 40
1.0
 40
1.0
 40
1.0
 40
1.0
 10
5.557640908156387
 20
4.26716337301961
 30
0.0
 10
5.566098987468687
 20
4.258705293707311
 30
0.0
 10
5.573290442651186
 20
4.250056427975822
 30
0.0
 10
5.580996807581773
 20
4.236619078370367
 30
0.0
 10
5.583046710633335
 20
4.232061804268077
 30
0.0
 10
5.585867266985584
 20
4.222754567898574
 30
0.0
 10
5.586626747597333
 20
4.21796117848821
 30
0.0
 10
5.586687011307898
 20
4.20378584022863
 30
0.0
 10
5.583825127970152
 20
4.194496971276287
 30
0.0
 10
5.573443899610907
 20
4.176178191556248
 30
0.0
 10
5.566148804708869
 20
4.167418094099032
 30
0.0
 10
5.557640908156382
 20
4.158910197546547
 30
0.0
  0
LINE
  5
194
330
1B
100
AcDbEntity
 67
     1
  8
0
  6
Continuous
 62
     7
370
    25
100
AcDbLine
 10
5.8388909021
 20
4.2671633707
 30
0.0
 11
5.5576408711
 21
4.2671633707
 31
0.0
  0
LINE
  5
195
330
1B
100
AcDbEntity
 67
     1
  8
0
  6
Continuous
 62
     7
370
    25
100
AcDbLine
 10
5.8388909021
 20
4.4836697263
 30
0.0
 11
5.5576408711
 21
4.4836697263
 31
0.0
  0
SPLINE
  5
196
330
1B
100
AcDbEntity
 67
     1
  8
0
  6
Continuous
 62
     7
370
    25
100
AcDbSpline
210
0.0
220
0.0
230
1.0
 70
     8
 71
     3
 72
    16
 73
    12
 74
     0
 42
0.000000001
 43
0.00000001
 40
0.0
 40
0.0
 40
0.0
 40
0.0
 40
0.2499999999999988
 40
0.2499999999999988
 40
0.3749999999999991
 40
0.3749999999999991
 40
0.4999999999999993
 40
0.4999999999999993
 40
0.7499999999999997
 40
0.7499999999999997
 40
1.0
 40
1.0
 40
1.0
 40
1.0
 10
5.557640908156375
 20
4.591922899438783
 30
0.0
 10
5.566098987468675
 20
4.583464820126483
 30
0.0
 10
5.573290442651177
 20
4.574815954394994
 30
0.0
 10
5.580996807581768
 20
4.56137860478954
 30
0.0
 10
5.58304671063333
 20
4.556821330687249
 30
0.0
 10
5.585867266985581
 20
4.547514094317746
 30
0.0
 10
5.586626747597332
 20
4.542720704907383
 30
0.0
 10
5.586687011307902
 20
4.528545366647803
 30
0.0
 10
5.583825127970155
 20
4.519256497695459
 30
0.0
 10
5.573443899610913
 20
4.500937717975421
 30
0.0
 10
5.566148804708877
 20
4.492177620518205
 30
0.0
 10
5.557640908156392
 20
4.483669723965719
 30
0.0
  0
LINE
  5
197
330
1B
100
AcDbEntity
 67
     1
  8
0
  6
Continuous
 62
     7
370
    25
100
AcDbLine
 10
5.5576408711
 20
4.5919229041
 30
0.0
 11
5.5576408711
 21
4.4836697263
 31
0.0
  0
LINE
  5
198
330
1B
100
AcDbEntity
 67
     1
  8
0
  6
Continuous
 62
     7
370
    25
100
AcDbLine
 10
5.5576408711
 20
4.2671633707
 30
0.0
 11
5.5576408711
 21
4.1589101929
 31
0.0
  0
SPLINE
  5
199
330
1B
100
AcDbEntity
 67
     1
  8
0
  6
Continuous
 62
     7
370
    25
100
AcDbSpline
210
0.0
220
0.0
230
1.0
 70
     8
 71
     3
 72
    18
 73
    14
 74
     0
 42
0.000000001
 43
0.00000001
 40
0.0
 40
0.0
 40
0.0
 40
0.0
 40
0.1250000000000007
 40
0.1250000000000007
 40
0.2500000000000015
 40
0.2500000000000015
 40
0.500000000000001
 40
0.500000000000001
 40
0.7500000000000004
 40
0.7500000000000004
 40
0.8750000000000002
 40
0.8750000000000002
 40
1.0
 40
1.0
 40
1.0
 40
1.0
 10
5.557640908156387
 20
4.267163373019611
 30
0.0
 10
5.561834952096003
 20
4.275551460898842
 30
0.0
 10
5.565750722871488
 20
4.284106756449012
 30
0.0
 10
5.572826648592017
 20
4.301671378981125
 30
0.0
 10
5.575965468916963
 20
4.310648247674352
 30
0.0
 10
5.583695087171538
 20
4.33778115142799
 30
0.0
 10
5.586649270300821
 20
4.356379805348415
 30
0.0
 10
5.586645245813554
 20
4.394492889134232
 30
0.0
 10
5.583704228430316
 20
4.413027815489747
 30
0.0
 10
5.575949517352956
 20
4.440236855519072
 30
0.0
 10
5.572792936062609
 20
4.449250846508102
 30
0.0
 10
5.565734882290715
 20
4.466760179715192
 30
0.0
 10
5.561827794098058
 20
4.475295952082374
 30
0.0
 10
5.557640908156387
 20
4.48366972396572
 30
0.0
  0
LINE
  5
19A
330
1B
100
AcDbEntity
 67
     1
  8
0
  6
Continuous
 62
     7
370
    25
100
AcDbLine
 10
5.5576408711
 20
4.4836697263
 30
0.0
 11
5.5576408711
 21
4.2671633707
 31
0.0
  0
HATCH
  5
19B
330
1B
100
AcDbEntity
 67
     1
  8
ANNOTATION
  6
Continuous
370
    18
100
AcDbHatch
 10
0.0
 20
0.0
 30
0.0
210
0.0
220
0.0
230
1.0
  2
ANSI31
 70
     0
 71
     0
 91
        1
 92
        0
 93
      173
 72
     1
 10
5.838890908156384
 20
4.591922899438764
 11
5.838890908156384
 21
4.158910197546566
 72
     1
 10
5.838890908156384
 20
4.158910197546566
 11
5.557640908156384
 21
4.158910197546556
 72
     1
 10
5.557640908156384
 20
4.158910197546556
 11
5.557640908156384
 21
4.050416548492666
 72
     1
 10
5.557640908156384
 20
4.050416548492666
 11
5.607640908156384
 21
4.000416548492665
 72
     1
 10
5.607640908156384
 20
4.000416548492665
 11
6.032640908156384
 21
4.000416548492665
 72
     1
 10
6.032640908156384
 20
4.000416548492665
 11
6.057640908156384
 21
4.025416548492665
 72
     1
 10
6.057640908156384
 20
4.025416548492665
 11
6.057640908156384
 21
4.125416548492666
 72
     1
 10
6.057640908156384
 20
4.125416548492666
 11
7.057640908156388
 21
4.125416548492666
 72
     1
 10
7.057640908156388
 20
4.125416548492666
 11
7.100312275209357
 21
4.168087915545637
 72
     1
 10
7.100312275209357
 20
4.168087915545637
 11
7.12494860046408
 21
4.125416548492666
 72
     1
 10
7.12494860046408
 20
4.125416548492666
 11
7.134563985079463
 21
4.125416548492666
 72
     1
 10
7.134563985079463
 20
4.125416548492666
 11
7.163410138925617
 21
4.175379552557152
 72
     1
 10
7.163410138925617
 20
4.175379552557152
 11
7.173025523541003
 21
4.175379552557152
 72
     1
 10
7.173025523541003
 20
4.175379552557152
 11
7.201871677387157
 21
4.125416548492666
 72
     1
 10
7.201871677387157
 20
4.125416548492666
 11
7.211487062002541
 21
4.125416548492666
 72
     1
 10
7.211487062002541
 20
4.125416548492666
 11
7.240333215848694
 21
4.175379552557152
 72
     1
 10
7.240333215848694
 20
4.175379552557152
 11
7.249948600464079
 21
4.175379552557152
 72
     1
 10
7.249948600464079
 20
4.175379552557152
 11
7.278794754310232
 21
4.125416548492666
 72
     1
 10
7.278794754310232
 20
4.125416548492666
 11
7.288410138925618
 21
4.125416548492666
 72
     1
 10
7.288410138925618
 20
4.125416548492666
 11
7.317256292771771
 21
4.175379552557152
 72
     1
 10
7.317256292771771
 20
4.175379552557152
 11
7.326871677387156
 21
4.175379552557152
 72
     1
 10
7.326871677387156
 20
4.175379552557152
 11
7.355717831233309
 21
4.125416548492666
 72
     1
 10
7.355717831233309
 20
4.125416548492666
 11
7.365333215848695
 21
4.125416548492666
 72
     1
 10
7.365333215848695
 20
4.125416548492666
 11
7.394179369694848
 21
4.175379552557152
 72
     1
 10
7.394179369694848
 20
4.175379552557152
 11
7.403794754310233
 21
4.175379552557152
 72
     1
 10
7.403794754310233
 20
4.175379552557152
 11
7.432640908156387
 21
4.125416548492666
 72
     1
 10
7.432640908156387
 20
4.125416548492666
 11
7.442256292771772
 21
4.125416548492666
 72
     1
 10
7.442256292771772
 20
4.125416548492666
 11
7.471102446617925
 21
4.175379552557152
 72
     1
 10
7.471102446617925
 20
4.175379552557152
 11
7.480717831233309
 21
4.175379552557152
 72
     1
 10
7.480717831233309
 20
4.175379552557152
 11
7.509563985079462
 21
4.125416548492666
 72
     1
 10
7.509563985079462
 20
4.125416548492666
 11
7.519179369694847
 21
4.125416548492666
 72
     1
 10
7.519179369694847
 20
4.125416548492666
 11
7.548025523541001
 21
4.175379552557152
 72
     1
 10
7.548025523541001
 20
4.175379552557152
 11
7.557640908156386
 21
4.175379552557152
 72
     1
 10
7.557640908156386
 20
4.175379552557152
 11
7.58648706200254
 21
4.125416548492666
 72
     1
 10
7.58648706200254
 20
4.125416548492666
 11
7.596102446617924
 21
4.125416548492666
 72
     1
 10
7.596102446617924
 20
4.125416548492666
 11
7.624948600464078
 21
4.175379552557152
 72
     1
 10
7.624948600464078
 20
4.175379552557152
 11
7.634563985079463
 21
4.175379552557152
 72
     1
 10
7.634563985079463
 20
4.175379552557152
 11
7.663410138925617
 21
4.125416548492666
 72
     1
 10
7.663410138925617
 20
4.125416548492666
 11
7.673025523541002
 21
4.125416548492666
 72
     1
 10
7.673025523541002
 20
4.125416548492666
 11
7.701871677387155
 21
4.175379552557152
 72
     1
 10
7.701871677387155
 20
4.175379552557152
 11
7.71148706200254
 21
4.175379552557152
 72
     1
 10
7.71148706200254
 20
4.175379552557152
 11
7.740333215848693
 21
4.125416548492666
 72
     1
 10
7.740333215848693
 20
4.125416548492666
 11
7.749948600464077
 21
4.125416548492666
 72
     1
 10
7.749948600464077
 20
4.125416548492666
 11
7.778794754310232
 21
4.175379552557152
 72
     1
 10
7.778794754310232
 20
4.175379552557152
 11
7.788410138925616
 21
4.175379552557152
 72
     1
 10
7.788410138925616
 20
4.175379552557152
 11
7.817256292771771
 21
4.125416548492666
 72
     1
 10
7.817256292771771
 20
4.125416548492666
 11
7.826871677387155
 21
4.125416548492666
 72
     1
 10
7.826871677387155
 20
4.125416548492666
 11
7.855717831233308
 21
4.175379552557152
 72
     1
 10
7.855717831233308
 20
4.175379552557152
 11
7.865333215848693
 21
4.175379552557152
 72
     1
 10
7.865333215848693
 20
4.175379552557152
 11
7.894179369694847
 21
4.125416548492666
 72
     1
 10
7.894179369694847
 20
4.125416548492666
 11
7.903794754310232
 21
4.125416548492666
 72
     1
 10
7.903794754310232
 20
4.125416548492666
 11
7.932640908156385
 21
4.175379552557152
 72
     1
 10
7.932640908156385
 20
4.175379552557152
 11
7.94225629277177
 21
4.175379552557152
 72
     1
 10
7.94225629277177
 20
4.175379552557152
 11
7.971102446617924
 21
4.125416548492666
 72
     1
 10
7.971102446617924
 20
4.125416548492666
 11
7.980717831233308
 21
4.125416548492666
 72
     1
 10
7.980717831233308
 20
4.125416548492666
 11
8.009563985079462
 21
4.175379552557152
 72
     1
 10
8.009563985079462
 20
4.175379552557152
 11
8.019179369694847
 21
4.175379552557152
 72
     1
 10
8.019179369694847
 20
4.175379552557152
 11
8.048025523541
 21
4.125416548492666
 72
     1
 10
8.048025523541
 20
4.125416548492666
 11
8.057640908156385
 21
4.125416548492666
 72
     1
 10
8.057640908156385
 20
4.125416548492666
 11
8.086487062002538
 21
4.175379552557152
 72
     1
 10
8.086487062002538
 20
4.175379552557152
 11
8.096102446617923
 21
4.175379552557152
 72
     1
 10
8.096102446617923
 20
4.175379552557152
 11
8.124948600464077
 21
4.125416548492666
 72
     1
 10
8.124948600464077
 20
4.125416548492666
 11
8.134563985079462
 21
4.125416548492666
 72
     1
 10
8.134563985079462
 20
4.125416548492666
 11
8.163410138925617
 21
4.175379552557152
 72
     1
 10
8.163410138925617
 20
4.175379552557152
 11
8.173025523541
 21
4.175379552557152
 72
     1
 10
8.173025523541
 20
4.175379552557152
 11
8.201871677387155
 21
4.125416548492666
 72
     1
 10
8.201871677387155
 20
4.125416548492666
 11
8.21148706200254
 21
4.125416548492666
 72
     1
 10
8.21148706200254
 20
4.125416548492666
 11
8.240333215848693
 21
4.175379552557152
 72
     1
 10
8.240333215848693
 20
4.175379552557152
 11
8.249948600464077
 21
4.175379552557152
 72
     1
 10
8.249948600464077
 20
4.175379552557152
 11
8.278794754310232
 21
4.125416548492666
 72
     1
 10
8.278794754310232
 20
4.125416548492666
 11
8.288410138925615
 21
4.125416548492666
 72
     1
 10
8.288410138925615
 20
4.125416548492666
 11
8.317256292771768
 21
4.175379552557152
 72
     1
 10
8.317256292771768
 20
4.175379552557152
 11
8.326871677387153
 21
4.175379552557152
 72
     1
 10
8.326871677387153
 20
4.175379552557152
 11
8.355717831233308
 21
4.125416548492666
 72
     1
 10
8.355717831233308
 20
4.125416548492666
 11
8.365333215848691
 21
4.125416548492666
 72
     1
 10
8.365333215848691
 20
4.125416548492666
 11
8.394179369694847
 21
4.175379552557152
 72
     1
 10
8.394179369694847
 20
4.175379552557152
 11
8.40379475431023
 21
4.175379552557152
 72
     1
 10
8.40379475431023
 20
4.175379552557152
 11
8.432640908156385
 21
4.125416548492666
 72
     1
 10
8.432640908156385
 20
4.125416548492666
 11
8.442256292771768
 21
4.125416548492666
 72
     1
 10
8.442256292771768
 20
4.125416548492666
 11
8.471102446617923
 21
4.175379552557152
 72
     1
 10
8.471102446617923
 20
4.175379552557152
 11
8.480717831233308
 21
4.175379552557152
 72
     1
 10
8.480717831233308
 20
4.175379552557152
 11
8.506044510043072
 21
4.131512458071661
 72
     1
 10
8.506044510043072
 20
4.131512458071661
 11
8.545449088998392
 21
4.170917037026981
 72
     1
 10
8.545449088998392
 20
4.170917037026981
 11
8.548025523541
 21
4.175379552557152
 72
     1
 10
8.548025523541
 20
4.175379552557152
 11
8.549911604528582
 21
4.175379552557152
 72
     1
 10
8.549911604528582
 20
4.175379552557152
 11
8.557640908156383
 21
4.183108856184973
 72
     1
 10
8.557640908156383
 20
4.183108856184973
 11
8.557640908156383
 21
4.567724240800358
 72
     1
 10
8.557640908156383
 20
4.567724240800358
 11
8.530428148359055
 21
4.594937000597686
 72
     1
 10
8.530428148359055
 20
4.594937000597686
 11
8.519179369694847
 21
4.575453544428179
 72
     1
 10
8.519179369694847
 20
4.575453544428179
 11
8.509563985079462
 21
4.575453544428179
 72
     1
 10
8.509563985079462
 20
4.575453544428179
 11
8.480717831233308
 21
4.625416548492665
 72
     1
 10
8.480717831233308
 20
4.625416548492665
 11
8.471102446617923
 21
4.625416548492665
 72
     1
 10
8.471102446617923
 20
4.625416548492665
 11
8.44225629277177
 21
4.575453544428179
 72
     1
 10
8.44225629277177
 20
4.575453544428179
 11
8.432640908156385
 21
4.575453544428179
 72
     1
 10
8.432640908156385
 20
4.575453544428179
 11
8.40379475431023
 21
4.625416548492665
 72
     1
 10
8.40379475431023
 20
4.625416548492665
 11
8.394179369694847
 21
4.625416548492665
 72
     1
 10
8.394179369694847
 20
4.625416548492665
 11
8.365333215848691
 21
4.575453544428179
 72
     1
 10
8.365333215848691
 20
4.575453544428179
 11
8.355717831233306
 21
4.575453544428179
 72
     1
 10
8.355717831233306
 20
4.575453544428179
 11
8.326871677387153
 21
4.625416548492665
 72
     1
 10
8.326871677387153
 20
4.625416548492665
 11
8.317256292771768
 21
4.625416548492665
 72
     1
 10
8.317256292771768
 20
4.625416548492665
 11
8.288410138925615
 21
4.575453544428179
 72
     1
 10
8.288410138925615
 20
4.575453544428179
 11
8.278794754310232
 21
4.575453544428179
 72
     1
 10
8.278794754310232
 20
4.575453544428179
 11
8.249948600464077
 21
4.625416548492665
 72
     1
 10
8.249948600464077
 20
4.625416548492665
 11
8.240333215848693
 21
4.625416548492665
 72
     1
 10
8.240333215848693
 20
4.625416548492665
 11
8.21148706200254
 21
4.575453544428179
 72
     1
 10
8.21148706200254
 20
4.575453544428179
 11
8.201871677387155
 21
4.575453544428179
 72
     1
 10
8.201871677387155
 20
4.575453544428179
 11
8.173025523541
 21
4.625416548492665
 72
     1
 10
8.173025523541
 20
4.625416548492665
 11
8.163410138925617
 21
4.625416548492665
 72
     1
 10
8.163410138925617
 20
4.625416548492665
 11
8.134563985079462
 21
4.575453544428179
 72
     1
 10
8.134563985079462
 20
4.575453544428179
 11
8.124948600464077
 21
4.575453544428179
 72
     1
 10
8.124948600464077
 20
4.575453544428179
 11
8.096102446617923
 21
4.625416548492665
 72
     1
 10
8.096102446617923
 20
4.625416548492665
 11
8.086487062002538
 21
4.625416548492665
 72
     1
 10
8.086487062002538
 20
4.625416548492665
 11
8.057640908156385
 21
4.575453544428179
 72
     1
 10
8.057640908156385
 20
4.575453544428179
 11
8.048025523541
 21
4.575453544428179
 72
     1
 10
8.048025523541
 20
4.575453544428179
 11
8.019179369694847
 21
4.625416548492665
 72
     1
 10
8.019179369694847
 20
4.625416548492665
 11
8.009563985079462
 21
4.625416548492665
 72
     1
 10
8.009563985079462
 20
4.625416548492665
 11
7.980717831233309
 21
4.575453544428179
 72
     1
 10
7.980717831233309
 20
4.575453544428179
 11
7.971102446617924
 21
4.575453544428179
 72
     1
 10
7.971102446617924
 20
4.575453544428179
 11
7.94225629277177
 21
4.625416548492665
 72
     1
 10
7.94225629277177
 20
4.625416548492665
 11
7.932640908156385
 21
4.625416548492665
 72
     1
 10
7.932640908156385
 20
4.625416548492665
 11
7.903794754310232
 21
4.575453544428179
 72
     1
 10
7.903794754310232
 20
4.575453544428179
 11
7.894179369694847
 21
4.575453544428179
 72
     1
 10
7.894179369694847
 20
4.575453544428179
 11
7.865333215848693
 21
4.625416548492665
 72
     1
 10
7.865333215848693
 20
4.625416548492665
 11
7.855717831233308
 21
4.625416548492665
 72
     1
 10
7.855717831233308
 20
4.625416548492665
 11
7.826871677387155
 21
4.575453544428179
 72
     1
 10
7.826871677387155
 20
4.575453544428179
 11
7.817256292771771
 21
4.575453544428179
 72
     1
 10
7.817256292771771
 20
4.575453544428179
 11
7.788410138925616
 21
4.625416548492665
 72
     1
 10
7.788410138925616
 20
4.625416548492665
 11
7.778794754310232
 21
4.625416548492665
 72
     1
 10
7.778794754310232
 20
4.625416548492665
 11
7.749948600464077
 21
4.575453544428179
 72
     1
 10
7.749948600464077
 20
4.575453544428179
 11
7.740333215848693
 21
4.575453544428179
 72
     1
 10
7.740333215848693
 20
4.575453544428179
 11
7.71148706200254
 21
4.625416548492665
 72
     1
 10
7.71148706200254
 20
4.625416548492665
 11
7.701871677387156
 21
4.625416548492665
 72
     1
 10
7.701871677387156
 20
4.625416548492665
 11
7.673025523541002
 21
4.575453544428179
 72
     1
 10
7.673025523541002
 20
4.575453544428179
 11
7.663410138925617
 21
4.575453544428179
 72
     1
 10
7.663410138925617
 20
4.575453544428179
 11
7.634563985079463
 21
4.625416548492665
 72
     1
 10
7.634563985079463
 20
4.625416548492665
 11
7.624948600464078
 21
4.625416548492665
 72
     1
 10
7.624948600464078
 20
4.625416548492665
 11
7.596102446617925
 21
4.575453544428179
 72
     1
 10
7.596102446617925
 20
4.575453544428179
 11
7.58648706200254
 21
4.575453544428179
 72
     1
 10
7.58648706200254
 20
4.575453544428179
 11
7.557640908156387
 21
4.625416548492665
 72
     1
 10
7.557640908156387
 20
4.625416548492665
 11
7.548025523541002
 21
4.625416548492665
 72
     1
 10
7.548025523541002
 20
4.625416548492665
 11
7.519179369694847
 21
4.575453544428179
 72
     1
 10
7.519179369694847
 20
4.575453544428179
 11
7.509563985079464
 21
4.575453544428179
 72
     1
 10
7.509563985079464
 20
4.575453544428179
 11
7.480717831233309
 21
4.625416548492665
 72
     1
 10
7.480717831233309
 20
4.625416548492665
 11
7.471102446617925
 21
4.625416548492665
 72
     1
 10
7.471102446617925
 20
4.625416548492665
 11
7.442256292771772
 21
4.575453544428179
 72
     1
 10
7.442256292771772
 20
4.575453544428179
 11
7.432640908156387
 21
4.575453544428179
 72
     1
 10
7.432640908156387
 20
4.575453544428179
 11
7.403794754310233
 21
4.625416548492665
 72
     1
 10
7.403794754310233
 20
4.625416548492665
 11
7.394179369694848
 21
4.625416548492665
 72
     1
 10
7.394179369694848
 20
4.625416548492665
 11
7.365333215848695
 21
4.575453544428179
 72
     1
 10
7.365333215848695
 20
4.575453544428179
 11
7.35571783123331
 21
4.575453544428179
 72
     1
 10
7.35571783123331
 20
4.575453544428179
 11
7.326871677387156
 21
4.625416548492665
 72
     1
 10
7.326871677387156
 20
4.625416548492665
 11
7.317256292771772
 21
4.625416548492665
 72
     1
 10
7.317256292771772
 20
4.625416548492665
 11
7.288410138925618
 21
4.575453544428179
 72
     1
 10
7.288410138925618
 20
4.575453544428179
 11
7.278794754310232
 21
4.575453544428179
 72
     1
 10
7.278794754310232
 20
4.575453544428179
 11
7.249948600464079
 21
4.625416548492665
 72
     1
 10
7.249948600464079
 20
4.625416548492665
 11
7.240333215848694
 21
4.625416548492665
 72
     1
 10
7.240333215848694
 20
4.625416548492665
 11
7.211487062002541
 21
4.575453544428179
 72
     1
 10
7.211487062002541
 20
4.575453544428179
 11
7.201871677387157
 21
4.575453544428179
 72
     1
 10
7.201871677387157
 20
4.575453544428179
 11
7.173025523541003
 21
4.625416548492665
 72
     1
 10
7.173025523541003
 20
4.625416548492665
 11
7.163410138925618
 21
4.625416548492665
 72
     1
 10
7.163410138925618
 20
4.625416548492665
 11
7.134563985079463
 21
4.575453544428179
 72
     1
 10
7.134563985079463
 20
4.575453544428179
 11
7.12494860046408
 21
4.575453544428179
 72
     1
 10
7.12494860046408
 20
4.575453544428179
 11
7.096102446617927
 21
4.625416548492665
 72
     1
 10
7.096102446617927
 20
4.625416548492665
 11
7.086487062002541
 21
4.625416548492665
 72
     1
 10
7.086487062002541
 20
4.625416548492665
 11
7.07592863689337
 21
4.60712881975567
 72
     1
 10
7.07592863689337
 20
4.60712881975567
 11
7.057640908156384
 21
4.625416548492666
 72
     1
 10
7.057640908156384
 20
4.625416548492666
 11
6.057640908156384
 21
4.625416548492665
 72
     1
 10
6.057640908156384
 20
4.625416548492665
 11
6.057640908156384
 21
4.725416548492665
 72
     1
 10
6.057640908156384
 20
4.725416548492665
 11
6.032640908156384
 21
4.750416548492666
 72
     1
 10
6.032640908156384
 20
4.750416548492666
 11
5.607640908156384
 21
4.750416548492666
 72
     1
 10
5.607640908156384
 20
4.750416548492666
 11
5.557640908156384
 21
4.700416548492665
 72
     1
 10
5.557640908156384
 20
4.700416548492665
 11
5.557640908156384
 21
4.591922899438774
 72
     1
 10
5.557640908156384
 20
4.591922899438774
 11
5.838890908156384
 21
4.591922899438764
 97
        0
 75
     0
 76
     1
 52
0.0
 41
1.0
 77
     0
 78
     1
 53
45.0
 43
0.0
 44
0.0
 45
-0.0883883476483184
 46
0.0883883476483184
 79
     0
 98
        1
 10
0.0
 20
0.0
  0
DIMENSION
  5
19C
330
1B
100
AcDbEntity
 67
     1
  8
ANNOTATION
100
AcDbDimension
  2
_D
 10
8.7256572605
 20
4.1831088562
 30
0.0
 11
8.7256572605
 21
3.76251003
 31
0.0
 70
   160
  1
MINOR\PDIAMETER
 71
     1
 42
-1.0
  3
SLDDIMSTYLE0
100
AcDbAlignedDimension
 13
8.5576409082
 23
4.5677242408
 33
0.0
 14
8.5576409082
 24
4.1831088562
 34
0.0
 50
90.0
100
AcDbRotatedDimension
  0
DIMENSION
  5
1AA
330
1B
100
AcDbEntity
 67
     1
  8
ANNOTATION
100
AcDbDimension
  2
_D_1
 10
6.312157603
 20
4.1254165485
 30
0.0
 11
6.312157603
 21
3.76251003
 31
0.0
 70
   160
  1
MAJOR\PDIAMETER
 71
     1
 42
-1.0
  3
SLDDIMSTYLE0
100
AcDbAlignedDimension
 13
6.0576409082
 23
4.6254165485
 33
0.0
 14
6.0576409082
 24
4.1254165485
 34
0.0
 50
90.0
100
AcDbRotatedDimension
  0
DIMENSION
  5
1B5
330
1B
100
AcDbEntity
 67
     1
  8
ANNOTATION
100
AcDbDimension
  2
_D_2
 10
8.2403332158
 20
5.1441173359
 30
0.0
 11
9.2688101283
 21
5.1441173359
 31
0.0
 70
   160
  1
THREAD\PPITCH
 71
     1
 42
-1.0
  3
SLDDIMSTYLE0
100
AcDbAlignedDimension
 13
8.3172562928
 23
4.6254165485
 33
0.0
 14
8.2403332158
 24
4.6254165485
 34
0.0
100
AcDbRotatedDimension
  0
MTEXT
  5
1C1
330
1B
100
AcDbEntity
 67
     1
  8
ANNOTATION
100
AcDbMText
 10
7.0808837993
 20
5.2604591375
 30
0.0
 40
0.125
 41
0.0
 71
     1
 72
     1
  1
SHOULDER
  7
SLDTEXTSTYLE0
 73
     1
 44
1.0
  0
LEADER
  5
1C3
330
1B
100
AcDbEntity
 67
     1
  8
ANNOTATION
100
AcDbLeader
  3
SLDDIMSTYLE1
 76
     3
 10
6.6366292644
 20
4.6254165485
 30
0.0
 10
6.812307429
 20
5.2053877104
 30
0.0
 10
7.0583704211
 20
5.2053877104
 30
0.0
  0
MTEXT
  5
1C4
330
1B
100
AcDbEntity
 67
     1
  8
ANNOTATION
100
AcDbMText
 10
6.0539034938
 20
5.2707906383
 30
0.0
 40
0.125
 41
0.0
 71
     1
 72
     1
  1
HEAD
  7
SLDTEXTSTYLE0
 73
     1
 44
1.0
  0
LEADER
  5
1C5
330
1B
100
AcDbEntity
 67
     1
  8
ANNOTATION
100
AcDbLeader
  3
SLDDIMSTYLE1
 76
     3
 10
5.7894461977
 20
4.7504165485
 30
0.0
 10
5.7852618966
 20
5.2139464232
 30
0.0
 10
6.0313248887
 20
5.2139464232
 30
0.0
  0
ENDSEC
  0
SECTION
  2
OBJECTS
  0
DICTIONARY
  5
C
330
0
100
AcDbDictionary
281
     1
  3
ACAD_GROUP
350
D
  3
ACAD_LAYOUT
350
1A
  3
ACAD_MLINESTYLE
350
17
  3
ACAD_PLOTSETTINGS
350
19
  3
ACAD_PLOTSTYLENAME
350
E
  3
ACAD_SCALELIST
350
47
  0
DICTIONARY
  5
D
102
{ACAD_REACTORS
330
C
102
}
330
C
100
AcDbDictionary
281
     1
  0
DICTIONARY
  5
1A
102
{ACAD_REACTORS
330
C
102
}
330
C
100
AcDbDictionary
281
     1
  3
Model
350
22
  3
Sheet1
350
1E
  0
DICTIONARY
  5
17
102
{ACAD_REACTORS
330
C
102
}
330
C
100
AcDbDictionary
281
     1
  3
Standard
350
18
  0
DICTIONARY
  5
19
102
{ACAD_REACTORS
330
C
102
}
330
C
100
AcDbDictionary
281
     1
  0
ACDBDICTIONARYWDFLT
  5
E
102
{ACAD_REACTORS
330
C
102
}
330
C
100
AcDbDictionary
281
     1
  3
Normal
350
F
100
AcDbDictionaryWithDefault
340
F
  0
DICTIONARY
  5
47
102
{ACAD_REACTORS
330
C
102
}
330
C
100
AcDbDictionary
281
     1
  3
A0
350
48
  3
A1
350
49
  3
A2
350
4A
  3
A3
350
4B
  3
A4
350
4C
  3
A5
350
4D
  3
A6
350
4E
  3
A7
350
4F
  3
A8
350
50
  3
A9
350
51
  3
B0
350
52
  3
B1
350
53
  3
B2
350
54
  3
B3
350
55
  3
B4
350
56
  3
B5
350
57
  3
B6
350
58
  3
B7
350
59
  3
B8
350
5A
  3
B9
350
5B
  3
C0
350
5C
  3
C1
350
5D
  3
C2
350
5E
  3
C3
350
5F
  3
C4
350
60
  3
C5
350
61
  3
C6
350
62
  3
C7
350
63
  3
C8
350
64
  3
C9
350
65
  3
D0
350
66
  3
D1
350
67
  3
D2
350
68
  0
LAYOUT
  5
22
102
{ACAD_REACTORS
330
1A
102
}
330
1A
100
AcDbPlotSettings
  1

  2
none_device
  4
Letter_(8.50_x_11.00_Inches)
  6

 40
6.35
 41
6.35
 42
6.35000508
 43
6.35000508
 44
215.9
 45
279.4
 46
0.0
 47
0.0
 48
0.0
 49
0.0
140
0.0
141
0.0
142
1.0
143
1.0
 70
  1712
 72
     0
 73
     0
 74
     0
  7

 75
     0
147
1.0
148
0.0
149
0.0
100
AcDbLayout
  1
Model
 70
     1
 71
     0
 10
0.0
 20
0.0
 11
12.0
 21
9.0
 12
0.0
 22
0.0
 32
0.0
 14
0.0
 24
0.0
 34
0.0
 15
11.0
 25
8.5
 35
0.0
146
0.0
 13
0.0
 23
0.0
 33
0.0
 16
1.0
 26
0.0
 36
0.0
 17
0.0
 27
1.0
 37
0.0
 76
     0
330
1F
331
29
  0
LAYOUT
  5
1E
102
{ACAD_REACTORS
330
1A
102
}
330
1A
100
AcDbPlotSettings
  1

  2
none_device
  4
ANSI_A_(11.00_x_8.50_Inches)
  6

 40
6.35
 41
19.05
 42
6.35000508
 43
19.05000254
 44
279.4
 45
215.9
 46
0.0
 47
0.0
 48
0.0
 49
0.0
140
0.0
141
0.0
142
1.0
143
1.0
 70
  4832
 72
     0
 73
     0
 74
     1
  7

 75
     0
147
1.0
148
0.0
149
0.0
100
AcDbLayout
  1
Sheet1
 70
     1
 71
     0
 10
0.0
 20
0.0
 11
11.0
 21
8.5
 12
0.0
 22
0.0
 32
0.0
 14
0.0
 24
0.0
 34
0.0
 15
11.0
 25
8.5
 35
0.0
146
0.0
 13
0.0
 23
0.0
 33
0.0
 16
1.0
 26
0.0
 36
0.0
 17
0.0
 27
1.0
 37
0.0
 76
     0
330
1B
331
77
  0
MLINESTYLE
  5
18
102
{ACAD_REACTORS
330
17
102
}
330
17
100
AcDbMlineStyle
  2
Standard
 70
     0
  3

 62
   256
 51
90.0
 52
90.0
 71
     2
 49
0.5
 62
   256
  6
BYLAYER
 49
-0.5
 62
   256
  6
BYLAYER
  0
ACDBPLACEHOLDER
  5
F
102
{ACAD_REACTORS
330
E
102
}
330
E
  0
SCALE
  5
48
102
{ACAD_REACTORS
330
47
102
}
330
47
100
AcDbScale
 70
     0
300
1:1
140
1.0
141
1.0
290
     1
  0
SCALE
  5
49
102
{ACAD_REACTORS
330
47
102
}
330
47
100
AcDbScale
 70
     0
300
1:2
140
1.0
141
2.0
290
     0
  0
SCALE
  5
4A
102
{ACAD_REACTORS
330
47
102
}
330
47
100
AcDbScale
 70
     0
300
1:4
140
1.0
141
4.0
290
     0
  0
SCALE
  5
4B
102
{ACAD_REACTORS
330
47
102
}
330
47
100
AcDbScale
 70
     0
300
1:5
140
1.0
141
5.0
290
     0
  0
SCALE
  5
4C
102
{ACAD_REACTORS
330
47
102
}
330
47
100
AcDbScale
 70
     0
300
1:8
140
1.0
141
8.0
290
     0
  0
SCALE
  5
4D
102
{ACAD_REACTORS
330
47
102
}
330
47
100
AcDbScale
 70
     0
300
1:10
140
1.0
141
10.0
290
     0
  0
SCALE
  5
4E
102
{ACAD_REACTORS
330
47
102
}
330
47
100
AcDbScale
 70
     0
300
1:16
140
1.0
141
16.0
290
     0
  0
SCALE
  5
4F
102
{ACAD_REACTORS
330
47
102
}
330
47
100
AcDbScale
 70
     0
300
1:20
140
1.0
141
20.0
290
     0
  0
SCALE
  5
50
102
{ACAD_REACTORS
330
47
102
}
330
47
100
AcDbScale
 70
     0
300
1:30
140
1.0
141
30.0
290
     0
  0
SCALE
  5
51
102
{ACAD_REACTORS
330
47
102
}
330
47
100
AcDbScale
 70
     0
300
1:40
140
1.0
141
40.0
290
     0
  0
SCALE
  5
52
102
{ACAD_REACTORS
330
47
102
}
330
47
100
AcDbScale
 70
     0
300
1:50
140
1.0
141
50.0
290
     0
  0
SCALE
  5
53
102
{ACAD_REACTORS
330
47
102
}
330
47
100
AcDbScale
 70
     0
300
1:100
140
1.0
141
100.0
290
     0
  0
SCALE
  5
54
102
{ACAD_REACTORS
330
47
102
}
330
47
100
AcDbScale
 70
     0
300
2:1
140
2.0
141
1.0
290
     0
  0
SCALE
  5
55
102
{ACAD_REACTORS
330
47
102
}
330
47
100
AcDbScale
 70
     0
300
4:1
140
4.0
141
1.0
290
     0
  0
SCALE
  5
56
102
{ACAD_REACTORS
330
47
102
}
330
47
100
AcDbScale
 70
     0
300
8:1
140
8.0
141
1.0
290
     0
  0
SCALE
  5
57
102
{ACAD_REACTORS
330
47
102
}
330
47
100
AcDbScale
 70
     0
300
10:1
140
10.0
141
1.0
290
     0
  0
SCALE
  5
58
102
{ACAD_REACTORS
330
47
102
}
330
47
100
AcDbScale
 70
     0
300
100:1
140
100.0
141
1.0
290
     0
  0
SCALE
  5
59
102
{ACAD_REACTORS
330
47
102
}
330
47
100
AcDbScale
 70
     0
300
1/128" = 1'-0"
140
0.0078125
141
12.0
290
     0
  0
SCALE
  5
5A
102
{ACAD_REACTORS
330
47
102
}
330
47
100
AcDbScale
 70
     0
300
1/64" = 1'-0"
140
0.015625
141
12.0
290
     0
  0
SCALE
  5
5B
102
{ACAD_REACTORS
330
47
102
}
330
47
100
AcDbScale
 70
     0
300
1/32" = 1'-0"
140
0.03125
141
12.0
290
     0
  0
SCALE
  5
5C
102
{ACAD_REACTORS
330
47
102
}
330
47
100
AcDbScale
 70
     0
300
1/16" = 1'-0"
140
0.0625
141
12.0
290
     0
  0
SCALE
  5
5D
102
{ACAD_REACTORS
330
47
102
}
330
47
100
AcDbScale
 70
     0
300
3/32" = 1'-0"
140
0.09375
141
12.0
290
     0
  0
SCALE
  5
5E
102
{ACAD_REACTORS
330
47
102
}
330
47
100
AcDbScale
 70
     0
300
1/8" = 1'-0"
140
0.125
141
12.0
290
     0
  0
SCALE
  5
5F
102
{ACAD_REACTORS
330
47
102
}
330
47
100
AcDbScale
 70
     0
300
3/16" = 1'-0"
140
0.1875
141
12.0
290
     0
  0
SCALE
  5
60
102
{ACAD_REACTORS
330
47
102
}
330
47
100
AcDbScale
 70
     0
300
1/4" = 1'-0"
140
0.25
141
12.0
290
     0
  0
SCALE
  5
61
102
{ACAD_REACTORS
330
47
102
}
330
47
100
AcDbScale
 70
     0
300
3/8" = 1'-0"
140
0.375
141
12.0
290
     0
  0
SCALE
  5
62
102
{ACAD_REACTORS
330
47
102
}
330
47
100
AcDbScale
 70
     0
300
1/2" = 1'-0"
140
0.5
141
12.0
290
     0
  0
SCALE
  5
63
102
{ACAD_REACTORS
330
47
102
}
330
47
100
AcDbScale
 70
     0
300
3/4" = 1'-0"
140
0.75
141
12.0
290
     0
  0
SCALE
  5
64
102
{ACAD_REACTORS
330
47
102
}
330
47
100
AcDbScale
 70
     0
300
1" = 1'-0"
140
1.0
141
12.0
290
     0
  0
SCALE
  5
65
102
{ACAD_REACTORS
330
47
102
}
330
47
100
AcDbScale
 70
     0
300
1-1/2" = 1'-0"
140
1.5
141
12.0
290
     0
  0
SCALE
  5
66
102
{ACAD_REACTORS
330
47
102
}
330
47
100
AcDbScale
 70
     0
300
3" = 1'-0"
140
3.0
141
12.0
290
     0
  0
SCALE
  5
67
102
{ACAD_REACTORS
330
47
102
}
330
47
100
AcDbScale
 70
     0
300
6" = 1'-0"
140
6.0
141
12.0
290
     0
  0
SCALE
  5
68
102
{ACAD_REACTORS
330
47
102
}
330
47
100
AcDbScale
 70
     0
300
1'-0" = 1'-0"
140
12.0
141
12.0
290
     0
  0
ENDSEC
  0
EOF
