<?xml version="1.0" encoding="UTF-8" standalone="no"?>
<svg
   xmlns:dc="http://purl.org/dc/elements/1.1/"
   xmlns:cc="http://creativecommons.org/ns#"
   xmlns:rdf="http://www.w3.org/1999/02/22-rdf-syntax-ns#"
   xmlns:svg="http://www.w3.org/2000/svg"
   xmlns="http://www.w3.org/2000/svg"
   xmlns:sodipodi="http://sodipodi.sourceforge.net/DTD/sodipodi-0.dtd"
   xmlns:inkscape="http://www.inkscape.org/namespaces/inkscape"
   sodipodi:docname="screw.svg"
   inkscape:version="1.0 (4035a4fb49, 2020-05-01)"
   id="svg8"
   version="1.1"
   viewBox="0 0 117.74497 55.658583"
   height="2.1912827in"
   width="4.6356287in">
  <defs
     id="defs2" />
  <sodipodi:namedview
     inkscape:window-maximized="1"
     inkscape:window-y="-8"
     inkscape:window-x="1912"
     inkscape:window-height="1027"
     inkscape:window-width="1920"
     fit-margin-bottom="0.25"
     fit-margin-right="0.25"
     fit-margin-left="0.25"
     fit-margin-top="0.25"
     units="in"
     showgrid="false"
     inkscape:document-rotation="0"
     inkscape:current-layer="layer1"
     inkscape:document-units="mm"
     inkscape:cy="112.12897"
     inkscape:cx="383.65881"
     inkscape:zoom="1.4"
     inkscape:pageshadow="2"
     inkscape:pageopacity="0.0"
     borderopacity="1.0"
     bordercolor="#666666"
     pagecolor="#ffffff"
     id="base" />
  <metadata
     id="metadata5">
    <rdf:RDF>
      <cc:Work
         rdf:about="">
        <dc:format>image/svg+xml</dc:format>
        <dc:type
           rdf:resource="http://purl.org/dc/dcmitype/StillImage" />
        <dc:title></dc:title>
      </cc:Work>
    </rdf:RDF>
  </metadata>
  <g
     transform="translate(-46.015755,-69.98952)"
     id="layer1"
     inkscape:groupmode="layer"
     inkscape:label="Layer 1">
    <g
       transform="translate(-63.877978,-58.208333)"
       id="g1140">
      <text
         transform="scale(1.0000565,0.99994351)"
         style="font-variant:normal;font-weight:normal;font-stretch:normal;font-size:4.23357px;font-family:Calibri;-inkscape-font-specification:Calibri;writing-mode:lr-tb;fill:#000000;fill-opacity:1;fill-rule:nonzero;stroke:none;stroke-width:0.352798"
         id="text851"
         x="203.19302"
         y="172.33487"><tspan
           x="203.19302 206.81314 207.88013 210.61533 213.41826"
           y="172.33487"
           sodipodi:role="line"
           id="tspan849"
           style="stroke-width:0.352798">MINOR</tspan></text>
      <text
         transform="scale(1.0001545,0.99984553)"
         style="font-variant:normal;font-weight:normal;font-stretch:normal;font-size:4.23399px;font-family:Calibri;-inkscape-font-specification:Calibri;writing-mode:lr-tb;fill:#000000;fill-opacity:1;fill-rule:nonzero;stroke:none;stroke-width:0.352832"
         id="text855"
         x="203.17313"
         y="177.52145"><tspan
           x="203.17313 205.77783 206.84512 209.29736 212.91853 214.98537 217.04794 219.11478"
           y="177.52145"
           sodipodi:role="line"
           id="tspan853"
           style="stroke-width:0.352832">DIAMETER</tspan></text>
      <text
         transform="scale(0.99987999,1.00012)"
         style="font-variant:normal;font-weight:normal;font-stretch:normal;font-size:4.23283px;font-family:Calibri;-inkscape-font-specification:Calibri;writing-mode:lr-tb;fill:#000000;fill-opacity:1;fill-rule:nonzero;stroke:none;stroke-width:0.352735"
         id="text859"
         x="141.91864"
         y="172.30444"><tspan
           x="141.91864 145.53683 147.98706 149.33701 152.13846"
           y="172.30444"
           sodipodi:role="line"
           id="tspan857"
           style="stroke-width:0.352735">MAJOR</tspan></text>
      <text
         transform="scale(1.0001545,0.99984553)"
         style="font-variant:normal;font-weight:normal;font-stretch:normal;font-size:4.23399px;font-family:Calibri;-inkscape-font-specification:Calibri;writing-mode:lr-tb;fill:#000000;fill-opacity:1;fill-rule:nonzero;stroke:none;stroke-width:0.352832"
         id="text863"
         x="141.87968"
         y="177.52145"><tspan
           x="141.87968 144.48439 145.5517 148.00392 151.62511 153.69193 155.75452 157.82135"
           y="177.52145"
           sodipodi:role="line"
           id="tspan861"
           style="stroke-width:0.352832">DIAMETER</tspan></text>
      <text
         transform="scale(1.0000625,0.9999375)"
         style="font-variant:normal;font-weight:normal;font-stretch:normal;font-size:4.2336px;font-family:Calibri;-inkscape-font-specification:Calibri;writing-mode:lr-tb;fill:#000000;fill-opacity:1;fill-rule:nonzero;stroke:none;stroke-width:0.3528"
         id="text867"
         x="203.57701"
         y="137.24361"><tspan
           x="203.57701 205.63904 208.2769 210.57603 212.64229 215.09384"
           y="137.24361"
           sodipodi:role="line"
           id="tspan865"
           style="stroke-width:0.3528">THREAD</tspan></text>
      <text
         transform="scale(1.0001035,0.99989652)"
         style="font-variant:normal;font-weight:normal;font-stretch:normal;font-size:4.23377px;font-family:Calibri;-inkscape-font-specification:Calibri;writing-mode:lr-tb;fill:#000000;fill-opacity:1;fill-rule:nonzero;stroke:none;stroke-width:0.352814"
         id="text871"
         x="203.56868"
         y="142.41867"><tspan
           x="203.56868 205.75798 206.82512 208.88739 211.14445"
           y="142.41867"
           sodipodi:role="line"
           id="tspan869"
           style="stroke-width:0.352814">PITCH</tspan></text>
      <text
         transform="scale(1.0002435,0.99975659)"
         style="font-variant:normal;font-weight:normal;font-stretch:normal;font-size:4.23436px;font-family:Calibri;-inkscape-font-specification:Calibri;writing-mode:lr-tb;fill:#000000;fill-opacity:1;fill-rule:nonzero;stroke:none;stroke-width:0.352864"
         id="text875"
         x="155.03799"
         y="138.40749"><tspan
           x="155.03799 156.98251 159.62181 162.42632 165.1461 166.9254 169.53081 171.59818"
           y="138.40749"
           sodipodi:role="line"
           id="tspan873"
           style="stroke-width:0.352864">SHOULDER</tspan></text>
      <text
         transform="scale(1.000045,0.999955)"
         style="font-variant:normal;font-weight:normal;font-stretch:normal;font-size:4.23352px;font-family:Calibri;-inkscape-font-specification:Calibri;writing-mode:lr-tb;fill:#000000;fill-opacity:1;fill-rule:nonzero;stroke:none;stroke-width:0.352794"
         id="text879"
         x="128.98413"
         y="138.11754"><tspan
           x="128.98413 131.62186 133.688 136.13943"
           y="138.11754"
           sodipodi:role="line"
           id="tspan877"
           style="stroke-width:0.352794">HEAD</tspan></text>
      <g
         id="g911"
         transform="matrix(0.35277777,0,0,-0.35277777,143.77962,151.47522)">
        <path
           d="M 0,0 1.3,9.4 4.1,8.5 0,0 m -61,9 -1.5,9.3 h 2.9 L -61,9"
           style="fill:none;stroke:#000000;stroke-width:0.51;stroke-linecap:butt;stroke-linejoin:miter;stroke-miterlimit:10;stroke-dasharray:none;stroke-opacity:1"
           id="path913" />
      </g>
      <g
         id="g915"
         transform="matrix(0.35277777,0,0,-0.35277777,196.8374,152.95689)">
        <path
           d="M 0,0 -1.4,9.4 H 1.4 L 0,0 M 0,-27.7 1.4,-37 h -2.8 l 1.4,9.3 m -173.8,31.9 -1.4,9.3 h 2.9 l -1.5,-9.3 m 0,-36 1.5,-9.4 h -2.9 l 1.4,9.4 M -29.4,41.5 -20,43 v -2.9 l -9.4,1.4 m -5.5,0 -9.4,-1.4 V 43 l 9.4,-1.5"
           style="fill:none;stroke:#000000;stroke-width:0.51;stroke-linecap:butt;stroke-linejoin:miter;stroke-miterlimit:10;stroke-dasharray:none;stroke-opacity:1"
           id="path917" />
      </g>
      <path
         id="path925"
         style="fill:none;stroke:#000000;stroke-width:0.179917;stroke-linecap:round;stroke-linejoin:round;stroke-miterlimit:10;stroke-dasharray:none;stroke-opacity:1"
         d="m 154.53934,136.72911 h -6.27944 m 0,0 -4.48028,14.74612 m -15.34583,-15.02834 h -6.24417 m 0,0 0.0706,11.85334"
         sodipodi:nodetypes="cccccccc" />
      <g
         id="g931"
         transform="matrix(0.35277777,0,0,-0.35277777,193.83879,152.95689)">
        <path
           d="M 0,0 H 17.5 M 0,-27.7 h 17.5 m 9,-30.2 h -18 m 0,0 v 30.2 M 8.5,0 v 18 m -155.8,-75.9 h -18 m 0,0 v 26.1 m 0,36 v 18 M -20.9,7.8 V 50.5 M -26.4,7.8 v 42.7 m 5.5,-9 h 48.5 m -54,0 h -18"
           style="fill:none;stroke:#000000;stroke-width:0.51;stroke-linecap:round;stroke-linejoin:round;stroke-miterlimit:10;stroke-dasharray:none;stroke-opacity:1"
           id="path933" />
      </g>
      <g
         id="g939"
         transform="matrix(0.35277777,0,0,-0.35277777,143.77962,151.47522)">
        <path
           d="M 0,0 1.3,9.4 4.1,8.5 M -61,9 l -1.5,9.3 h 2.9"
           style="fill:#000000;fill-opacity:1;fill-rule:nonzero;stroke:none"
           id="path941" />
      </g>
      <g
         id="g943"
         transform="matrix(0.35277777,0,0,-0.35277777,196.8374,152.95689)">
        <path
           d="M 0,0 -1.4,9.4 H 1.4 M 0,-27.7 1.4,-37 h -2.8 m -172.4,41.2 -1.4,9.3 h 2.9 m -1.5,-45.3 1.5,-9.4 h -2.9 M -29.4,41.5 -20,43 v -2.9 m -14.9,1.4 -9.4,-1.4 V 43"
           style="fill:#000000;fill-opacity:1;fill-rule:nonzero;stroke:none"
           id="path945" />
      </g>
      <g
         id="g951"
         transform="matrix(0.35277777,0,0,-0.35277777,121.2724,148.30022)">
        <path
           d="M 0,0 -11.4,-11.4 M 12.7,0 1.3,-11.4 m 20.8,8 -15.7,-15.7 m -10.8,-23.5 -8.7,-8.7 M 29.2,-9 6.4,-31.9 M 41.9,-9 -3.1,-54 m 57.7,45 -45,-45 m 57.8,45 -36,-36 m 48.7,36 -36,-36 m 48.7,36 -36,-36 m 46.8,34 -34.1,-34 M 115.2,-12.1 82.3,-45 m 48.1,35.4 -32.9,-32.9 m 44.6,31.9 -32.9,-33 m 14.4,1.7 -2.7,-2.7 m 32.9,32.9 -29.7,-29.7 m 41.5,28.8 -29.5,-29.5 m 32.9,32.9 -2.2,-2.2 m 13.9,1.1 -33,-32.9 m 44.6,31.9 -32.9,-32.9 m 12.6,-0.2 -0.6,-0.6 m 30.7,30.7 -27.5,-27.5 m 27.5,14.8 -15.8,-15.8 m 15.8,3.1 -4.1,-4.2"
           style="fill:none;stroke:#000000;stroke-width:0.51;stroke-linecap:round;stroke-linejoin:round;stroke-miterlimit:10;stroke-dasharray:none;stroke-opacity:1"
           id="path953" />
      </g>
      <g
         id="g955"
         transform="matrix(0.35277777,0,0,-0.35277777,154.50407,164.17522)">
        <path
           d="M 0,0 V 0.1 M 107.2,3.5 V 3.6 M 99.7,0 l 1,1.8 1,1.8 M 94.1,0 l 1.1,1.8 1,1.8 M 88.6,0 l 1,1.8 1,1.8 M 83,0 l 1.1,1.8 1,1.8 M 77.5,0 l 1,1.8 1.1,1.8 M 72,0 73,1.8 74,3.6 M 66.4,0 l 1.1,1.8 1,1.8 M 60.9,0 l 1,1.8 1,1.8 M 55.3,0 l 1.1,1.8 1,1.8 M 49.8,0 l 1.1,1.8 1,1.8 M 44.3,0 l 1,1.8 1,1.8 M 38.7,0 l 1.1,1.8 1,1.8 M 33.2,0 l 1,1.8 1,1.8 M 27.7,0 l 1,1.8 1,1.8 M 22.1,0 l 1.1,1.8 1,1.8 M 16.6,0 l 1,1.8 1,1.8 M 11,0 l 1.1,1.8 1,1.8 M 5.5,0 6.5,1.8 7.6,3.6 M -0.1,0 3,3.1 M 1.2,34.7 -0.1,36 M 107,3.3 104.2,0.4 m 2.8,2.9 0.2,0.2 m 0.7,0.6 -0.6,-0.5 m -1.4,30.2 2,-2 M 0,0.1 -0.1,0 m 4.8,32.4 -0.5,1 -0.6,1 -0.9,1.6 m -110.8,-2.4 h 20.3 m -20.3,0 v 7.8 m 0,0 3.6,3.6 m 30.6,0 h -30.6 m 30.6,0 1.8,-1.8 m 0,-7.2 v 7.2 m 0,-7.2 h 72 M 2,36 1.4,35 1.2,34.7 M 2,36 H 2.7 M 5.4,32.4 H 4.7 M 7.5,36 6.9,35 6.4,34 5.4,32.4 M 7.5,36 h 0.7 m 2.1,-3.6 -0.6,1 -0.6,1 L 8.2,36 M 11,32.4 H 10.3 M 13.1,36 12.5,35 11.9,34 11,32.4 m 2.1,3.6 h 0.6 m 2.1,-3.6 -0.6,1 -0.5,1 -1,1.6 m 2.8,-3.6 H 15.8 M 18.6,36 18,35 17.4,34 16.5,32.4 m 2.1,3.6 h 0.7 m 2.1,-3.6 -0.6,1 -0.6,1 -0.9,1.6 m 2.8,-3.6 H 21.4 M 24.1,36 23.6,35 23,34 22.1,32.4 m 2,3.6 h 0.7 m 2.1,-3.6 -0.6,1 -0.6,1 -0.9,1.6 m 2.8,-3.6 h -0.7 m 2.8,3.6 -0.6,-1 -0.6,-1 -0.9,-1.6 m 2.1,3.6 h 0.7 m 2,-3.6 -0.5,1 -0.6,1 -0.9,1.6 m 2.7,-3.6 H 32.4 M 35.2,36 34.6,35 34,34 33.1,32.4 m 2.1,3.6 h 0.7 m 2.1,-3.6 -0.6,1 -0.6,1 -0.9,1.6 m 2.8,-3.6 H 38 m 2.7,3.6 -0.5,-1 -0.6,-1 -0.9,-1.6 m 2,3.6 h 0.7 m 2.1,-3.6 -0.6,1 -0.5,1 -1,1.6 m 2.8,-3.6 H 43.5 M 46.3,36 45.7,35 45.1,34 44.2,32.4 M 46.3,36 H 47 m 2.1,-3.6 -0.6,1 -0.6,1 L 47,36 m 2.7,-3.6 h -0.6 m 2.7,3.6 -0.6,-1 -0.5,-1 -1,-1.6 m 2.1,3.6 h 0.7 m 2.1,-3.6 -0.6,1 -0.6,1 -0.9,1.6 m 2.8,-3.6 h -0.7 m 2.8,3.6 -0.6,-1 -0.6,-1 -0.9,-1.6 m 2.1,3.6 h 0.7 m 2,-3.6 -0.5,1 -0.6,1 -0.9,1.6 m 2.7,-3.6 h -0.7 m 2.8,3.6 -0.6,-1 -0.6,-1 -0.9,-1.6 m 2.1,3.6 h 0.7 m 2.1,-3.6 -0.6,1 -0.6,1 -0.9,1.6 m 2.8,-3.6 h -0.7 m 2.7,3.6 -0.5,-1 -0.6,-1 -0.9,-1.6 m 2,3.6 h 0.7 m 2.1,-3.6 -0.6,1 -0.6,1 -0.9,1.6 m 2.8,-3.6 H 71.2 M 74,36 73.4,35 72.8,34 71.9,32.4 M 74,36 h 0.7 m 2,-3.6 -0.5,1 -0.6,1 -0.9,1.6 m 2.7,-3.6 h -0.7 m 2.8,3.6 -0.6,-1 -0.5,-1 -1,-1.6 m 2.1,3.6 h 0.7 m 2.1,-3.6 -0.6,1 -0.6,1 -0.9,1.6 M 83,32.4 H 82.3 M 85.1,36 84.5,35 83.9,34 83,32.4 m 2.1,3.6 h 0.6 m 2.1,-3.6 -0.6,1 -0.5,1 -1,1.6 m 2.8,-3.6 H 87.8 M 90.6,36 90,35 89.4,34 88.5,32.4 m 2.1,3.6 h 0.7 m 2.1,-3.6 -0.6,1 -0.6,1 -0.9,1.6 m 2.8,-3.6 H 93.4 M 96.1,36 95.6,35 95,34 94.1,32.4 m 2,3.6 h 0.7 m 2.1,-3.6 -0.6,1 -0.6,1 -0.9,1.6 m 2.8,-3.6 h -0.7 m 2.8,3.6 -0.6,-1 -0.6,-1 -0.9,-1.6 m 2.1,3.6 h 0.7 m 2,-3.6 -0.5,1 -0.6,1 -0.9,1.6 m 2.7,-3.6 h -0.7 m 1.5,1.4 -0.8,-1.4 m 2.8,-0.6 V 4.1 m -0.7,-0.5 h 0.1 m -0.3,-0.3 0.2,0.3 m -4.8,0 0.5,-1 0.6,-1 0.7,-1.2 m -2.5,3.2 h 0.7 M 99.6,0 l 0.6,1 0.6,1 0.9,1.6 M 99.6,0 h -0.7 m -2.1,3.6 0.6,-1 0.6,-1 0.9,-1.6 m -2.8,3.6 h 0.7 M 94.1,0 l 0.5,1 0.6,1 0.9,1.6 M 94.1,0 h -0.7 m -2.1,3.6 0.6,-1 0.5,-1 1,-1.6 m -2.8,3.6 h 0.7 M 88.5,0 l 0.6,1 0.6,1 0.9,1.6 M 88.5,0 h -0.7 m -2.1,3.6 0.6,-1 0.6,-1 0.9,-1.6 m -2.7,3.6 h 0.6 M 83,0 l 0.6,1 0.5,1 1,1.6 M 83,0 h -0.7 m -2.1,3.6 0.6,-1 0.6,-1 0.9,-1.6 m -2.8,3.6 h 0.7 M 77.4,0 78,1 78.6,2 79.5,3.6 M 77.4,0 h -0.7 m -2,3.6 0.5,-1 0.6,-1 L 76.7,0 M 74,3.6 h 0.7 M 71.9,0 72.5,1 73.1,2 74,3.6 M 71.9,0 h -0.7 m -2.1,3.6 0.6,-1 0.6,-1 0.9,-1.6 m -2.8,3.6 h 0.7 M 66.4,0 l 0.5,1 0.6,1 0.9,1.6 M 66.4,0 h -0.7 m -2.1,3.6 0.6,-1 0.6,-1 0.9,-1.6 m -2.8,3.6 h 0.7 M 60.8,0 61.4,1 62,2 62.9,3.6 M 60.8,0 h -0.7 m -2,3.6 0.5,-1 0.6,-1 0.9,-1.6 m -2.7,3.6 h 0.7 M 55.3,0 l 0.6,1 0.5,1 1,1.6 M 55.3,0 h -0.7 m -2.1,3.6 0.6,-1 0.6,-1 0.9,-1.6 m -2.8,3.6 h 0.7 M 49.7,0 l 0.6,1 0.6,1 0.9,1.6 M 49.7,0 h -0.6 m -2.1,3.6 0.6,-1 0.5,-1 1,-1.6 M 46.3,3.6 H 47 M 44.2,0 l 0.6,1 0.6,1 0.9,1.6 M 44.2,0 h -0.7 m -2.1,3.6 0.6,-1 0.6,-1 0.9,-1.6 m -2.8,3.6 h 0.7 M 38.7,0 l 0.5,1 0.6,1 0.9,1.6 M 38.7,0 H 38 m -2.1,3.6 0.6,-1 0.6,-1 L 38,0 m -2.8,3.6 h 0.7 M 33.1,0 l 0.6,1 0.6,1 0.9,1.6 M 33.1,0 h -0.7 m -2,3.6 0.5,-1 0.6,-1 0.9,-1.6 m -2.7,3.6 h 0.7 M 27.6,0 l 0.6,1 0.6,1 0.9,1.6 M 27.6,0 h -0.7 m -2.1,3.6 0.6,-1 0.6,-1 0.9,-1.6 m -2.8,3.6 h 0.7 M 22.1,0 l 0.5,1 0.6,1 0.9,1.6 M 22.1,0 h -0.7 m -2.1,3.6 0.6,-1 0.5,-1 1,-1.6 m -2.8,3.6 h 0.7 M 16.5,0 l 0.6,1 0.6,1 0.9,1.6 M 16.5,0 h -0.7 m -2.1,3.6 0.6,-1 0.6,-1 0.9,-1.6 m -2.7,3.6 h 0.6 M 11,0 l 0.6,1 0.5,1 1,1.6 M 11,0 H 10.3 M 8.2,3.6 8.8,2.6 9.4,1.6 10.3,0 M 7.5,3.6 H 8.2 M 5.4,0 6,1 6.6,2 7.5,3.6 M 5.4,0 H 4.7 M 3,3.1 3.2,2.6 3.8,1.6 4.7,0 m -4.8,0 h -72 m 0,-7.2 V 0 m 0,-7.2 -1.8,-1.8 m -30.6,0 h 30.6 m -30.6,0 -3.6,3.6 m 0,0 v 7.8 m 20.3,0 h -20.3 m 20.3,0 V 33.6 M 101.7,36 101.5,35.8 V 35.5 M 99.7,0.1 99.6,0 M 96.1,36 96,35.8 95.9,35.5 M 94.1,0.1 V 0 M 90.6,36 90.5,35.8 90.4,35.5 M 88.6,0.1 88.5,0 M 85.1,36 84.9,35.8 V 35.5 M 83,0.1 V 0 M 79.5,36 79.4,35.8 79.3,35.5 M 77.5,0.1 77.4,0 M 74,36 73.9,35.8 73.8,35.5 M 72,0.1 71.9,0 M 68.4,36 68.3,35.8 68.2,35.5 M 66.4,0.1 V 0 M 62.9,36 62.8,35.8 62.7,35.5 M 60.9,0.1 60.8,0 M 57.4,36 57.2,35.8 V 35.5 M 55.3,0.1 V 0 M 51.8,36 51.7,35.8 51.6,35.5 M 49.8,0.1 49.7,0 M 46.3,36 46.2,35.8 46.1,35.5 M 44.3,0.1 44.2,0 M 40.7,36 40.6,35.8 V 35.5 M 38.7,0.1 V 0 M 35.2,36 35.1,35.8 35,35.5 M 33.2,0.1 33.1,0 M 29.7,36 29.5,35.8 V 35.5 M 27.7,0.1 27.6,0 M 24.1,36 24,35.8 23.9,35.5 M 22.1,0.1 V 0 M 18.6,36 18.5,35.8 18.4,35.5 M 16.6,0.1 16.5,0 M 13.1,36 12.9,35.8 V 35.5 M 11,0.1 V 0 M 7.5,36 7.4,35.8 7.3,35.5 M 5.5,0.1 5.4,0 M 2,36 1.9,35.8 1.8,35.5 m -109.9,-25.3 0.7,-0.8 0.6,-0.8 0.5,-0.9 0.3,-0.9 V 6.3 l -0.1,-0.8 -0.2,-0.6 -0.3,-0.6 -0.3,-0.5 -0.8,-1 -0.4,-0.4 m 20.3,7.8 h -20.3 m 20.3,15.6 h -20.3 m 0,7.8 0.4,-0.4 0.7,-0.8 0.5,-0.9 0.4,-0.9 0.1,-0.4 v -0.7 l -0.3,-1.2 -0.3,-0.7 -0.3,-0.4 -0.8,-1 -0.4,-0.4 m 0,7.8 v -0.1 -0.3 -0.4 -0.6 -0.7 -0.9 -1 -1.2 -1.3 -1.3 m 0,-15.6 V 8.8 7.5 6.4 5.4 4.5 3.7 3.2 2.7 2.5 2.4 m 0,23.4 1.2,-2.7 0.6,-2.6 0.3,-2.7 -0.3,-2.7 -0.8,-2.6 -1,-2.3 m 0,15.6 V 24.3 22.8 21.2 19.6 18 16.4 14.7 13.2 11.6 10.2"
           style="fill:none;stroke:#000000;stroke-width:0.709;stroke-linecap:round;stroke-linejoin:round;stroke-miterlimit:10;stroke-dasharray:none;stroke-opacity:1"
           id="path957" />
      </g>
    </g>
  </g>
</svg>
